<svg xmlns="http://www.w3.org/2000/svg" xmlns:xlink="http://www.w3.org/1999/xlink" viewBox="0 0 600 480"><desc>Produced by GNUPLOT 6.0 patchlevel 1</desc><path fill="none" d="M0 0h600v480H0z"/><defs><circle id="a" cx="0" cy="0" r="1" stroke="currentColor" stroke-width=".222"/><use xlink:href="#a" id="b" fill="currentColor" stroke="none"/></defs><g fill="none" stroke="currentColor" color="#000"><path stroke="#000" d="M106.09 420.78h4.5m-4.5-5.78h4.5m-4.5-3.48h4.5m-4.5-2.49h4.5m-4.5-1.94h4.5m-4.5-1.6h4.5m-4.5-1.35h4.5m-4.5-1.17h4.5m-4.5-1.04h9"/><text fill="#000" stroke="none" font-family="Arial" font-size="12" text-anchor="end" transform="translate(97.7 405.83)"><tspan> 1x10</tspan><tspan dy="-6" font-size="9.6">-16</tspan></text></g><g fill="none" stroke="currentColor" color="#000"><path stroke="#000" d="M106.09 379.85h4.5m-4.5-5.79h4.5m-4.5-3.47h4.5m-4.5-2.49h4.5m-4.5-1.94h4.5m-4.5-1.6h4.5m-4.5-1.35h4.5m-4.5-1.17h4.5m-4.5-1.04h9"/><text fill="#000" stroke="none" font-family="Arial" font-size="12" text-anchor="end" transform="translate(97.7 364.9)"><tspan> 1x10</tspan><tspan dy="-6" font-size="9.6">-14</tspan></text></g><g fill="none" stroke="currentColor" color="#000"><path stroke="#000" d="M106.09 338.92h4.5m-4.5-5.79h4.5m-4.5-3.47h4.5m-4.5-2.49h4.5m-4.5-1.95h4.5m-4.5-1.59h4.5m-4.5-1.35h4.5m-4.5-1.17h4.5m-4.5-1.04h9"/><text fill="#000" stroke="none" font-family="Arial" font-size="12" text-anchor="end" transform="translate(97.7 323.97)"><tspan> 1x10</tspan><tspan dy="-6" font-size="9.6">-12</tspan></text></g><g fill="none" stroke="currentColor" color="#000"><path stroke="#000" d="M106.09 297.98h4.5m-4.5-5.78h4.5m-4.5-3.47h4.5m-4.5-2.5h4.5m-4.5-1.94h4.5m-4.5-1.59h4.5m-4.5-1.35h4.5m-4.5-1.18h4.5m-4.5-1.03h9"/><text fill="#000" stroke="none" font-family="Arial" font-size="12" text-anchor="end" transform="translate(97.7 283.04)"><tspan> 1x10</tspan><tspan dy="-6" font-size="9.6">-10</tspan></text></g><g fill="none" stroke="currentColor" color="#000"><path stroke="#000" d="M106.09 257.05h4.5m-4.5-5.78h4.5m-4.5-3.48h4.5m-4.5-2.49h4.5m-4.5-1.94h4.5m-4.5-1.6h4.5m-4.5-1.35h4.5m-4.5-1.17h4.5m-4.5-1.04h9"/><text fill="#000" stroke="none" font-family="Arial" font-size="12" text-anchor="end" transform="translate(97.7 242.1)"><tspan> 1x10</tspan><tspan dy="-6" font-size="9.6">-8</tspan></text></g><g fill="none" stroke="currentColor" color="#000"><path stroke="#000" d="M106.09 216.12h4.5m-4.5-5.78h4.5m-4.5-3.48h4.5m-4.5-2.49h4.5m-4.5-1.94h4.5m-4.5-1.6h4.5m-4.5-1.35h4.5m-4.5-1.17h4.5m-4.5-1.04h9"/><text fill="#000" stroke="none" font-family="Arial" font-size="12" text-anchor="end" transform="translate(97.7 201.17)"><tspan> 1x10</tspan><tspan dy="-6" font-size="9.6">-6</tspan></text></g><g fill="none" stroke="currentColor" color="#000"><path stroke="#000" d="M106.09 175.19h4.5m-4.5-5.79h4.5m-4.5-3.47h4.5m-4.5-2.49h4.5m-4.5-1.95h4.5m-4.5-1.59h4.5m-4.5-1.35h4.5m-4.5-1.17h4.5m-4.5-1.04h9"/><text fill="#000" stroke="none" font-family="Arial" font-size="12" text-anchor="end" transform="translate(97.7 160.24)"><tspan> 0.0001</tspan></text></g><g fill="none" stroke="currentColor" color="#000"><path stroke="#000" d="M106.09 134.25h4.5m-4.5-5.78h4.5m-4.5-3.47h4.5m-4.5-2.49h4.5m-4.5-1.95h4.5m-4.5-1.59h4.5m-4.5-1.35h4.5m-4.5-1.18h4.5m-4.5-1.03h9"/><text fill="#000" stroke="none" font-family="Arial" font-size="12" text-anchor="end" transform="translate(97.7 119.31)"><tspan> 0.01</tspan></text></g><g fill="none" stroke="currentColor" color="#000"><path stroke="#000" d="M106.09 93.32h4.5m-4.5-5.78h4.5m-4.5-3.48h4.5m-4.5-2.49h4.5m-4.5-1.94h4.5m-4.5-1.59h4.5m-4.5-1.36h4.5m-4.5-1.17h4.5m-4.5-1.03h9"/><text fill="#000" stroke="none" font-family="Arial" font-size="12" text-anchor="end" transform="translate(97.7 78.38)"><tspan> 1</tspan></text></g><g fill="none" stroke="currentColor" color="#000"><path stroke="#000" d="M119.55 422.4v-4.5m.45 4.5v-4.5m.26 4.5v-4.5m.19 4.5v-4.5m.14 4.5v-4.5m.12 4.5v-4.5m.1 4.5v-4.5m.08 4.5v-4.5m.08 4.5v-9"/><text fill="#000" stroke="none" font-family="Arial" font-size="12" text-anchor="middle" transform="translate(120.97 444.3)"><tspan> 1</tspan></text></g><g fill="none" stroke="currentColor" color="#000"><path stroke="#000" d="M193.95 422.4v-4.5m.45 4.5v-4.5m.26 4.5v-4.5m.19 4.5v-4.5m.14 4.5v-4.5m.12 4.5v-4.5m.1 4.5v-4.5m.09 4.5v-4.5m.07 4.5v-9"/><text fill="#000" stroke="none" font-family="Arial" font-size="12" text-anchor="middle" transform="translate(195.37 444.3)"><tspan> 1x10</tspan><tspan dy="-6" font-size="9.6">50</tspan></text></g><g fill="none" stroke="currentColor" color="#000"><path stroke="#000" d="M268.35 422.4v-4.5m.45 4.5v-4.5m.26 4.5v-4.5m.19 4.5v-4.5m.14 4.5v-4.5m.12 4.5v-4.5m.1 4.5v-4.5m.09 4.5v-4.5m.07 4.5v-9"/><text fill="#000" stroke="none" font-family="Arial" font-size="12" text-anchor="middle" transform="translate(269.77 444.3)"><tspan> 1x10</tspan><tspan dy="-6" font-size="9.6">100</tspan></text></g><g fill="none" stroke="currentColor" color="#000"><path stroke="#000" d="M342.76 422.4v-4.5m.44 4.5v-4.5m.27 4.5v-4.5m.18 4.5v-4.5m.15 4.5v-4.5m.11 4.5v-4.5m.1 4.5v-4.5m.09 4.5v-4.5m.08 4.5v-9"/><text fill="#000" stroke="none" font-family="Arial" font-size="12" text-anchor="middle" transform="translate(344.18 444.3)"><tspan> 1x10</tspan><tspan dy="-6" font-size="9.6">150</tspan></text></g><g fill="none" stroke="currentColor" color="#000"><path stroke="#000" d="M417.16 422.4v-4.5m.44 4.5v-4.5m.27 4.5v-4.5m.18 4.5v-4.5m.15 4.5v-4.5m.11 4.5v-4.5m.1 4.5v-4.5m.09 4.5v-4.5m.08 4.5v-9"/><text fill="#000" stroke="none" font-family="Arial" font-size="12" text-anchor="middle" transform="translate(418.58 444.3)"><tspan> 1x10</tspan><tspan dy="-6" font-size="9.6">200</tspan></text></g><g fill="none" stroke="currentColor" color="#000"><path stroke="#000" d="M491.56 422.4v-4.5m.45 4.5v-4.5m.26 4.5v-4.5m.18 4.5v-4.5m.15 4.5v-4.5m.12 4.5v-4.5m.1 4.5v-4.5m.08 4.5v-4.5m.08 4.5v-9"/><text fill="#000" stroke="none" font-family="Arial" font-size="12" text-anchor="middle" transform="translate(492.98 444.3)"><tspan> 1x10</tspan><tspan dy="-6" font-size="9.6">250</tspan></text></g><g fill="none" stroke="currentColor" color="#000"><path stroke="#000" d="M565.96 422.4v-4.5m.45 4.5v-4.5m.26 4.5v-4.5m.19 4.5v-4.5m.14 4.5v-4.5m.12 4.5v-4.5m.1 4.5v-4.5m.08 4.5v-4.5m.08 4.5v-9"/><text fill="#000" stroke="none" font-family="Arial" font-size="12" text-anchor="middle" transform="translate(567.38 444.3)"><tspan> 1x10</tspan><tspan dy="-6" font-size="9.6">300</tspan></text></g><path fill="none" stroke="#000" d="M106.09 54.01V422.4h468.73V54.01z" color="#000"/><text color="#000" font-family="Arial" font-size="12" text-anchor="end" transform="translate(507.09 179.11)"><tspan>Dot2</tspan></text><g fill="none" stroke="currentColor" color="#3CE363"><use xlink:href="#b" transform="matrix(.9 0 0 .9 122.13 401.93)"/><use xlink:href="#b" transform="matrix(.9 0 0 .9 127.82 401.93)"/><use xlink:href="#b" transform="matrix(.9 0 0 .9 136.91 401.93)"/><use xlink:href="#b" transform="matrix(.9 0 0 .9 141.38 401.93)"/><use xlink:href="#b" transform="matrix(.9 0 0 .9 142.82 395.69)"/><use xlink:href="#b" transform="matrix(.9 0 0 .9 142.83 401.93)"/><use xlink:href="#b" transform="matrix(.9 0 0 .9 144.33 393.7)"/><use xlink:href="#b" transform="matrix(.9 0 0 .9 144.38 399.86)"/><use xlink:href="#b" transform="matrix(.9 0 0 .9 144.31 385.56)"/><use xlink:href="#b" transform="matrix(.9 0 0 .9 144.34 393.7)"/><use xlink:href="#b" transform="matrix(.9 0 0 .9 145.79 363.29)"/><use xlink:href="#b" transform="matrix(.9 0 0 .9 145.8 370.82)"/><use xlink:href="#b" transform="matrix(.9 0 0 .9 145.84 364.45)"/><use xlink:href="#b" transform="matrix(.9 0 0 .9 145.8 383.58)"/><use xlink:href="#b" transform="matrix(.9 0 0 .9 146.81 359.21)"/><use xlink:href="#b" transform="matrix(.9 0 0 .9 146.77 346.96)"/><use xlink:href="#b" transform="matrix(.9 0 0 .9 146.93 368.42)"/><use xlink:href="#b" transform="matrix(.9 0 0 .9 146.89 340.84)"/><use xlink:href="#b" transform="matrix(.9 0 0 .9 148.33 325.23)"/><use xlink:href="#b" transform="matrix(.9 0 0 .9 148.39 328.17)"/><use xlink:href="#b" transform="matrix(.9 0 0 .9 148.31 350.65)"/><use xlink:href="#b" transform="matrix(.9 0 0 .9 148.3 319.51)"/><use xlink:href="#b" transform="matrix(.9 0 0 .9 149.87 314.29)"/><use xlink:href="#b" transform="matrix(.9 0 0 .9 149.8 316.81)"/><use xlink:href="#b" transform="matrix(.9 0 0 .9 149.88 335.26)"/><use xlink:href="#b" transform="matrix(.9 0 0 .9 149.83 327.17)"/><use xlink:href="#b" transform="matrix(.9 0 0 .9 151.24 287.02)"/><use xlink:href="#b" transform="matrix(.9 0 0 .9 151.33 280.58)"/><use xlink:href="#b" transform="matrix(.9 0 0 .9 151.3 288.91)"/><use xlink:href="#b" transform="matrix(.9 0 0 .9 151.29 297.66)"/><use xlink:href="#b" transform="matrix(.9 0 0 .9 152.82 276.44)"/><use xlink:href="#b" transform="matrix(.9 0 0 .9 152.82 272.48)"/><use xlink:href="#b" transform="matrix(.9 0 0 .9 152.8 271.24)"/><use xlink:href="#b" transform="matrix(.9 0 0 .9 152.84 275.46)"/><use xlink:href="#b" transform="matrix(.9 0 0 .9 154.35 248.08)"/><use xlink:href="#b" transform="matrix(.9 0 0 .9 154.29 263.08)"/><use xlink:href="#b" transform="matrix(.9 0 0 .9 154.26 247.96)"/><use xlink:href="#b" transform="matrix(.9 0 0 .9 155.79 229.91)"/><use xlink:href="#b" transform="matrix(.9 0 0 .9 155.79 227.94)"/><use xlink:href="#b" transform="matrix(.9 0 0 .9 155.82 233.82)"/><use xlink:href="#b" transform="matrix(.9 0 0 .9 155.85 236.26)"/><use xlink:href="#b" transform="matrix(.9 0 0 .9 156.97 206.68)"/><use xlink:href="#b" transform="matrix(.9 0 0 .9 157.06 200.12)"/><use xlink:href="#b" transform="matrix(.9 0 0 .9 157.04 209.1)"/><use xlink:href="#b" transform="matrix(.9 0 0 .9 156.99 209.23)"/><use xlink:href="#b" transform="matrix(.9 0 0 .9 158.53 184.56)"/><use xlink:href="#b" transform="matrix(.9 0 0 .9 158.57 185.08)"/><use xlink:href="#b" transform="matrix(.9 0 0 .9 158.54 188.5)"/><use xlink:href="#b" transform="matrix(.9 0 0 .9 158.47 184.39)"/><use xlink:href="#b" transform="matrix(.9 0 0 .9 160.07 163.2)"/><use xlink:href="#b" transform="matrix(.9 0 0 .9 159.99 165.47)"/><use xlink:href="#b" transform="matrix(.9 0 0 .9 160 168.2)"/><use xlink:href="#b" transform="matrix(.9 0 0 .9 159.95 161.44)"/><use xlink:href="#b" transform="matrix(.9 0 0 .9 161.45 162.9)"/><use xlink:href="#b" transform="matrix(.9 0 0 .9 161.48 169.33)"/><use xlink:href="#b" transform="matrix(.9 0 0 .9 161.51 164.5)"/><use xlink:href="#b" transform="matrix(.9 0 0 .9 161.57 140.3)"/><use xlink:href="#b" transform="matrix(.9 0 0 .9 162.95 139.42)"/><use xlink:href="#b" transform="matrix(.9 0 0 .9 162.98 112.32)"/><use xlink:href="#b" transform="matrix(.9 0 0 .9 163.02 113.15)"/><use xlink:href="#b" transform="matrix(.9 0 0 .9 163.01 124.71)"/><use xlink:href="#b" transform="matrix(.9 0 0 .9 164.44 119.9)"/><use xlink:href="#b" transform="matrix(.9 0 0 .9 164.52 100.52)"/><use xlink:href="#b" transform="matrix(.9 0 0 .9 164.43 113.54)"/><use xlink:href="#b" transform="matrix(.9 0 0 .9 165.95 90.36)"/><use xlink:href="#b" transform="matrix(.9 0 0 .9 165.89 97.76)"/><use xlink:href="#b" transform="matrix(.9 0 0 .9 166.05 81.54)"/><use xlink:href="#b" transform="matrix(.9 0 0 .9 165.97 120.25)"/><use xlink:href="#b" transform="matrix(.9 0 0 .9 167.23 74.48)"/><use xlink:href="#b" transform="matrix(.9 0 0 .9 167.25 77.85)"/><use xlink:href="#b" transform="matrix(.9 0 0 .9 167.19 74.48)"/><use xlink:href="#b" transform="matrix(.9 0 0 .9 171.75 74.48)"/><use xlink:href="#b" transform="matrix(.9 0 0 .9 176.23 74.48)"/><use xlink:href="#b" transform="matrix(.9 0 0 .9 181.95 74.48)"/><use xlink:href="#b" transform="matrix(.9 0 0 .9 186.43 74.48)"/><use xlink:href="#b" transform="matrix(.9 0 0 .9 192.32 74.48)"/><use xlink:href="#b" transform="matrix(.9 0 0 .9 196.84 74.48)"/><use xlink:href="#b" transform="matrix(.9 0 0 .9 202.78 74.48)"/><use xlink:href="#b" transform="matrix(.9 0 0 .9 208.63 74.48)"/><use xlink:href="#b" transform="matrix(.9 0 0 .9 214.51 74.48)"/><use xlink:href="#b" transform="matrix(.9 0 0 .9 219.03 74.48)"/><use xlink:href="#b" transform="matrix(.9 0 0 .9 224.71 74.48)"/><use xlink:href="#b" transform="matrix(.9 0 0 .9 229.28 74.48)"/><use xlink:href="#b" transform="matrix(.9 0 0 .9 235.07 74.48)"/><use xlink:href="#b" transform="matrix(.9 0 0 .9 239.63 74.48)"/><use xlink:href="#b" transform="matrix(.9 0 0 .9 244.12 74.48)"/><use xlink:href="#b" transform="matrix(.9 0 0 .9 249.94 74.48)"/><use xlink:href="#b" transform="matrix(.9 0 0 .9 254.46 74.48)"/><use xlink:href="#b" transform="matrix(.9 0 0 .9 259.01 74.48)"/><use xlink:href="#b" transform="matrix(.9 0 0 .9 264.84 74.48)"/><use xlink:href="#b" transform="matrix(.9 0 0 .9 269.3 74.48)"/><use xlink:href="#b" transform="matrix(.9 0 0 .9 273.8 74.48)"/><use xlink:href="#b" transform="matrix(.9 0 0 .9 279.46 74.48)"/><use xlink:href="#b" transform="matrix(.9 0 0 .9 283.96 74.48)"/><use xlink:href="#b" transform="matrix(.9 0 0 .9 288.58 74.48)"/><use xlink:href="#b" transform="matrix(.9 0 0 .9 294.37 74.48)"/><use xlink:href="#b" transform="matrix(.9 0 0 .9 300.23 74.48)"/><use xlink:href="#b" transform="matrix(.9 0 0 .9 304.83 74.48)"/><use xlink:href="#b" transform="matrix(.9 0 0 .9 310.78 74.48)"/><use xlink:href="#b" transform="matrix(.9 0 0 .9 315.25 74.48)"/><use xlink:href="#b" transform="matrix(.9 0 0 .9 321.2 74.48)"/><use xlink:href="#b" transform="matrix(.9 0 0 .9 327.06 74.48)"/><use xlink:href="#b" transform="matrix(.9 0 0 .9 331.57 74.48)"/><use xlink:href="#b" transform="matrix(.9 0 0 .9 337.39 74.48)"/><use xlink:href="#b" transform="matrix(.9 0 0 .9 341.89 74.48)"/><use xlink:href="#b" transform="matrix(.9 0 0 .9 347.94 74.48)"/><use xlink:href="#b" transform="matrix(.9 0 0 .9 353.73 74.48)"/><use xlink:href="#b" transform="matrix(.9 0 0 .9 358.21 74.48)"/><use xlink:href="#b" transform="matrix(.9 0 0 .9 362.78 74.48)"/><use xlink:href="#b" transform="matrix(.9 0 0 .9 368.54 74.48)"/><use xlink:href="#b" transform="matrix(.9 0 0 .9 374.41 74.48)"/><use xlink:href="#b" transform="matrix(.9 0 0 .9 379.03 74.48)"/><use xlink:href="#b" transform="matrix(.9 0 0 .9 384.89 74.48)"/><use xlink:href="#b" transform="matrix(.9 0 0 .9 389.49 74.48)"/><use xlink:href="#b" transform="matrix(.9 0 0 .9 395.32 74.48)"/><use xlink:href="#b" transform="matrix(.9 0 0 .9 399.85 74.48)"/><use xlink:href="#b" transform="matrix(.9 0 0 .9 404.36 74.48)"/><use xlink:href="#b" transform="matrix(.9 0 0 .9 408.87 74.48)"/><use xlink:href="#b" transform="matrix(.9 0 0 .9 414.74 74.48)"/><use xlink:href="#b" transform="matrix(.9 0 0 .9 420.59 74.48)"/><use xlink:href="#b" transform="matrix(.9 0 0 .9 425.06 74.48)"/><use xlink:href="#b" transform="matrix(.9 0 0 .9 429.57 74.48)"/><use xlink:href="#b" transform="matrix(.9 0 0 .9 435.44 74.48)"/><use xlink:href="#b" transform="matrix(.9 0 0 .9 439.96 74.48)"/><use xlink:href="#b" transform="matrix(.9 0 0 .9 445.87 74.48)"/><use xlink:href="#b" transform="matrix(.9 0 0 .9 450.39 74.48)"/><use xlink:href="#b" transform="matrix(.9 0 0 .9 456.1 74.48)"/><use xlink:href="#b" transform="matrix(.9 0 0 .9 460.81 74.48)"/><use xlink:href="#b" transform="matrix(.9 0 0 .9 465.3 74.48)"/><use xlink:href="#b" transform="matrix(.9 0 0 .9 470.93 74.48)"/><use xlink:href="#b" transform="matrix(.9 0 0 .9 475.6 74.48)"/><use xlink:href="#b" transform="matrix(.9 0 0 .9 480.1 74.48)"/><use xlink:href="#b" transform="matrix(.9 0 0 .9 484.63 74.48)"/><use xlink:href="#b" transform="matrix(.9 0 0 .9 490.47 74.48)"/><use xlink:href="#b" transform="matrix(.9 0 0 .9 494.95 74.48)"/><use xlink:href="#b" transform="matrix(.9 0 0 .9 499.55 74.48)"/><use xlink:href="#b" transform="matrix(.9 0 0 .9 505.17 74.48)"/><use xlink:href="#b" transform="matrix(.9 0 0 .9 509.88 74.48)"/><use xlink:href="#b" transform="matrix(.9 0 0 .9 515.79 74.48)"/><use xlink:href="#b" transform="matrix(.9 0 0 .9 521.57 74.48)"/><use xlink:href="#b" transform="matrix(.9 0 0 .9 526.15 74.48)"/><use xlink:href="#b" transform="matrix(.9 0 0 .9 530.69 74.48)"/><use xlink:href="#b" transform="matrix(.9 0 0 .9 536.38 74.48)"/><use xlink:href="#b" transform="matrix(.9 0 0 .9 541.08 74.48)"/><use xlink:href="#b" transform="matrix(.9 0 0 .9 546.77 74.48)"/><use xlink:href="#b" transform="matrix(.9 0 0 .9 551.33 74.48)"/><use xlink:href="#b" transform="matrix(.9 0 0 .9 555.85 74.48)"/><use xlink:href="#b" transform="matrix(.9 0 0 .9 560.36 74.48)"/><use xlink:href="#b" transform="matrix(.9 0 0 .9 566.11 74.48)"/><use xlink:href="#b" transform="matrix(.9 0 0 .9 536.76 175.21)"/></g><text color="#000" font-family="Arial" font-size="12" text-anchor="end" transform="translate(507.09 197.11)"><tspan>Dot3</tspan></text><g fill="none" stroke="currentColor" color="#1F3956"><use xlink:href="#b" transform="matrix(.9 0 0 .9 122.13 401.93)"/><use xlink:href="#b" transform="matrix(.9 0 0 .9 127.82 401.93)"/><use xlink:href="#b" transform="matrix(.9 0 0 .9 136.91 401.93)"/><use xlink:href="#b" transform="matrix(.9 0 0 .9 141.38 401.93)"/><use xlink:href="#b" transform="matrix(.9 0 0 .9 146.81 401.93)"/><use xlink:href="#b" transform="matrix(.9 0 0 .9 151.33 401.93)"/><use xlink:href="#b" transform="matrix(.9 0 0 .9 155.79 401.93)"/><use xlink:href="#b" transform="matrix(.9 0 0 .9 161.45 401.93)"/><use xlink:href="#b" transform="matrix(.9 0 0 .9 165.95 401.93)"/><use xlink:href="#b" transform="matrix(.9 0 0 .9 165.89 400.92)"/><use xlink:href="#b" transform="matrix(.9 0 0 .9 166.05 382.44)"/><use xlink:href="#b" transform="matrix(.9 0 0 .9 165.97 401.93)"/><use xlink:href="#b" transform="matrix(.9 0 0 .9 167.23 398.93)"/><use xlink:href="#b" transform="matrix(.9 0 0 .9 167.25 380.45)"/><use xlink:href="#b" transform="matrix(.9 0 0 .9 167.19 374.29)"/><use xlink:href="#b" transform="matrix(.9 0 0 .9 167.37 376.85)"/><use xlink:href="#b" transform="matrix(.9 0 0 .9 168.73 356.48)"/><use xlink:href="#b" transform="matrix(.9 0 0 .9 168.74 377.42)"/><use xlink:href="#b" transform="matrix(.9 0 0 .9 168.7 345.71)"/><use xlink:href="#b" transform="matrix(.9 0 0 .9 168.79 339.07)"/><use xlink:href="#b" transform="matrix(.9 0 0 .9 170.23 342.08)"/><use xlink:href="#b" transform="matrix(.9 0 0 .9 170.26 334.55)"/><use xlink:href="#b" transform="matrix(.9 0 0 .9 170.25 354.4)"/><use xlink:href="#b" transform="matrix(.9 0 0 .9 170.22 351.84)"/><use xlink:href="#b" transform="matrix(.9 0 0 .9 171.75 325.67)"/><use xlink:href="#b" transform="matrix(.9 0 0 .9 171.83 335.91)"/><use xlink:href="#b" transform="matrix(.9 0 0 .9 171.77 321.32)"/><use xlink:href="#b" transform="matrix(.9 0 0 .9 171.71 317.25)"/><use xlink:href="#b" transform="matrix(.9 0 0 .9 173.29 304.79)"/><use xlink:href="#b" transform="matrix(.9 0 0 .9 173.27 292.99)"/><use xlink:href="#b" transform="matrix(.9 0 0 .9 173.25 286.55)"/><use xlink:href="#b" transform="matrix(.9 0 0 .9 173.28 292.99)"/><use xlink:href="#b" transform="matrix(.9 0 0 .9 174.76 279.09)"/><use xlink:href="#b" transform="matrix(.9 0 0 .9 174.66 287.77)"/><use xlink:href="#b" transform="matrix(.9 0 0 .9 174.59 291.88)"/><use xlink:href="#b" transform="matrix(.9 0 0 .9 176.17 243.25)"/><use xlink:href="#b" transform="matrix(.9 0 0 .9 176.23 282.85)"/><use xlink:href="#b" transform="matrix(.9 0 0 .9 176.19 255.26)"/><use xlink:href="#b" transform="matrix(.9 0 0 .9 176.17 268.1)"/><use xlink:href="#b" transform="matrix(.9 0 0 .9 177.71 228.34)"/><use xlink:href="#b" transform="matrix(.9 0 0 .9 177.64 229.81)"/><use xlink:href="#b" transform="matrix(.9 0 0 .9 177.68 242.6)"/><use xlink:href="#b" transform="matrix(.9 0 0 .9 177.76 234.9)"/><use xlink:href="#b" transform="matrix(.9 0 0 .9 179.03 228.46)"/><use xlink:href="#b" transform="matrix(.9 0 0 .9 179.09 216.04)"/><use xlink:href="#b" transform="matrix(.9 0 0 .9 179.04 219.84)"/><use xlink:href="#b" transform="matrix(.9 0 0 .9 178.85 230.83)"/><use xlink:href="#b" transform="matrix(.9 0 0 .9 180.49 192.63)"/><use xlink:href="#b" transform="matrix(.9 0 0 .9 180.54 196.87)"/><use xlink:href="#b" transform="matrix(.9 0 0 .9 180.51 190.36)"/><use xlink:href="#b" transform="matrix(.9 0 0 .9 180.51 186.03)"/><use xlink:href="#b" transform="matrix(.9 0 0 .9 181.95 172.3)"/><use xlink:href="#b" transform="matrix(.9 0 0 .9 182.06 184.98)"/><use xlink:href="#b" transform="matrix(.9 0 0 .9 182.01 175.62)"/><use xlink:href="#b" transform="matrix(.9 0 0 .9 182 172.3)"/><use xlink:href="#b" transform="matrix(.9 0 0 .9 183.51 156.04)"/><use xlink:href="#b" transform="matrix(.9 0 0 .9 183.52 166.46)"/><use xlink:href="#b" transform="matrix(.9 0 0 .9 183.53 158.47)"/><use xlink:href="#b" transform="matrix(.9 0 0 .9 183.45 182.3)"/><use xlink:href="#b" transform="matrix(.9 0 0 .9 184.93 146.09)"/><use xlink:href="#b" transform="matrix(.9 0 0 .9 184.97 141.57)"/><use xlink:href="#b" transform="matrix(.9 0 0 .9 184.88 166.08)"/><use xlink:href="#b" transform="matrix(.9 0 0 .9 184.96 131.43)"/><use xlink:href="#b" transform="matrix(.9 0 0 .9 186.43 141.62)"/><use xlink:href="#b" transform="matrix(.9 0 0 .9 186.4 130.04)"/><use xlink:href="#b" transform="matrix(.9 0 0 .9 186.52 121.43)"/><use xlink:href="#b" transform="matrix(.9 0 0 .9 186.4 109.66)"/><use xlink:href="#b" transform="matrix(.9 0 0 .9 187.89 102.25)"/><use xlink:href="#b" transform="matrix(.9 0 0 .9 188.01 79.48)"/><use xlink:href="#b" transform="matrix(.9 0 0 .9 188.01 104.77)"/><use xlink:href="#b" transform="matrix(.9 0 0 .9 187.94 95.59)"/><use xlink:href="#b" transform="matrix(.9 0 0 .9 189.32 74.48)"/><use xlink:href="#b" transform="matrix(.9 0 0 .9 189.26 87.43)"/><use xlink:href="#b" transform="matrix(.9 0 0 .9 189.31 90.81)"/><use xlink:href="#b" transform="matrix(.9 0 0 .9 189.4 74.48)"/><use xlink:href="#b" transform="matrix(.9 0 0 .9 195.27 74.48)"/><use xlink:href="#b" transform="matrix(.9 0 0 .9 199.78 74.48)"/><use xlink:href="#b" transform="matrix(.9 0 0 .9 205.66 74.48)"/><use xlink:href="#b" transform="matrix(.9 0 0 .9 211.48 74.48)"/><use xlink:href="#b" transform="matrix(.9 0 0 .9 216.01 74.48)"/><use xlink:href="#b" transform="matrix(.9 0 0 .9 221.91 74.48)"/><use xlink:href="#b" transform="matrix(.9 0 0 .9 226.38 74.48)"/><use xlink:href="#b" transform="matrix(.9 0 0 .9 232.27 74.48)"/><use xlink:href="#b" transform="matrix(.9 0 0 .9 238.06 74.48)"/><use xlink:href="#b" transform="matrix(.9 0 0 .9 242.57 74.48)"/><use xlink:href="#b" transform="matrix(.9 0 0 .9 248.58 74.48)"/><use xlink:href="#b" transform="matrix(.9 0 0 .9 254.37 74.48)"/><use xlink:href="#b" transform="matrix(.9 0 0 .9 259.01 74.48)"/><use xlink:href="#b" transform="matrix(.9 0 0 .9 264.84 74.48)"/><use xlink:href="#b" transform="matrix(.9 0 0 .9 269.3 74.48)"/><use xlink:href="#b" transform="matrix(.9 0 0 .9 273.8 74.48)"/><use xlink:href="#b" transform="matrix(.9 0 0 .9 279.46 74.48)"/><use xlink:href="#b" transform="matrix(.9 0 0 .9 283.96 74.48)"/><use xlink:href="#b" transform="matrix(.9 0 0 .9 288.58 74.48)"/><use xlink:href="#b" transform="matrix(.9 0 0 .9 294.37 74.48)"/><use xlink:href="#b" transform="matrix(.9 0 0 .9 300.23 74.48)"/><use xlink:href="#b" transform="matrix(.9 0 0 .9 304.83 74.48)"/><use xlink:href="#b" transform="matrix(.9 0 0 .9 310.78 74.48)"/><use xlink:href="#b" transform="matrix(.9 0 0 .9 315.25 74.48)"/><use xlink:href="#b" transform="matrix(.9 0 0 .9 321.2 74.48)"/><use xlink:href="#b" transform="matrix(.9 0 0 .9 327.06 74.48)"/><use xlink:href="#b" transform="matrix(.9 0 0 .9 331.57 74.48)"/><use xlink:href="#b" transform="matrix(.9 0 0 .9 337.39 74.48)"/><use xlink:href="#b" transform="matrix(.9 0 0 .9 341.89 74.48)"/><use xlink:href="#b" transform="matrix(.9 0 0 .9 347.94 74.48)"/><use xlink:href="#b" transform="matrix(.9 0 0 .9 353.73 74.48)"/><use xlink:href="#b" transform="matrix(.9 0 0 .9 358.21 74.48)"/><use xlink:href="#b" transform="matrix(.9 0 0 .9 362.78 74.48)"/><use xlink:href="#b" transform="matrix(.9 0 0 .9 368.54 74.48)"/><use xlink:href="#b" transform="matrix(.9 0 0 .9 374.41 74.48)"/><use xlink:href="#b" transform="matrix(.9 0 0 .9 379.03 74.48)"/><use xlink:href="#b" transform="matrix(.9 0 0 .9 384.89 74.48)"/><use xlink:href="#b" transform="matrix(.9 0 0 .9 389.49 74.48)"/><use xlink:href="#b" transform="matrix(.9 0 0 .9 395.32 74.48)"/><use xlink:href="#b" transform="matrix(.9 0 0 .9 399.85 74.48)"/><use xlink:href="#b" transform="matrix(.9 0 0 .9 404.36 74.48)"/><use xlink:href="#b" transform="matrix(.9 0 0 .9 408.87 74.48)"/><use xlink:href="#b" transform="matrix(.9 0 0 .9 414.74 74.48)"/><use xlink:href="#b" transform="matrix(.9 0 0 .9 420.59 74.48)"/><use xlink:href="#b" transform="matrix(.9 0 0 .9 425.06 74.48)"/><use xlink:href="#b" transform="matrix(.9 0 0 .9 429.57 74.48)"/><use xlink:href="#b" transform="matrix(.9 0 0 .9 435.44 74.48)"/><use xlink:href="#b" transform="matrix(.9 0 0 .9 439.96 74.48)"/><use xlink:href="#b" transform="matrix(.9 0 0 .9 445.87 74.48)"/><use xlink:href="#b" transform="matrix(.9 0 0 .9 450.39 74.48)"/><use xlink:href="#b" transform="matrix(.9 0 0 .9 456.1 74.48)"/><use xlink:href="#b" transform="matrix(.9 0 0 .9 460.81 74.48)"/><use xlink:href="#b" transform="matrix(.9 0 0 .9 465.3 74.48)"/><use xlink:href="#b" transform="matrix(.9 0 0 .9 470.93 74.48)"/><use xlink:href="#b" transform="matrix(.9 0 0 .9 475.6 74.48)"/><use xlink:href="#b" transform="matrix(.9 0 0 .9 480.1 74.48)"/><use xlink:href="#b" transform="matrix(.9 0 0 .9 484.3 80.64)"/><use xlink:href="#b" transform="matrix(.9 0 0 .9 484.63 74.48)"/><use xlink:href="#b" transform="matrix(.9 0 0 .9 490.47 74.48)"/><use xlink:href="#b" transform="matrix(.9 0 0 .9 494.95 74.48)"/><use xlink:href="#b" transform="matrix(.9 0 0 .9 499.55 74.48)"/><use xlink:href="#b" transform="matrix(.9 0 0 .9 505.17 74.48)"/><use xlink:href="#b" transform="matrix(.9 0 0 .9 509.88 74.48)"/><use xlink:href="#b" transform="matrix(.9 0 0 .9 515.79 74.48)"/><use xlink:href="#b" transform="matrix(.9 0 0 .9 521.57 74.48)"/><use xlink:href="#b" transform="matrix(.9 0 0 .9 526.15 74.48)"/><use xlink:href="#b" transform="matrix(.9 0 0 .9 530.69 74.48)"/><use xlink:href="#b" transform="matrix(.9 0 0 .9 536.38 74.48)"/><use xlink:href="#b" transform="matrix(.9 0 0 .9 541.08 74.48)"/><use xlink:href="#b" transform="matrix(.9 0 0 .9 546.77 74.48)"/><use xlink:href="#b" transform="matrix(.9 0 0 .9 551.33 74.48)"/><use xlink:href="#b" transform="matrix(.9 0 0 .9 555.85 74.48)"/><use xlink:href="#b" transform="matrix(.9 0 0 .9 560.36 74.48)"/><use xlink:href="#b" transform="matrix(.9 0 0 .9 566.11 74.48)"/><use xlink:href="#b" transform="matrix(.9 0 0 .9 536.76 193.21)"/></g><text color="#000" font-family="Arial" font-size="12" text-anchor="end" transform="translate(507.09 215.11)"><tspan>Dot4</tspan></text><g fill="none" stroke="currentColor" color="#8D8F12"><use xlink:href="#b" transform="matrix(.9 0 0 .9 122.13 401.93)"/><use xlink:href="#b" transform="matrix(.9 0 0 .9 127.82 401.93)"/><use xlink:href="#b" transform="matrix(.9 0 0 .9 136.91 401.93)"/><use xlink:href="#b" transform="matrix(.9 0 0 .9 141.38 401.93)"/><use xlink:href="#b" transform="matrix(.9 0 0 .9 146.81 401.93)"/><use xlink:href="#b" transform="matrix(.9 0 0 .9 151.33 401.93)"/><use xlink:href="#b" transform="matrix(.9 0 0 .9 155.79 401.93)"/><use xlink:href="#b" transform="matrix(.9 0 0 .9 161.45 401.93)"/><use xlink:href="#b" transform="matrix(.9 0 0 .9 165.95 401.93)"/><use xlink:href="#b" transform="matrix(.9 0 0 .9 171.75 401.93)"/><use xlink:href="#b" transform="matrix(.9 0 0 .9 176.23 401.93)"/><use xlink:href="#b" transform="matrix(.9 0 0 .9 181.95 401.93)"/><use xlink:href="#b" transform="matrix(.9 0 0 .9 186.43 401.93)"/><use xlink:href="#b" transform="matrix(.9 0 0 .9 188.01 389.65)"/><use xlink:href="#b" transform="matrix(.9 0 0 .9 188.01 401.93)"/><use xlink:href="#b" transform="matrix(.9 0 0 .9 189.32 382.69)"/><use xlink:href="#b" transform="matrix(.9 0 0 .9 189.26 399.99)"/><use xlink:href="#b" transform="matrix(.9 0 0 .9 189.31 401.93)"/><use xlink:href="#b" transform="matrix(.9 0 0 .9 189.4 390.22)"/><use xlink:href="#b" transform="matrix(.9 0 0 .9 190.8 388.24)"/><use xlink:href="#b" transform="matrix(.9 0 0 .9 190.87 398.01)"/><use xlink:href="#b" transform="matrix(.9 0 0 .9 190.85 370.94)"/><use xlink:href="#b" transform="matrix(.9 0 0 .9 192.32 352.97)"/><use xlink:href="#b" transform="matrix(.9 0 0 .9 192.21 359.2)"/><use xlink:href="#b" transform="matrix(.9 0 0 .9 192.24 365.5)"/><use xlink:href="#b" transform="matrix(.9 0 0 .9 192.33 396.02)"/><use xlink:href="#b" transform="matrix(.9 0 0 .9 193.81 334.7)"/><use xlink:href="#b" transform="matrix(.9 0 0 .9 193.77 332.65)"/><use xlink:href="#b" transform="matrix(.9 0 0 .9 193.75 339.04)"/><use xlink:href="#b" transform="matrix(.9 0 0 .9 195.27 330.62)"/><use xlink:href="#b" transform="matrix(.9 0 0 .9 195.27 297.22)"/><use xlink:href="#b" transform="matrix(.9 0 0 .9 195.41 330.62)"/><use xlink:href="#b" transform="matrix(.9 0 0 .9 195.36 352.06)"/><use xlink:href="#b" transform="matrix(.9 0 0 .9 196.84 289.7)"/><use xlink:href="#b" transform="matrix(.9 0 0 .9 196.78 298.12)"/><use xlink:href="#b" transform="matrix(.9 0 0 .9 196.8 332.77)"/><use xlink:href="#b" transform="matrix(.9 0 0 .9 196.82 298.12)"/><use xlink:href="#b" transform="matrix(.9 0 0 .9 198.19 271.99)"/><use xlink:href="#b" transform="matrix(.9 0 0 .9 198.3 267.74)"/><use xlink:href="#b" transform="matrix(.9 0 0 .9 198.27 291.28)"/><use xlink:href="#b" transform="matrix(.9 0 0 .9 198.34 279.23)"/><use xlink:href="#b" transform="matrix(.9 0 0 .9 199.62 275.53)"/><use xlink:href="#b" transform="matrix(.9 0 0 .9 199.78 257.96)"/><use xlink:href="#b" transform="matrix(.9 0 0 .9 199.57 250.01)"/><use xlink:href="#b" transform="matrix(.9 0 0 .9 199.59 269.21)"/><use xlink:href="#b" transform="matrix(.9 0 0 .9 201.03 224.42)"/><use xlink:href="#b" transform="matrix(.9 0 0 .9 201.2 234.54)"/><use xlink:href="#b" transform="matrix(.9 0 0 .9 201.11 238.39)"/><use xlink:href="#b" transform="matrix(.9 0 0 .9 201.1 223.48)"/><use xlink:href="#b" transform="matrix(.9 0 0 .9 202.78 197.63)"/><use xlink:href="#b" transform="matrix(.9 0 0 .9 202.52 229.2)"/><use xlink:href="#b" transform="matrix(.9 0 0 .9 202.59 205.4)"/><use xlink:href="#b" transform="matrix(.9 0 0 .9 204.09 195.13)"/><use xlink:href="#b" transform="matrix(.9 0 0 .9 204.15 191.59)"/><use xlink:href="#b" transform="matrix(.9 0 0 .9 204.03 208.47)"/><use xlink:href="#b" transform="matrix(.9 0 0 .9 204.09 229.2)"/><use xlink:href="#b" transform="matrix(.9 0 0 .9 205.66 195.53)"/><use xlink:href="#b" transform="matrix(.9 0 0 .9 205.7 175.78)"/><use xlink:href="#b" transform="matrix(.9 0 0 .9 205.66 160.73)"/><use xlink:href="#b" transform="matrix(.9 0 0 .9 205.63 164.81)"/><use xlink:href="#b" transform="matrix(.9 0 0 .9 207.09 162.9)"/><use xlink:href="#b" transform="matrix(.9 0 0 .9 207.18 156.21)"/><use xlink:href="#b" transform="matrix(.9 0 0 .9 206.95 170.74)"/><use xlink:href="#b" transform="matrix(.9 0 0 .9 207.12 161.69)"/><use xlink:href="#b" transform="matrix(.9 0 0 .9 208.63 130.14)"/><use xlink:href="#b" transform="matrix(.9 0 0 .9 208.63 134.21)"/><use xlink:href="#b" transform="matrix(.9 0 0 .9 208.59 129.88)"/><use xlink:href="#b" transform="matrix(.9 0 0 .9 208.52 132.17)"/><use xlink:href="#b" transform="matrix(.9 0 0 .9 209.96 100.4)"/><use xlink:href="#b" transform="matrix(.9 0 0 .9 209.99 121.85)"/><use xlink:href="#b" transform="matrix(.9 0 0 .9 210.01 121.01)"/><use xlink:href="#b" transform="matrix(.9 0 0 .9 209.98 134.21)"/><use xlink:href="#b" transform="matrix(.9 0 0 .9 211.48 99.8)"/><use xlink:href="#b" transform="matrix(.9 0 0 .9 211.45 98.56)"/><use xlink:href="#b" transform="matrix(.9 0 0 .9 211.3 99.8)"/><use xlink:href="#b" transform="matrix(.9 0 0 .9 211.52 92.69)"/><use xlink:href="#b" transform="matrix(.9 0 0 .9 212.99 74.48)"/><use xlink:href="#b" transform="matrix(.9 0 0 .9 212.95 87.85)"/><use xlink:href="#b" transform="matrix(.9 0 0 .9 212.98 79.7)"/><use xlink:href="#b" transform="matrix(.9 0 0 .9 214.51 74.48)"/><use xlink:href="#b" transform="matrix(.9 0 0 .9 219.03 74.48)"/><use xlink:href="#b" transform="matrix(.9 0 0 .9 224.71 74.48)"/><use xlink:href="#b" transform="matrix(.9 0 0 .9 229.28 74.48)"/><use xlink:href="#b" transform="matrix(.9 0 0 .9 235.07 74.48)"/><use xlink:href="#b" transform="matrix(.9 0 0 .9 239.63 74.48)"/><use xlink:href="#b" transform="matrix(.9 0 0 .9 244.12 74.48)"/><use xlink:href="#b" transform="matrix(.9 0 0 .9 248.44 80.64)"/><use xlink:href="#b" transform="matrix(.9 0 0 .9 248.31 74.48)"/><use xlink:href="#b" transform="matrix(.9 0 0 .9 252.91 74.48)"/><use xlink:href="#b" transform="matrix(.9 0 0 .9 255.79 80.64)"/><use xlink:href="#b" transform="matrix(.9 0 0 .9 255.72 74.48)"/><use xlink:href="#b" transform="matrix(.9 0 0 .9 260.42 74.48)"/><use xlink:href="#b" transform="matrix(.9 0 0 .9 266.38 74.48)"/><use xlink:href="#b" transform="matrix(.9 0 0 .9 272.12 74.48)"/><use xlink:href="#b" transform="matrix(.9 0 0 .9 276.7 74.48)"/><use xlink:href="#b" transform="matrix(.9 0 0 .9 282.53 74.48)"/><use xlink:href="#b" transform="matrix(.9 0 0 .9 287.14 74.48)"/><use xlink:href="#b" transform="matrix(.9 0 0 .9 293.01 74.48)"/><use xlink:href="#b" transform="matrix(.9 0 0 .9 298.71 74.48)"/><use xlink:href="#b" transform="matrix(.9 0 0 .9 303.27 74.48)"/><use xlink:href="#b" transform="matrix(.9 0 0 .9 307.81 74.48)"/><use xlink:href="#b" transform="matrix(.9 0 0 .9 313.68 74.48)"/><use xlink:href="#b" transform="matrix(.9 0 0 .9 318.17 74.48)"/><use xlink:href="#b" transform="matrix(.9 0 0 .9 322.64 74.48)"/><use xlink:href="#b" transform="matrix(.9 0 0 .9 328.53 74.48)"/><use xlink:href="#b" transform="matrix(.9 0 0 .9 333.07 74.48)"/><use xlink:href="#b" transform="matrix(.9 0 0 .9 339.02 74.48)"/><use xlink:href="#b" transform="matrix(.9 0 0 .9 344.89 74.48)"/><use xlink:href="#b" transform="matrix(.9 0 0 .9 349.41 74.48)"/><use xlink:href="#b" transform="matrix(.9 0 0 .9 355.12 74.48)"/><use xlink:href="#b" transform="matrix(.9 0 0 .9 359.71 74.48)"/><use xlink:href="#b" transform="matrix(.9 0 0 .9 364.18 74.48)"/><use xlink:href="#b" transform="matrix(.9 0 0 .9 368.65 74.48)"/><use xlink:href="#b" transform="matrix(.9 0 0 .9 374.41 74.48)"/><use xlink:href="#b" transform="matrix(.9 0 0 .9 379.03 74.48)"/><use xlink:href="#b" transform="matrix(.9 0 0 .9 384.89 74.48)"/><use xlink:href="#b" transform="matrix(.9 0 0 .9 389.49 74.48)"/><use xlink:href="#b" transform="matrix(.9 0 0 .9 395.32 74.48)"/><use xlink:href="#b" transform="matrix(.9 0 0 .9 399.85 74.48)"/><use xlink:href="#b" transform="matrix(.9 0 0 .9 404.36 74.48)"/><use xlink:href="#b" transform="matrix(.9 0 0 .9 408.87 74.48)"/><use xlink:href="#b" transform="matrix(.9 0 0 .9 414.74 74.48)"/><use xlink:href="#b" transform="matrix(.9 0 0 .9 420.59 74.48)"/><use xlink:href="#b" transform="matrix(.9 0 0 .9 425.06 74.48)"/><use xlink:href="#b" transform="matrix(.9 0 0 .9 429.57 74.48)"/><use xlink:href="#b" transform="matrix(.9 0 0 .9 435.44 74.48)"/><use xlink:href="#b" transform="matrix(.9 0 0 .9 439.96 74.48)"/><use xlink:href="#b" transform="matrix(.9 0 0 .9 445.87 74.48)"/><use xlink:href="#b" transform="matrix(.9 0 0 .9 450.39 74.48)"/><use xlink:href="#b" transform="matrix(.9 0 0 .9 456.1 80.64)"/><use xlink:href="#b" transform="matrix(.9 0 0 .9 456.29 74.48)"/><use xlink:href="#b" transform="matrix(.9 0 0 .9 460.81 74.48)"/><use xlink:href="#b" transform="matrix(.9 0 0 .9 465.3 74.48)"/><use xlink:href="#b" transform="matrix(.9 0 0 .9 470.93 74.48)"/><use xlink:href="#b" transform="matrix(.9 0 0 .9 475.6 74.48)"/><use xlink:href="#b" transform="matrix(.9 0 0 .9 480.1 74.48)"/><use xlink:href="#b" transform="matrix(.9 0 0 .9 484.63 74.48)"/><use xlink:href="#b" transform="matrix(.9 0 0 .9 490.47 74.48)"/><use xlink:href="#b" transform="matrix(.9 0 0 .9 494.95 74.48)"/><use xlink:href="#b" transform="matrix(.9 0 0 .9 499.55 74.48)"/><use xlink:href="#b" transform="matrix(.9 0 0 .9 505.17 74.48)"/><use xlink:href="#b" transform="matrix(.9 0 0 .9 509.88 74.48)"/><use xlink:href="#b" transform="matrix(.9 0 0 .9 515.79 74.48)"/><use xlink:href="#b" transform="matrix(.9 0 0 .9 521.57 74.48)"/><use xlink:href="#b" transform="matrix(.9 0 0 .9 526.15 74.48)"/><use xlink:href="#b" transform="matrix(.9 0 0 .9 530.69 74.48)"/><use xlink:href="#b" transform="matrix(.9 0 0 .9 531.86 80.64)"/><use xlink:href="#b" transform="matrix(.9 0 0 .9 532.06 74.48)"/><use xlink:href="#b" transform="matrix(.9 0 0 .9 536.54 74.48)"/><use xlink:href="#b" transform="matrix(.9 0 0 .9 541.08 74.48)"/><use xlink:href="#b" transform="matrix(.9 0 0 .9 546.77 74.48)"/><use xlink:href="#b" transform="matrix(.9 0 0 .9 551.33 74.48)"/><use xlink:href="#b" transform="matrix(.9 0 0 .9 555.85 74.48)"/><use xlink:href="#b" transform="matrix(.9 0 0 .9 560.36 74.48)"/><use xlink:href="#b" transform="matrix(.9 0 0 .9 566.11 74.48)"/><use xlink:href="#b" transform="matrix(.9 0 0 .9 536.76 211.21)"/></g><text color="#000" font-family="Arial" font-size="12" text-anchor="end" transform="translate(507.09 233.11)"><tspan>Dot5</tspan></text><g fill="none" stroke="currentColor" color="#B53601"><use xlink:href="#b" transform="matrix(.9 0 0 .9 122.13 401.93)"/><use xlink:href="#b" transform="matrix(.9 0 0 .9 127.82 401.93)"/><use xlink:href="#b" transform="matrix(.9 0 0 .9 136.91 401.93)"/><use xlink:href="#b" transform="matrix(.9 0 0 .9 141.38 401.93)"/><use xlink:href="#b" transform="matrix(.9 0 0 .9 146.81 401.93)"/><use xlink:href="#b" transform="matrix(.9 0 0 .9 151.33 401.93)"/><use xlink:href="#b" transform="matrix(.9 0 0 .9 155.79 401.93)"/><use xlink:href="#b" transform="matrix(.9 0 0 .9 161.45 401.93)"/><use xlink:href="#b" transform="matrix(.9 0 0 .9 165.95 401.93)"/><use xlink:href="#b" transform="matrix(.9 0 0 .9 171.75 401.93)"/><use xlink:href="#b" transform="matrix(.9 0 0 .9 176.23 401.93)"/><use xlink:href="#b" transform="matrix(.9 0 0 .9 181.95 401.93)"/><use xlink:href="#b" transform="matrix(.9 0 0 .9 186.43 401.93)"/><use xlink:href="#b" transform="matrix(.9 0 0 .9 192.32 401.93)"/><use xlink:href="#b" transform="matrix(.9 0 0 .9 196.84 401.93)"/><use xlink:href="#b" transform="matrix(.9 0 0 .9 202.78 401.93)"/><use xlink:href="#b" transform="matrix(.9 0 0 .9 208.63 401.93)"/><use xlink:href="#b" transform="matrix(.9 0 0 .9 212.99 384.75)"/><use xlink:href="#b" transform="matrix(.9 0 0 .9 212.95 399.06)"/><use xlink:href="#b" transform="matrix(.9 0 0 .9 212.97 392.9)"/><use xlink:href="#b" transform="matrix(.9 0 0 .9 214.51 381.15)"/><use xlink:href="#b" transform="matrix(.9 0 0 .9 214.41 358.35)"/><use xlink:href="#b" transform="matrix(.9 0 0 .9 214.47 376.61)"/><use xlink:href="#b" transform="matrix(.9 0 0 .9 215.91 366.85)"/><use xlink:href="#b" transform="matrix(.9 0 0 .9 216.01 338.23)"/><use xlink:href="#b" transform="matrix(.9 0 0 .9 215.85 353.81)"/><use xlink:href="#b" transform="matrix(.9 0 0 .9 215.97 376.61)"/><use xlink:href="#b" transform="matrix(.9 0 0 .9 217.38 349.58)"/><use xlink:href="#b" transform="matrix(.9 0 0 .9 217.57 335.76)"/><use xlink:href="#b" transform="matrix(.9 0 0 .9 217.4 319.47)"/><use xlink:href="#b" transform="matrix(.9 0 0 .9 219.03 302.5)"/><use xlink:href="#b" transform="matrix(.9 0 0 .9 218.83 319.47)"/><use xlink:href="#b" transform="matrix(.9 0 0 .9 218.92 334.87)"/><use xlink:href="#b" transform="matrix(.9 0 0 .9 218.99 323.79)"/><use xlink:href="#b" transform="matrix(.9 0 0 .9 220.43 273.71)"/><use xlink:href="#b" transform="matrix(.9 0 0 .9 220.31 306.78)"/><use xlink:href="#b" transform="matrix(.9 0 0 .9 220.24 294.24)"/><use xlink:href="#b" transform="matrix(.9 0 0 .9 220.32 322.94)"/><use xlink:href="#b" transform="matrix(.9 0 0 .9 221.91 304.28)"/><use xlink:href="#b" transform="matrix(.9 0 0 .9 221.72 286.06)"/><use xlink:href="#b" transform="matrix(.9 0 0 .9 221.8 271.72)"/><use xlink:href="#b" transform="matrix(.9 0 0 .9 221.85 264.71)"/><use xlink:href="#b" transform="matrix(.9 0 0 .9 223.35 220.98)"/><use xlink:href="#b" transform="matrix(.9 0 0 .9 223.35 258.55)"/><use xlink:href="#b" transform="matrix(.9 0 0 .9 223.22 238.85)"/><use xlink:href="#b" transform="matrix(.9 0 0 .9 223.29 251.44)"/><use xlink:href="#b" transform="matrix(.9 0 0 .9 224.71 223.91)"/><use xlink:href="#b" transform="matrix(.9 0 0 .9 224.87 248.52)"/><use xlink:href="#b" transform="matrix(.9 0 0 .9 224.87 222.52)"/><use xlink:href="#b" transform="matrix(.9 0 0 .9 224.72 237.62)"/><use xlink:href="#b" transform="matrix(.9 0 0 .9 226.28 222.52)"/><use xlink:href="#b" transform="matrix(.9 0 0 .9 226.38 230.48)"/><use xlink:href="#b" transform="matrix(.9 0 0 .9 226.35 203.93)"/><use xlink:href="#b" transform="matrix(.9 0 0 .9 226.31 222.52)"/><use xlink:href="#b" transform="matrix(.9 0 0 .9 227.88 209.05)"/><use xlink:href="#b" transform="matrix(.9 0 0 .9 227.71 191.14)"/><use xlink:href="#b" transform="matrix(.9 0 0 .9 227.73 188.5)"/><use xlink:href="#b" transform="matrix(.9 0 0 .9 227.82 199.59)"/><use xlink:href="#b" transform="matrix(.9 0 0 .9 229.28 173.45)"/><use xlink:href="#b" transform="matrix(.9 0 0 .9 229.2 161.74)"/><use xlink:href="#b" transform="matrix(.9 0 0 .9 229.22 176.27)"/><use xlink:href="#b" transform="matrix(.9 0 0 .9 229.23 172.35)"/><use xlink:href="#b" transform="matrix(.9 0 0 .9 230.78 137.36)"/><use xlink:href="#b" transform="matrix(.9 0 0 .9 230.82 159.53)"/><use xlink:href="#b" transform="matrix(.9 0 0 .9 230.6 153.42)"/><use xlink:href="#b" transform="matrix(.9 0 0 .9 230.75 165.59)"/><use xlink:href="#b" transform="matrix(.9 0 0 .9 232.27 143.72)"/><use xlink:href="#b" transform="matrix(.9 0 0 .9 232.19 136.16)"/><use xlink:href="#b" transform="matrix(.9 0 0 .9 232.17 120.04)"/><use xlink:href="#b" transform="matrix(.9 0 0 .9 232.19 117.53)"/><use xlink:href="#b" transform="matrix(.9 0 0 .9 233.61 116.78)"/><use xlink:href="#b" transform="matrix(.9 0 0 .9 233.72 101.08)"/><use xlink:href="#b" transform="matrix(.9 0 0 .9 233.75 96.08)"/><use xlink:href="#b" transform="matrix(.9 0 0 .9 233.71 104.86)"/><use xlink:href="#b" transform="matrix(.9 0 0 .9 235.07 84.81)"/><use xlink:href="#b" transform="matrix(.9 0 0 .9 235.11 87.03)"/><use xlink:href="#b" transform="matrix(.9 0 0 .9 235.12 74.48)"/><use xlink:href="#b" transform="matrix(.9 0 0 .9 235.17 92.01)"/><use xlink:href="#b" transform="matrix(.9 0 0 .9 236.59 74.48)"/><use xlink:href="#b" transform="matrix(.9 0 0 .9 236.65 83.03)"/><use xlink:href="#b" transform="matrix(.9 0 0 .9 236.66 74.48)"/><use xlink:href="#b" transform="matrix(.9 0 0 .9 241.17 74.48)"/><use xlink:href="#b" transform="matrix(.9 0 0 .9 245.64 74.48)"/><use xlink:href="#b" transform="matrix(.9 0 0 .9 251.33 74.48)"/><use xlink:href="#b" transform="matrix(.9 0 0 .9 255.84 74.48)"/><use xlink:href="#b" transform="matrix(.9 0 0 .9 255.72 80.64)"/><use xlink:href="#b" transform="matrix(.9 0 0 .9 257.35 74.48)"/><use xlink:href="#b" transform="matrix(.9 0 0 .9 261.89 74.48)"/><use xlink:href="#b" transform="matrix(.9 0 0 .9 266.38 74.48)"/><use xlink:href="#b" transform="matrix(.9 0 0 .9 272.12 74.48)"/><use xlink:href="#b" transform="matrix(.9 0 0 .9 276.7 74.48)"/><use xlink:href="#b" transform="matrix(.9 0 0 .9 282.53 74.48)"/><use xlink:href="#b" transform="matrix(.9 0 0 .9 287.14 74.48)"/><use xlink:href="#b" transform="matrix(.9 0 0 .9 293.01 74.48)"/><use xlink:href="#b" transform="matrix(.9 0 0 .9 298.71 74.48)"/><use xlink:href="#b" transform="matrix(.9 0 0 .9 303.27 74.48)"/><use xlink:href="#b" transform="matrix(.9 0 0 .9 307.81 74.48)"/><use xlink:href="#b" transform="matrix(.9 0 0 .9 313.68 74.48)"/><use xlink:href="#b" transform="matrix(.9 0 0 .9 318.17 74.48)"/><use xlink:href="#b" transform="matrix(.9 0 0 .9 322.64 74.48)"/><use xlink:href="#b" transform="matrix(.9 0 0 .9 328.53 74.48)"/><use xlink:href="#b" transform="matrix(.9 0 0 .9 333.07 74.48)"/><use xlink:href="#b" transform="matrix(.9 0 0 .9 339.02 74.48)"/><use xlink:href="#b" transform="matrix(.9 0 0 .9 344.89 74.48)"/><use xlink:href="#b" transform="matrix(.9 0 0 .9 349.41 74.48)"/><use xlink:href="#b" transform="matrix(.9 0 0 .9 355.12 74.48)"/><use xlink:href="#b" transform="matrix(.9 0 0 .9 359.71 74.48)"/><use xlink:href="#b" transform="matrix(.9 0 0 .9 364.18 74.48)"/><use xlink:href="#b" transform="matrix(.9 0 0 .9 368.65 74.48)"/><use xlink:href="#b" transform="matrix(.9 0 0 .9 374.41 74.48)"/><use xlink:href="#b" transform="matrix(.9 0 0 .9 379.03 74.48)"/><use xlink:href="#b" transform="matrix(.9 0 0 .9 384.89 74.48)"/><use xlink:href="#b" transform="matrix(.9 0 0 .9 389.49 74.48)"/><use xlink:href="#b" transform="matrix(.9 0 0 .9 395.32 74.48)"/><use xlink:href="#b" transform="matrix(.9 0 0 .9 399.85 74.48)"/><use xlink:href="#b" transform="matrix(.9 0 0 .9 404.36 74.48)"/><use xlink:href="#b" transform="matrix(.9 0 0 .9 407.17 80.64)"/><use xlink:href="#b" transform="matrix(.9 0 0 .9 407.36 74.48)"/><use xlink:href="#b" transform="matrix(.9 0 0 .9 413.21 74.48)"/><use xlink:href="#b" transform="matrix(.9 0 0 .9 417.68 74.48)"/><use xlink:href="#b" transform="matrix(.9 0 0 .9 422.19 74.48)"/><use xlink:href="#b" transform="matrix(.9 0 0 .9 427.86 74.48)"/><use xlink:href="#b" transform="matrix(.9 0 0 .9 432.39 74.48)"/><use xlink:href="#b" transform="matrix(.9 0 0 .9 436.86 74.48)"/><use xlink:href="#b" transform="matrix(.9 0 0 .9 441.53 74.48)"/><use xlink:href="#b" transform="matrix(.9 0 0 .9 447.41 74.48)"/><use xlink:href="#b" transform="matrix(.9 0 0 .9 451.95 74.48)"/><use xlink:href="#b" transform="matrix(.9 0 0 .9 457.63 74.48)"/><use xlink:href="#b" transform="matrix(.9 0 0 .9 462.21 74.48)"/><use xlink:href="#b" transform="matrix(.9 0 0 .9 466.76 74.48)"/><use xlink:href="#b" transform="matrix(.9 0 0 .9 472.41 74.48)"/><use xlink:href="#b" transform="matrix(.9 0 0 .9 477.29 74.48)"/><use xlink:href="#b" transform="matrix(.9 0 0 .9 483.06 74.48)"/><use xlink:href="#b" transform="matrix(.9 0 0 .9 489.04 74.48)"/><use xlink:href="#b" transform="matrix(.9 0 0 .9 494.78 74.48)"/><use xlink:href="#b" transform="matrix(.9 0 0 .9 499.55 74.48)"/><use xlink:href="#b" transform="matrix(.9 0 0 .9 505.17 74.48)"/><use xlink:href="#b" transform="matrix(.9 0 0 .9 509.88 74.48)"/><use xlink:href="#b" transform="matrix(.9 0 0 .9 515.79 74.48)"/><use xlink:href="#b" transform="matrix(.9 0 0 .9 521.57 74.48)"/><use xlink:href="#b" transform="matrix(.9 0 0 .9 526.15 74.48)"/><use xlink:href="#b" transform="matrix(.9 0 0 .9 530.69 74.48)"/><use xlink:href="#b" transform="matrix(.9 0 0 .9 536.38 74.48)"/><use xlink:href="#b" transform="matrix(.9 0 0 .9 541.08 74.48)"/><use xlink:href="#b" transform="matrix(.9 0 0 .9 546.77 74.48)"/><use xlink:href="#b" transform="matrix(.9 0 0 .9 551.33 74.48)"/><use xlink:href="#b" transform="matrix(.9 0 0 .9 555.85 74.48)"/><use xlink:href="#b" transform="matrix(.9 0 0 .9 560.36 74.48)"/><use xlink:href="#b" transform="matrix(.9 0 0 .9 566.11 74.48)"/><use xlink:href="#b" transform="matrix(.9 0 0 .9 536.76 229.21)"/></g><text color="#000" font-family="Arial" font-size="12" text-anchor="end" transform="translate(507.09 251.11)"><tspan>Dot6</tspan></text><g fill="none" stroke="currentColor" color="#A13BE3"><use xlink:href="#b" transform="matrix(.9 0 0 .9 122.13 401.93)"/><use xlink:href="#b" transform="matrix(.9 0 0 .9 127.82 401.93)"/><use xlink:href="#b" transform="matrix(.9 0 0 .9 136.91 401.93)"/><use xlink:href="#b" transform="matrix(.9 0 0 .9 141.38 401.93)"/><use xlink:href="#b" transform="matrix(.9 0 0 .9 146.81 401.93)"/><use xlink:href="#b" transform="matrix(.9 0 0 .9 151.33 401.93)"/><use xlink:href="#b" transform="matrix(.9 0 0 .9 155.79 401.93)"/><use xlink:href="#b" transform="matrix(.9 0 0 .9 161.45 401.93)"/><use xlink:href="#b" transform="matrix(.9 0 0 .9 165.95 401.93)"/><use xlink:href="#b" transform="matrix(.9 0 0 .9 171.75 401.93)"/><use xlink:href="#b" transform="matrix(.9 0 0 .9 176.23 401.93)"/><use xlink:href="#b" transform="matrix(.9 0 0 .9 181.95 401.93)"/><use xlink:href="#b" transform="matrix(.9 0 0 .9 186.43 401.93)"/><use xlink:href="#b" transform="matrix(.9 0 0 .9 192.32 401.93)"/><use xlink:href="#b" transform="matrix(.9 0 0 .9 196.84 401.93)"/><use xlink:href="#b" transform="matrix(.9 0 0 .9 202.78 401.93)"/><use xlink:href="#b" transform="matrix(.9 0 0 .9 208.63 401.93)"/><use xlink:href="#b" transform="matrix(.9 0 0 .9 214.51 401.93)"/><use xlink:href="#b" transform="matrix(.9 0 0 .9 219.03 401.93)"/><use xlink:href="#b" transform="matrix(.9 0 0 .9 224.71 401.93)"/><use xlink:href="#b" transform="matrix(.9 0 0 .9 229.28 401.93)"/><use xlink:href="#b" transform="matrix(.9 0 0 .9 235.07 400.11)"/><use xlink:href="#b" transform="matrix(.9 0 0 .9 235.17 401.93)"/><use xlink:href="#b" transform="matrix(.9 0 0 .9 236.59 382.2)"/><use xlink:href="#b" transform="matrix(.9 0 0 .9 236.5 391.97)"/><use xlink:href="#b" transform="matrix(.9 0 0 .9 236.65 388.37)"/><use xlink:href="#b" transform="matrix(.9 0 0 .9 236.66 382.2)"/><use xlink:href="#b" transform="matrix(.9 0 0 .9 238.06 383.83)"/><use xlink:href="#b" transform="matrix(.9 0 0 .9 238.15 369.52)"/><use xlink:href="#b" transform="matrix(.9 0 0 .9 238.09 374.06)"/><use xlink:href="#b" transform="matrix(.9 0 0 .9 238.11 350.82)"/><use xlink:href="#b" transform="matrix(.9 0 0 .9 239.63 364.08)"/><use xlink:href="#b" transform="matrix(.9 0 0 .9 239.55 329.03)"/><use xlink:href="#b" transform="matrix(.9 0 0 .9 239.55 353.37)"/><use xlink:href="#b" transform="matrix(.9 0 0 .9 239.57 364.08)"/><use xlink:href="#b" transform="matrix(.9 0 0 .9 241.17 332.31)"/><use xlink:href="#b" transform="matrix(.9 0 0 .9 241 329.12)"/><use xlink:href="#b" transform="matrix(.9 0 0 .9 241.17 321.35)"/><use xlink:href="#b" transform="matrix(.9 0 0 .9 241.09 332.31)"/><use xlink:href="#b" transform="matrix(.9 0 0 .9 242.4 306.4)"/><use xlink:href="#b" transform="matrix(.9 0 0 .9 242.46 321.82)"/><use xlink:href="#b" transform="matrix(.9 0 0 .9 242.57 316.59)"/><use xlink:href="#b" transform="matrix(.9 0 0 .9 242.62 323.08)"/><use xlink:href="#b" transform="matrix(.9 0 0 .9 244.04 274.73)"/><use xlink:href="#b" transform="matrix(.9 0 0 .9 243.97 276.57)"/><use xlink:href="#b" transform="matrix(.9 0 0 .9 244.12 285.2)"/><use xlink:href="#b" transform="matrix(.9 0 0 .9 244.01 280.98)"/><use xlink:href="#b" transform="matrix(.9 0 0 .9 245.42 286.96)"/><use xlink:href="#b" transform="matrix(.9 0 0 .9 245.64 271.85)"/><use xlink:href="#b" transform="matrix(.9 0 0 .9 245.5 268.05)"/><use xlink:href="#b" transform="matrix(.9 0 0 .9 245.6 289.3)"/><use xlink:href="#b" transform="matrix(.9 0 0 .9 246.94 243.55)"/><use xlink:href="#b" transform="matrix(.9 0 0 .9 246.88 259.82)"/><use xlink:href="#b" transform="matrix(.9 0 0 .9 246.85 246.47)"/><use xlink:href="#b" transform="matrix(.9 0 0 .9 246.92 262.43)"/><use xlink:href="#b" transform="matrix(.9 0 0 .9 248.58 219.67)"/><use xlink:href="#b" transform="matrix(.9 0 0 .9 248.44 229.39)"/><use xlink:href="#b" transform="matrix(.9 0 0 .9 248.31 240.43)"/><use xlink:href="#b" transform="matrix(.9 0 0 .9 248.52 215.11)"/><use xlink:href="#b" transform="matrix(.9 0 0 .9 249.94 203.81)"/><use xlink:href="#b" transform="matrix(.9 0 0 .9 249.91 184.6)"/><use xlink:href="#b" transform="matrix(.9 0 0 .9 250.02 204.55)"/><use xlink:href="#b" transform="matrix(.9 0 0 .9 249.9 208.34)"/><use xlink:href="#b" transform="matrix(.9 0 0 .9 251.33 199.85)"/><use xlink:href="#b" transform="matrix(.9 0 0 .9 251.45 213.86)"/><use xlink:href="#b" transform="matrix(.9 0 0 .9 251.35 182.3)"/><use xlink:href="#b" transform="matrix(.9 0 0 .9 251.39 175)"/><use xlink:href="#b" transform="matrix(.9 0 0 .9 252.91 174.99)"/><use xlink:href="#b" transform="matrix(.9 0 0 .9 252.83 158.43)"/><use xlink:href="#b" transform="matrix(.9 0 0 .9 252.88 171.75)"/><use xlink:href="#b" transform="matrix(.9 0 0 .9 252.91 173.74)"/><use xlink:href="#b" transform="matrix(.9 0 0 .9 254.37 145.13)"/><use xlink:href="#b" transform="matrix(.9 0 0 .9 254.27 149.02)"/><use xlink:href="#b" transform="matrix(.9 0 0 .9 254.46 147.6)"/><use xlink:href="#b" transform="matrix(.9 0 0 .9 254.39 127.1)"/><use xlink:href="#b" transform="matrix(.9 0 0 .9 255.84 119.42)"/><use xlink:href="#b" transform="matrix(.9 0 0 .9 255.75 149.02)"/><use xlink:href="#b" transform="matrix(.9 0 0 .9 255.79 130.84)"/><use xlink:href="#b" transform="matrix(.9 0 0 .9 255.72 137.06)"/><use xlink:href="#b" transform="matrix(.9 0 0 .9 257.35 88.68)"/><use xlink:href="#b" transform="matrix(.9 0 0 .9 257.39 105.16)"/><use xlink:href="#b" transform="matrix(.9 0 0 .9 257.22 94.55)"/><use xlink:href="#b" transform="matrix(.9 0 0 .9 257.35 102.83)"/><use xlink:href="#b" transform="matrix(.9 0 0 .9 259.01 97.63)"/><use xlink:href="#b" transform="matrix(.9 0 0 .9 258.84 100.08)"/><use xlink:href="#b" transform="matrix(.9 0 0 .9 258.76 83.63)"/><use xlink:href="#b" transform="matrix(.9 0 0 .9 258.81 126.6)"/><use xlink:href="#b" transform="matrix(.9 0 0 .9 260.42 74.48)"/><use xlink:href="#b" transform="matrix(.9 0 0 .9 260.12 77.71)"/><use xlink:href="#b" transform="matrix(.9 0 0 .9 261.77 74.48)"/><use xlink:href="#b" transform="matrix(.9 0 0 .9 261.9 75.24)"/><use xlink:href="#b" transform="matrix(.9 0 0 .9 263.04 74.48)"/><use xlink:href="#b" transform="matrix(.9 0 0 .9 267.83 74.48)"/><use xlink:href="#b" transform="matrix(.9 0 0 .9 272.29 74.48)"/><use xlink:href="#b" transform="matrix(.9 0 0 .9 278.1 74.48)"/><use xlink:href="#b" transform="matrix(.9 0 0 .9 282.58 74.48)"/><use xlink:href="#b" transform="matrix(.9 0 0 .9 287.14 74.48)"/><use xlink:href="#b" transform="matrix(.9 0 0 .9 293.01 74.48)"/><use xlink:href="#b" transform="matrix(.9 0 0 .9 298.71 74.48)"/><use xlink:href="#b" transform="matrix(.9 0 0 .9 303.27 74.48)"/><use xlink:href="#b" transform="matrix(.9 0 0 .9 307.81 74.48)"/><use xlink:href="#b" transform="matrix(.9 0 0 .9 310.73 80.64)"/><use xlink:href="#b" transform="matrix(.9 0 0 .9 310.79 74.48)"/><use xlink:href="#b" transform="matrix(.9 0 0 .9 315.25 74.48)"/><use xlink:href="#b" transform="matrix(.9 0 0 .9 321.2 74.48)"/><use xlink:href="#b" transform="matrix(.9 0 0 .9 327.06 74.48)"/><use xlink:href="#b" transform="matrix(.9 0 0 .9 331.57 74.48)"/><use xlink:href="#b" transform="matrix(.9 0 0 .9 337.39 74.48)"/><use xlink:href="#b" transform="matrix(.9 0 0 .9 341.89 74.48)"/><use xlink:href="#b" transform="matrix(.9 0 0 .9 347.94 74.48)"/><use xlink:href="#b" transform="matrix(.9 0 0 .9 353.73 74.48)"/><use xlink:href="#b" transform="matrix(.9 0 0 .9 358.21 74.48)"/><use xlink:href="#b" transform="matrix(.9 0 0 .9 362.78 74.48)"/><use xlink:href="#b" transform="matrix(.9 0 0 .9 368.54 74.48)"/><use xlink:href="#b" transform="matrix(.9 0 0 .9 374.41 74.48)"/><use xlink:href="#b" transform="matrix(.9 0 0 .9 379.03 74.48)"/><use xlink:href="#b" transform="matrix(.9 0 0 .9 384.89 74.48)"/><use xlink:href="#b" transform="matrix(.9 0 0 .9 389.49 74.48)"/><use xlink:href="#b" transform="matrix(.9 0 0 .9 395.32 74.48)"/><use xlink:href="#b" transform="matrix(.9 0 0 .9 399.85 74.48)"/><use xlink:href="#b" transform="matrix(.9 0 0 .9 404.36 74.48)"/><use xlink:href="#b" transform="matrix(.9 0 0 .9 408.87 74.48)"/><use xlink:href="#b" transform="matrix(.9 0 0 .9 414.74 74.48)"/><use xlink:href="#b" transform="matrix(.9 0 0 .9 420.59 74.48)"/><use xlink:href="#b" transform="matrix(.9 0 0 .9 425.06 74.48)"/><use xlink:href="#b" transform="matrix(.9 0 0 .9 429.57 74.48)"/><use xlink:href="#b" transform="matrix(.9 0 0 .9 435.44 74.48)"/><use xlink:href="#b" transform="matrix(.9 0 0 .9 439.96 74.48)"/><use xlink:href="#b" transform="matrix(.9 0 0 .9 445.87 74.48)"/><use xlink:href="#b" transform="matrix(.9 0 0 .9 450.39 74.48)"/><use xlink:href="#b" transform="matrix(.9 0 0 .9 456.1 74.48)"/><use xlink:href="#b" transform="matrix(.9 0 0 .9 460.81 74.48)"/><use xlink:href="#b" transform="matrix(.9 0 0 .9 465.3 74.48)"/><use xlink:href="#b" transform="matrix(.9 0 0 .9 470.93 74.48)"/><use xlink:href="#b" transform="matrix(.9 0 0 .9 475.6 74.48)"/><use xlink:href="#b" transform="matrix(.9 0 0 .9 480.1 74.48)"/><use xlink:href="#b" transform="matrix(.9 0 0 .9 484.63 74.48)"/><use xlink:href="#b" transform="matrix(.9 0 0 .9 490.47 74.48)"/><use xlink:href="#b" transform="matrix(.9 0 0 .9 494.95 74.48)"/><use xlink:href="#b" transform="matrix(.9 0 0 .9 499.55 74.48)"/><use xlink:href="#b" transform="matrix(.9 0 0 .9 502.27 80.64)"/><use xlink:href="#b" transform="matrix(.9 0 0 .9 503.55 74.48)"/><use xlink:href="#b" transform="matrix(.9 0 0 .9 508.12 74.48)"/><use xlink:href="#b" transform="matrix(.9 0 0 .9 509.97 80.64)"/><use xlink:href="#b" transform="matrix(.9 0 0 .9 509.81 74.48)"/><use xlink:href="#b" transform="matrix(.9 0 0 .9 515.79 74.48)"/><use xlink:href="#b" transform="matrix(.9 0 0 .9 521.57 74.48)"/><use xlink:href="#b" transform="matrix(.9 0 0 .9 526.15 74.48)"/><use xlink:href="#b" transform="matrix(.9 0 0 .9 530.69 74.48)"/><use xlink:href="#b" transform="matrix(.9 0 0 .9 536.38 74.48)"/><use xlink:href="#b" transform="matrix(.9 0 0 .9 541.08 74.48)"/><use xlink:href="#b" transform="matrix(.9 0 0 .9 546.77 74.48)"/><use xlink:href="#b" transform="matrix(.9 0 0 .9 551.33 74.48)"/><use xlink:href="#b" transform="matrix(.9 0 0 .9 555.85 74.48)"/><use xlink:href="#b" transform="matrix(.9 0 0 .9 560.36 74.48)"/><use xlink:href="#b" transform="matrix(.9 0 0 .9 566.11 74.48)"/><use xlink:href="#b" transform="matrix(.9 0 0 .9 536.76 247.21)"/></g><text color="#000" font-family="Arial" font-size="12" text-anchor="end" transform="translate(507.09 269.11)"><tspan>Dot7</tspan></text><g fill="none" stroke="currentColor" color="#B824D0"><use xlink:href="#b" transform="matrix(.9 0 0 .9 122.13 401.93)"/><use xlink:href="#b" transform="matrix(.9 0 0 .9 127.82 401.93)"/><use xlink:href="#b" transform="matrix(.9 0 0 .9 136.91 401.93)"/><use xlink:href="#b" transform="matrix(.9 0 0 .9 141.38 401.93)"/><use xlink:href="#b" transform="matrix(.9 0 0 .9 146.81 401.93)"/><use xlink:href="#b" transform="matrix(.9 0 0 .9 151.33 401.93)"/><use xlink:href="#b" transform="matrix(.9 0 0 .9 155.79 401.93)"/><use xlink:href="#b" transform="matrix(.9 0 0 .9 161.45 401.93)"/><use xlink:href="#b" transform="matrix(.9 0 0 .9 165.95 401.93)"/><use xlink:href="#b" transform="matrix(.9 0 0 .9 171.75 401.93)"/><use xlink:href="#b" transform="matrix(.9 0 0 .9 176.23 401.93)"/><use xlink:href="#b" transform="matrix(.9 0 0 .9 181.95 401.93)"/><use xlink:href="#b" transform="matrix(.9 0 0 .9 186.43 401.93)"/><use xlink:href="#b" transform="matrix(.9 0 0 .9 192.32 401.93)"/><use xlink:href="#b" transform="matrix(.9 0 0 .9 196.84 401.93)"/><use xlink:href="#b" transform="matrix(.9 0 0 .9 202.78 401.93)"/><use xlink:href="#b" transform="matrix(.9 0 0 .9 208.63 401.93)"/><use xlink:href="#b" transform="matrix(.9 0 0 .9 214.51 401.93)"/><use xlink:href="#b" transform="matrix(.9 0 0 .9 219.03 401.93)"/><use xlink:href="#b" transform="matrix(.9 0 0 .9 224.71 401.93)"/><use xlink:href="#b" transform="matrix(.9 0 0 .9 229.28 401.93)"/><use xlink:href="#b" transform="matrix(.9 0 0 .9 235.07 401.93)"/><use xlink:href="#b" transform="matrix(.9 0 0 .9 239.63 401.93)"/><use xlink:href="#b" transform="matrix(.9 0 0 .9 244.12 401.93)"/><use xlink:href="#b" transform="matrix(.9 0 0 .9 249.94 401.93)"/><use xlink:href="#b" transform="matrix(.9 0 0 .9 254.46 401.93)"/><use xlink:href="#b" transform="matrix(.9 0 0 .9 259.01 401.93)"/><use xlink:href="#b" transform="matrix(.9 0 0 .9 258.76 399.18)"/><use xlink:href="#b" transform="matrix(.9 0 0 .9 258.81 401.93)"/><use xlink:href="#b" transform="matrix(.9 0 0 .9 260.42 397.2)"/><use xlink:href="#b" transform="matrix(.9 0 0 .9 260.33 391.04)"/><use xlink:href="#b" transform="matrix(.9 0 0 .9 260.22 382.9)"/><use xlink:href="#b" transform="matrix(.9 0 0 .9 260.12 401.93)"/><use xlink:href="#b" transform="matrix(.9 0 0 .9 261.77 369.53)"/><use xlink:href="#b" transform="matrix(.9 0 0 .9 261.79 389.06)"/><use xlink:href="#b" transform="matrix(.9 0 0 .9 261.89 371.15)"/><use xlink:href="#b" transform="matrix(.9 0 0 .9 263.04 350.94)"/><use xlink:href="#b" transform="matrix(.9 0 0 .9 263.22 349.34)"/><use xlink:href="#b" transform="matrix(.9 0 0 .9 264.84 308.1)"/><use xlink:href="#b" transform="matrix(.9 0 0 .9 264.83 319.05)"/><use xlink:href="#b" transform="matrix(.9 0 0 .9 264.57 336.56)"/><use xlink:href="#b" transform="matrix(.9 0 0 .9 264.72 325.8)"/><use xlink:href="#b" transform="matrix(.9 0 0 .9 266.38 321.88)"/><use xlink:href="#b" transform="matrix(.9 0 0 .9 266.27 313.21)"/><use xlink:href="#b" transform="matrix(.9 0 0 .9 266.13 300.25)"/><use xlink:href="#b" transform="matrix(.9 0 0 .9 266.25 303.11)"/><use xlink:href="#b" transform="matrix(.9 0 0 .9 267.83 273.84)"/><use xlink:href="#b" transform="matrix(.9 0 0 .9 267.73 298.64)"/><use xlink:href="#b" transform="matrix(.9 0 0 .9 267.71 278.02)"/><use xlink:href="#b" transform="matrix(.9 0 0 .9 267.7 275.01)"/><use xlink:href="#b" transform="matrix(.9 0 0 .9 269.14 264.45)"/><use xlink:href="#b" transform="matrix(.9 0 0 .9 269.3 264.84)"/><use xlink:href="#b" transform="matrix(.9 0 0 .9 269.12 260.22)"/><use xlink:href="#b" transform="matrix(.9 0 0 .9 270.53 264.45)"/><use xlink:href="#b" transform="matrix(.9 0 0 .9 270.68 249.26)"/><use xlink:href="#b" transform="matrix(.9 0 0 .9 270.6 246.51)"/><use xlink:href="#b" transform="matrix(.9 0 0 .9 270.54 233.2)"/><use xlink:href="#b" transform="matrix(.9 0 0 .9 272.12 230.29)"/><use xlink:href="#b" transform="matrix(.9 0 0 .9 272.2 225.08)"/><use xlink:href="#b" transform="matrix(.9 0 0 .9 272.15 207.1)"/><use xlink:href="#b" transform="matrix(.9 0 0 .9 272.29 219.97)"/><use xlink:href="#b" transform="matrix(.9 0 0 .9 273.66 213.98)"/><use xlink:href="#b" transform="matrix(.9 0 0 .9 273.47 219.97)"/><use xlink:href="#b" transform="matrix(.9 0 0 .9 273.74 223.92)"/><use xlink:href="#b" transform="matrix(.9 0 0 .9 273.8 210.87)"/><use xlink:href="#b" transform="matrix(.9 0 0 .9 275.03 201.76)"/><use xlink:href="#b" transform="matrix(.9 0 0 .9 275.07 161.64)"/><use xlink:href="#b" transform="matrix(.9 0 0 .9 275.09 188.11)"/><use xlink:href="#b" transform="matrix(.9 0 0 .9 275.03 201.76)"/><use xlink:href="#b" transform="matrix(.9 0 0 .9 276.7 167.36)"/><use xlink:href="#b" transform="matrix(.9 0 0 .9 276.68 148.34)"/><use xlink:href="#b" transform="matrix(.9 0 0 .9 276.55 168.1)"/><use xlink:href="#b" transform="matrix(.9 0 0 .9 276.54 155.53)"/><use xlink:href="#b" transform="matrix(.9 0 0 .9 278.1 142.97)"/><use xlink:href="#b" transform="matrix(.9 0 0 .9 278.08 152.61)"/><use xlink:href="#b" transform="matrix(.9 0 0 .9 278.05 137.96)"/><use xlink:href="#b" transform="matrix(.9 0 0 .9 277.99 121.06)"/><use xlink:href="#b" transform="matrix(.9 0 0 .9 279.46 99.08)"/><use xlink:href="#b" transform="matrix(.9 0 0 .9 279.59 120.98)"/><use xlink:href="#b" transform="matrix(.9 0 0 .9 279.54 132.44)"/><use xlink:href="#b" transform="matrix(.9 0 0 .9 279.52 130.01)"/><use xlink:href="#b" transform="matrix(.9 0 0 .9 281.06 101.8)"/><use xlink:href="#b" transform="matrix(.9 0 0 .9 280.98 113.67)"/><use xlink:href="#b" transform="matrix(.9 0 0 .9 282.53 74.48)"/><use xlink:href="#b" transform="matrix(.9 0 0 .9 282.58 91.07)"/><use xlink:href="#b" transform="matrix(.9 0 0 .9 282.54 78.18)"/><use xlink:href="#b" transform="matrix(.9 0 0 .9 282.69 83.49)"/><use xlink:href="#b" transform="matrix(.9 0 0 .9 283.96 74.48)"/><use xlink:href="#b" transform="matrix(.9 0 0 .9 288.58 74.48)"/><use xlink:href="#b" transform="matrix(.9 0 0 .9 294.37 74.48)"/><use xlink:href="#b" transform="matrix(.9 0 0 .9 300.23 74.48)"/><use xlink:href="#b" transform="matrix(.9 0 0 .9 304.83 74.48)"/><use xlink:href="#b" transform="matrix(.9 0 0 .9 310.78 74.48)"/><use xlink:href="#b" transform="matrix(.9 0 0 .9 315.25 74.48)"/><use xlink:href="#b" transform="matrix(.9 0 0 .9 321.2 74.48)"/><use xlink:href="#b" transform="matrix(.9 0 0 .9 327.06 74.48)"/><use xlink:href="#b" transform="matrix(.9 0 0 .9 331.57 74.48)"/><use xlink:href="#b" transform="matrix(.9 0 0 .9 337.39 74.48)"/><use xlink:href="#b" transform="matrix(.9 0 0 .9 341.89 74.48)"/><use xlink:href="#b" transform="matrix(.9 0 0 .9 347.94 74.48)"/><use xlink:href="#b" transform="matrix(.9 0 0 .9 353.73 74.48)"/><use xlink:href="#b" transform="matrix(.9 0 0 .9 358.21 74.48)"/><use xlink:href="#b" transform="matrix(.9 0 0 .9 362.78 74.48)"/><use xlink:href="#b" transform="matrix(.9 0 0 .9 368.54 74.48)"/><use xlink:href="#b" transform="matrix(.9 0 0 .9 374.41 74.48)"/><use xlink:href="#b" transform="matrix(.9 0 0 .9 379.03 74.48)"/><use xlink:href="#b" transform="matrix(.9 0 0 .9 384.89 74.48)"/><use xlink:href="#b" transform="matrix(.9 0 0 .9 389.49 74.48)"/><use xlink:href="#b" transform="matrix(.9 0 0 .9 395.32 74.48)"/><use xlink:href="#b" transform="matrix(.9 0 0 .9 399.85 74.48)"/><use xlink:href="#b" transform="matrix(.9 0 0 .9 404.36 74.48)"/><use xlink:href="#b" transform="matrix(.9 0 0 .9 408.87 74.48)"/><use xlink:href="#b" transform="matrix(.9 0 0 .9 414.74 74.48)"/><use xlink:href="#b" transform="matrix(.9 0 0 .9 420.59 74.48)"/><use xlink:href="#b" transform="matrix(.9 0 0 .9 423.45 80.64)"/><use xlink:href="#b" transform="matrix(.9 0 0 .9 423.54 74.48)"/><use xlink:href="#b" transform="matrix(.9 0 0 .9 428.04 74.48)"/><use xlink:href="#b" transform="matrix(.9 0 0 .9 432.58 74.48)"/><use xlink:href="#b" transform="matrix(.9 0 0 .9 438.39 74.48)"/><use xlink:href="#b" transform="matrix(.9 0 0 .9 442.85 74.48)"/><use xlink:href="#b" transform="matrix(.9 0 0 .9 447.41 74.48)"/><use xlink:href="#b" transform="matrix(.9 0 0 .9 451.95 74.48)"/><use xlink:href="#b" transform="matrix(.9 0 0 .9 457.63 74.48)"/><use xlink:href="#b" transform="matrix(.9 0 0 .9 462.21 74.48)"/><use xlink:href="#b" transform="matrix(.9 0 0 .9 466.76 74.48)"/><use xlink:href="#b" transform="matrix(.9 0 0 .9 472.41 74.48)"/><use xlink:href="#b" transform="matrix(.9 0 0 .9 477.29 74.48)"/><use xlink:href="#b" transform="matrix(.9 0 0 .9 483.06 74.48)"/><use xlink:href="#b" transform="matrix(.9 0 0 .9 489.04 74.48)"/><use xlink:href="#b" transform="matrix(.9 0 0 .9 494.78 74.48)"/><use xlink:href="#b" transform="matrix(.9 0 0 .9 499.55 74.48)"/><use xlink:href="#b" transform="matrix(.9 0 0 .9 505.17 74.48)"/><use xlink:href="#b" transform="matrix(.9 0 0 .9 509.88 74.48)"/><use xlink:href="#b" transform="matrix(.9 0 0 .9 515.79 74.48)"/><use xlink:href="#b" transform="matrix(.9 0 0 .9 521.57 74.48)"/><use xlink:href="#b" transform="matrix(.9 0 0 .9 526.15 74.48)"/><use xlink:href="#b" transform="matrix(.9 0 0 .9 530.69 74.48)"/><use xlink:href="#b" transform="matrix(.9 0 0 .9 536.38 74.48)"/><use xlink:href="#b" transform="matrix(.9 0 0 .9 541.08 74.48)"/><use xlink:href="#b" transform="matrix(.9 0 0 .9 546.77 74.48)"/><use xlink:href="#b" transform="matrix(.9 0 0 .9 551.33 74.48)"/><use xlink:href="#b" transform="matrix(.9 0 0 .9 555.85 74.48)"/><use xlink:href="#b" transform="matrix(.9 0 0 .9 560.36 74.48)"/><use xlink:href="#b" transform="matrix(.9 0 0 .9 566.11 74.48)"/><use xlink:href="#b" transform="matrix(.9 0 0 .9 536.76 265.21)"/></g><text color="#000" font-family="Arial" font-size="12" text-anchor="end" transform="translate(507.09 287.11)"><tspan>Dot8</tspan></text><g fill="none" stroke="currentColor" color="#E568DE"><use xlink:href="#b" transform="matrix(.9 0 0 .9 122.13 401.93)"/><use xlink:href="#b" transform="matrix(.9 0 0 .9 127.82 401.93)"/><use xlink:href="#b" transform="matrix(.9 0 0 .9 136.91 401.93)"/><use xlink:href="#b" transform="matrix(.9 0 0 .9 141.38 401.93)"/><use xlink:href="#b" transform="matrix(.9 0 0 .9 146.81 401.93)"/><use xlink:href="#b" transform="matrix(.9 0 0 .9 151.33 401.93)"/><use xlink:href="#b" transform="matrix(.9 0 0 .9 155.79 401.93)"/><use xlink:href="#b" transform="matrix(.9 0 0 .9 161.45 401.93)"/><use xlink:href="#b" transform="matrix(.9 0 0 .9 165.95 401.93)"/><use xlink:href="#b" transform="matrix(.9 0 0 .9 171.75 401.93)"/><use xlink:href="#b" transform="matrix(.9 0 0 .9 176.23 401.93)"/><use xlink:href="#b" transform="matrix(.9 0 0 .9 181.95 401.93)"/><use xlink:href="#b" transform="matrix(.9 0 0 .9 186.43 401.93)"/><use xlink:href="#b" transform="matrix(.9 0 0 .9 192.32 401.93)"/><use xlink:href="#b" transform="matrix(.9 0 0 .9 196.84 401.93)"/><use xlink:href="#b" transform="matrix(.9 0 0 .9 202.78 401.93)"/><use xlink:href="#b" transform="matrix(.9 0 0 .9 208.63 401.93)"/><use xlink:href="#b" transform="matrix(.9 0 0 .9 214.51 401.93)"/><use xlink:href="#b" transform="matrix(.9 0 0 .9 219.03 401.93)"/><use xlink:href="#b" transform="matrix(.9 0 0 .9 224.71 401.93)"/><use xlink:href="#b" transform="matrix(.9 0 0 .9 229.28 401.93)"/><use xlink:href="#b" transform="matrix(.9 0 0 .9 235.07 401.93)"/><use xlink:href="#b" transform="matrix(.9 0 0 .9 239.63 401.93)"/><use xlink:href="#b" transform="matrix(.9 0 0 .9 244.12 401.93)"/><use xlink:href="#b" transform="matrix(.9 0 0 .9 249.94 401.93)"/><use xlink:href="#b" transform="matrix(.9 0 0 .9 254.46 401.93)"/><use xlink:href="#b" transform="matrix(.9 0 0 .9 259.01 401.93)"/><use xlink:href="#b" transform="matrix(.9 0 0 .9 264.84 401.93)"/><use xlink:href="#b" transform="matrix(.9 0 0 .9 269.3 401.93)"/><use xlink:href="#b" transform="matrix(.9 0 0 .9 273.8 401.93)"/><use xlink:href="#b" transform="matrix(.9 0 0 .9 279.46 401.93)"/><use xlink:href="#b" transform="matrix(.9 0 0 .9 282.53 398.25)"/><use xlink:href="#b" transform="matrix(.9 0 0 .9 282.58 401.93)"/><use xlink:href="#b" transform="matrix(.9 0 0 .9 282.69 388.49)"/><use xlink:href="#b" transform="matrix(.9 0 0 .9 283.96 386.51)"/><use xlink:href="#b" transform="matrix(.9 0 0 .9 283.77 396.27)"/><use xlink:href="#b" transform="matrix(.9 0 0 .9 284.12 386.51)"/><use xlink:href="#b" transform="matrix(.9 0 0 .9 285.44 366.81)"/><use xlink:href="#b" transform="matrix(.9 0 0 .9 285.48 373.82)"/><use xlink:href="#b" transform="matrix(.9 0 0 .9 285.39 401.93)"/><use xlink:href="#b" transform="matrix(.9 0 0 .9 285.51 361.07)"/><use xlink:href="#b" transform="matrix(.9 0 0 .9 286.99 337)"/><use xlink:href="#b" transform="matrix(.9 0 0 .9 286.89 339.46)"/><use xlink:href="#b" transform="matrix(.9 0 0 .9 286.96 379.98)"/><use xlink:href="#b" transform="matrix(.9 0 0 .9 287.14 334.93)"/><use xlink:href="#b" transform="matrix(.9 0 0 .9 288.58 300.1)"/><use xlink:href="#b" transform="matrix(.9 0 0 .9 288.55 328.77)"/><use xlink:href="#b" transform="matrix(.9 0 0 .9 288.41 328.66)"/><use xlink:href="#b" transform="matrix(.9 0 0 .9 290.06 328.77)"/><use xlink:href="#b" transform="matrix(.9 0 0 .9 289.93 304.21)"/><use xlink:href="#b" transform="matrix(.9 0 0 .9 289.83 286.09)"/><use xlink:href="#b" transform="matrix(.9 0 0 .9 289.86 295.71)"/><use xlink:href="#b" transform="matrix(.9 0 0 .9 291.49 292.17)"/><use xlink:href="#b" transform="matrix(.9 0 0 .9 291.39 269.74)"/><use xlink:href="#b" transform="matrix(.9 0 0 .9 291.56 286.2)"/><use xlink:href="#b" transform="matrix(.9 0 0 .9 291.34 259.68)"/><use xlink:href="#b" transform="matrix(.9 0 0 .9 293.01 254.64)"/><use xlink:href="#b" transform="matrix(.9 0 0 .9 292.88 263.25)"/><use xlink:href="#b" transform="matrix(.9 0 0 .9 292.92 262.8)"/><use xlink:href="#b" transform="matrix(.9 0 0 .9 293.02 258.04)"/><use xlink:href="#b" transform="matrix(.9 0 0 .9 294.37 246.99)"/><use xlink:href="#b" transform="matrix(.9 0 0 .9 294.42 246.71)"/><use xlink:href="#b" transform="matrix(.9 0 0 .9 294.32 289.71)"/><use xlink:href="#b" transform="matrix(.9 0 0 .9 294.51 235.67)"/><use xlink:href="#b" transform="matrix(.9 0 0 .9 295.95 238.65)"/><use xlink:href="#b" transform="matrix(.9 0 0 .9 295.81 224.39)"/><use xlink:href="#b" transform="matrix(.9 0 0 .9 295.91 236.67)"/><use xlink:href="#b" transform="matrix(.9 0 0 .9 295.88 228.92)"/><use xlink:href="#b" transform="matrix(.9 0 0 .9 297.31 224.39)"/><use xlink:href="#b" transform="matrix(.9 0 0 .9 297.37 199.22)"/><use xlink:href="#b" transform="matrix(.9 0 0 .9 297.31 195.79)"/><use xlink:href="#b" transform="matrix(.9 0 0 .9 297.29 197.83)"/><use xlink:href="#b" transform="matrix(.9 0 0 .9 298.71 181.2)"/><use xlink:href="#b" transform="matrix(.9 0 0 .9 298.75 178.02)"/><use xlink:href="#b" transform="matrix(.9 0 0 .9 298.76 189.81)"/><use xlink:href="#b" transform="matrix(.9 0 0 .9 298.83 174.03)"/><use xlink:href="#b" transform="matrix(.9 0 0 .9 300.23 148)"/><use xlink:href="#b" transform="matrix(.9 0 0 .9 300.2 157.82)"/><use xlink:href="#b" transform="matrix(.9 0 0 .9 300.32 159.95)"/><use xlink:href="#b" transform="matrix(.9 0 0 .9 301.78 139.41)"/><use xlink:href="#b" transform="matrix(.9 0 0 .9 301.94 135.44)"/><use xlink:href="#b" transform="matrix(.9 0 0 .9 301.89 163.98)"/><use xlink:href="#b" transform="matrix(.9 0 0 .9 301.79 132.71)"/><use xlink:href="#b" transform="matrix(.9 0 0 .9 303.27 131.72)"/><use xlink:href="#b" transform="matrix(.9 0 0 .9 303.24 128.93)"/><use xlink:href="#b" transform="matrix(.9 0 0 .9 303.27 110.53)"/><use xlink:href="#b" transform="matrix(.9 0 0 .9 303.32 105.11)"/><use xlink:href="#b" transform="matrix(.9 0 0 .9 304.83 83.55)"/><use xlink:href="#b" transform="matrix(.9 0 0 .9 304.72 110.84)"/><use xlink:href="#b" transform="matrix(.9 0 0 .9 304.72 114.06)"/><use xlink:href="#b" transform="matrix(.9 0 0 .9 304.8 92.3)"/><use xlink:href="#b" transform="matrix(.9 0 0 .9 306.18 94.78)"/><use xlink:href="#b" transform="matrix(.9 0 0 .9 306.19 74.48)"/><use xlink:href="#b" transform="matrix(.9 0 0 .9 306.3 76.34)"/><use xlink:href="#b" transform="matrix(.9 0 0 .9 306.29 74.58)"/><use xlink:href="#b" transform="matrix(.9 0 0 .9 307.81 74.48)"/><use xlink:href="#b" transform="matrix(.9 0 0 .9 313.68 74.48)"/><use xlink:href="#b" transform="matrix(.9 0 0 .9 318.17 74.48)"/><use xlink:href="#b" transform="matrix(.9 0 0 .9 318.08 80.64)"/><use xlink:href="#b" transform="matrix(.9 0 0 .9 317.96 74.48)"/><use xlink:href="#b" transform="matrix(.9 0 0 .9 319.65 80.64)"/><use xlink:href="#b" transform="matrix(.9 0 0 .9 319.62 74.48)"/><use xlink:href="#b" transform="matrix(.9 0 0 .9 324.12 74.48)"/><use xlink:href="#b" transform="matrix(.9 0 0 .9 328.67 74.48)"/><use xlink:href="#b" transform="matrix(.9 0 0 .9 333.15 74.48)"/><use xlink:href="#b" transform="matrix(.9 0 0 .9 339.02 74.48)"/><use xlink:href="#b" transform="matrix(.9 0 0 .9 344.89 74.48)"/><use xlink:href="#b" transform="matrix(.9 0 0 .9 349.41 74.48)"/><use xlink:href="#b" transform="matrix(.9 0 0 .9 355.12 74.48)"/><use xlink:href="#b" transform="matrix(.9 0 0 .9 359.71 74.48)"/><use xlink:href="#b" transform="matrix(.9 0 0 .9 364.18 74.48)"/><use xlink:href="#b" transform="matrix(.9 0 0 .9 368.65 74.48)"/><use xlink:href="#b" transform="matrix(.9 0 0 .9 374.41 74.48)"/><use xlink:href="#b" transform="matrix(.9 0 0 .9 379.03 74.48)"/><use xlink:href="#b" transform="matrix(.9 0 0 .9 384.89 74.48)"/><use xlink:href="#b" transform="matrix(.9 0 0 .9 389.49 74.48)"/><use xlink:href="#b" transform="matrix(.9 0 0 .9 395.32 74.48)"/><use xlink:href="#b" transform="matrix(.9 0 0 .9 399.85 74.48)"/><use xlink:href="#b" transform="matrix(.9 0 0 .9 404.36 74.48)"/><use xlink:href="#b" transform="matrix(.9 0 0 .9 408.87 74.48)"/><use xlink:href="#b" transform="matrix(.9 0 0 .9 414.74 74.48)"/><use xlink:href="#b" transform="matrix(.9 0 0 .9 416.15 80.64)"/><use xlink:href="#b" transform="matrix(.9 0 0 .9 416.04 74.48)"/><use xlink:href="#b" transform="matrix(.9 0 0 .9 417.71 80.64)"/><use xlink:href="#b" transform="matrix(.9 0 0 .9 419.09 74.48)"/><use xlink:href="#b" transform="matrix(.9 0 0 .9 419.01 80.64)"/><use xlink:href="#b" transform="matrix(.9 0 0 .9 419.14 74.48)"/><use xlink:href="#b" transform="matrix(.9 0 0 .9 423.61 74.48)"/><use xlink:href="#b" transform="matrix(.9 0 0 .9 429.57 74.48)"/><use xlink:href="#b" transform="matrix(.9 0 0 .9 435.44 74.48)"/><use xlink:href="#b" transform="matrix(.9 0 0 .9 439.96 74.48)"/><use xlink:href="#b" transform="matrix(.9 0 0 .9 445.87 74.48)"/><use xlink:href="#b" transform="matrix(.9 0 0 .9 450.39 74.48)"/><use xlink:href="#b" transform="matrix(.9 0 0 .9 456.1 74.48)"/><use xlink:href="#b" transform="matrix(.9 0 0 .9 460.81 74.48)"/><use xlink:href="#b" transform="matrix(.9 0 0 .9 465.3 74.48)"/><use xlink:href="#b" transform="matrix(.9 0 0 .9 470.93 74.48)"/><use xlink:href="#b" transform="matrix(.9 0 0 .9 475.6 74.48)"/><use xlink:href="#b" transform="matrix(.9 0 0 .9 480.1 74.48)"/><use xlink:href="#b" transform="matrix(.9 0 0 .9 484.63 74.48)"/><use xlink:href="#b" transform="matrix(.9 0 0 .9 490.47 74.48)"/><use xlink:href="#b" transform="matrix(.9 0 0 .9 494.95 74.48)"/><use xlink:href="#b" transform="matrix(.9 0 0 .9 499.55 74.48)"/><use xlink:href="#b" transform="matrix(.9 0 0 .9 505.17 74.48)"/><use xlink:href="#b" transform="matrix(.9 0 0 .9 509.88 74.48)"/><use xlink:href="#b" transform="matrix(.9 0 0 .9 515.79 74.48)"/><use xlink:href="#b" transform="matrix(.9 0 0 .9 521.57 74.48)"/><use xlink:href="#b" transform="matrix(.9 0 0 .9 526.15 74.48)"/><use xlink:href="#b" transform="matrix(.9 0 0 .9 530.69 74.48)"/><use xlink:href="#b" transform="matrix(.9 0 0 .9 536.38 74.48)"/><use xlink:href="#b" transform="matrix(.9 0 0 .9 541.08 74.48)"/><use xlink:href="#b" transform="matrix(.9 0 0 .9 546.77 74.48)"/><use xlink:href="#b" transform="matrix(.9 0 0 .9 551.33 74.48)"/><use xlink:href="#b" transform="matrix(.9 0 0 .9 555.85 74.48)"/><use xlink:href="#b" transform="matrix(.9 0 0 .9 560.36 74.48)"/><use xlink:href="#b" transform="matrix(.9 0 0 .9 566.11 74.48)"/><use xlink:href="#b" transform="matrix(.9 0 0 .9 536.76 283.21)"/></g><text color="#000" font-family="Arial" font-size="12" text-anchor="end" transform="translate(507.09 305.11)"><tspan>Dot9</tspan></text><g fill="none" stroke="currentColor" color="#4E5D3A"><use xlink:href="#b" transform="matrix(.9 0 0 .9 122.13 401.93)"/><use xlink:href="#b" transform="matrix(.9 0 0 .9 127.82 401.93)"/><use xlink:href="#b" transform="matrix(.9 0 0 .9 136.91 401.93)"/><use xlink:href="#b" transform="matrix(.9 0 0 .9 141.38 401.93)"/><use xlink:href="#b" transform="matrix(.9 0 0 .9 146.81 401.93)"/><use xlink:href="#b" transform="matrix(.9 0 0 .9 151.33 401.93)"/><use xlink:href="#b" transform="matrix(.9 0 0 .9 155.79 401.93)"/><use xlink:href="#b" transform="matrix(.9 0 0 .9 161.45 401.93)"/><use xlink:href="#b" transform="matrix(.9 0 0 .9 165.95 401.93)"/><use xlink:href="#b" transform="matrix(.9 0 0 .9 171.75 401.93)"/><use xlink:href="#b" transform="matrix(.9 0 0 .9 176.23 401.93)"/><use xlink:href="#b" transform="matrix(.9 0 0 .9 181.95 401.93)"/><use xlink:href="#b" transform="matrix(.9 0 0 .9 186.43 401.93)"/><use xlink:href="#b" transform="matrix(.9 0 0 .9 192.32 401.93)"/><use xlink:href="#b" transform="matrix(.9 0 0 .9 196.84 401.93)"/><use xlink:href="#b" transform="matrix(.9 0 0 .9 202.78 401.93)"/><use xlink:href="#b" transform="matrix(.9 0 0 .9 208.63 401.93)"/><use xlink:href="#b" transform="matrix(.9 0 0 .9 214.51 401.93)"/><use xlink:href="#b" transform="matrix(.9 0 0 .9 219.03 401.93)"/><use xlink:href="#b" transform="matrix(.9 0 0 .9 224.71 401.93)"/><use xlink:href="#b" transform="matrix(.9 0 0 .9 229.28 401.93)"/><use xlink:href="#b" transform="matrix(.9 0 0 .9 235.07 401.93)"/><use xlink:href="#b" transform="matrix(.9 0 0 .9 239.63 401.93)"/><use xlink:href="#b" transform="matrix(.9 0 0 .9 244.12 401.93)"/><use xlink:href="#b" transform="matrix(.9 0 0 .9 249.94 401.93)"/><use xlink:href="#b" transform="matrix(.9 0 0 .9 254.46 401.93)"/><use xlink:href="#b" transform="matrix(.9 0 0 .9 259.01 401.93)"/><use xlink:href="#b" transform="matrix(.9 0 0 .9 264.84 401.93)"/><use xlink:href="#b" transform="matrix(.9 0 0 .9 269.3 401.93)"/><use xlink:href="#b" transform="matrix(.9 0 0 .9 273.8 401.93)"/><use xlink:href="#b" transform="matrix(.9 0 0 .9 279.46 401.93)"/><use xlink:href="#b" transform="matrix(.9 0 0 .9 283.96 401.93)"/><use xlink:href="#b" transform="matrix(.9 0 0 .9 288.58 401.93)"/><use xlink:href="#b" transform="matrix(.9 0 0 .9 294.37 401.93)"/><use xlink:href="#b" transform="matrix(.9 0 0 .9 300.23 401.93)"/><use xlink:href="#b" transform="matrix(.9 0 0 .9 304.83 401.93)"/><use xlink:href="#b" transform="matrix(.9 0 0 .9 306.19 383.02)"/><use xlink:href="#b" transform="matrix(.9 0 0 .9 306.3 397.33)"/><use xlink:href="#b" transform="matrix(.9 0 0 .9 307.81 359.72)"/><use xlink:href="#b" transform="matrix(.9 0 0 .9 307.89 375.81)"/><use xlink:href="#b" transform="matrix(.9 0 0 .9 307.63 378.05)"/><use xlink:href="#b" transform="matrix(.9 0 0 .9 307.75 385.58)"/><use xlink:href="#b" transform="matrix(.9 0 0 .9 309.15 376.06)"/><use xlink:href="#b" transform="matrix(.9 0 0 .9 309.27 374.34)"/><use xlink:href="#b" transform="matrix(.9 0 0 .9 309.17 363.58)"/><use xlink:href="#b" transform="matrix(.9 0 0 .9 309.2 376.06)"/><use xlink:href="#b" transform="matrix(.9 0 0 .9 310.78 344.3)"/><use xlink:href="#b" transform="matrix(.9 0 0 .9 310.73 353.42)"/><use xlink:href="#b" transform="matrix(.9 0 0 .9 310.79 328.18)"/><use xlink:href="#b" transform="matrix(.9 0 0 .9 310.8 344.3)"/><use xlink:href="#b" transform="matrix(.9 0 0 .9 312.27 323.73)"/><use xlink:href="#b" transform="matrix(.9 0 0 .9 312.12 315.81)"/><use xlink:href="#b" transform="matrix(.9 0 0 .9 312.18 325.15)"/><use xlink:href="#b" transform="matrix(.9 0 0 .9 312.24 315.81)"/><use xlink:href="#b" transform="matrix(.9 0 0 .9 313.68 290.26)"/><use xlink:href="#b" transform="matrix(.9 0 0 .9 313.79 298.54)"/><use xlink:href="#b" transform="matrix(.9 0 0 .9 313.63 305.81)"/><use xlink:href="#b" transform="matrix(.9 0 0 .9 313.78 290.26)"/><use xlink:href="#b" transform="matrix(.9 0 0 .9 315.25 282.04)"/><use xlink:href="#b" transform="matrix(.9 0 0 .9 315.25 298.12)"/><use xlink:href="#b" transform="matrix(.9 0 0 .9 315.24 282.04)"/><use xlink:href="#b" transform="matrix(.9 0 0 .9 316.71 264.56)"/><use xlink:href="#b" transform="matrix(.9 0 0 .9 316.73 250.8)"/><use xlink:href="#b" transform="matrix(.9 0 0 .9 316.55 277.96)"/><use xlink:href="#b" transform="matrix(.9 0 0 .9 316.62 236.19)"/><use xlink:href="#b" transform="matrix(.9 0 0 .9 318.17 211.29)"/><use xlink:href="#b" transform="matrix(.9 0 0 .9 318.08 275.37)"/><use xlink:href="#b" transform="matrix(.9 0 0 .9 317.96 228.4)"/><use xlink:href="#b" transform="matrix(.9 0 0 .9 318.3 241.8)"/><use xlink:href="#b" transform="matrix(.9 0 0 .9 319.62 223)"/><use xlink:href="#b" transform="matrix(.9 0 0 .9 319.65 220)"/><use xlink:href="#b" transform="matrix(.9 0 0 .9 319.62 202.87)"/><use xlink:href="#b" transform="matrix(.9 0 0 .9 319.58 208.57)"/><use xlink:href="#b" transform="matrix(.9 0 0 .9 321.2 203.89)"/><use xlink:href="#b" transform="matrix(.9 0 0 .9 321.13 185.33)"/><use xlink:href="#b" transform="matrix(.9 0 0 .9 321.03 201.78)"/><use xlink:href="#b" transform="matrix(.9 0 0 .9 321.27 177.87)"/><use xlink:href="#b" transform="matrix(.9 0 0 .9 322.64 180.88)"/><use xlink:href="#b" transform="matrix(.9 0 0 .9 322.51 167.54)"/><use xlink:href="#b" transform="matrix(.9 0 0 .9 322.6 155.39)"/><use xlink:href="#b" transform="matrix(.9 0 0 .9 322.63 182.49)"/><use xlink:href="#b" transform="matrix(.9 0 0 .9 324.12 149.66)"/><use xlink:href="#b" transform="matrix(.9 0 0 .9 324.07 146.82)"/><use xlink:href="#b" transform="matrix(.9 0 0 .9 324.14 149.66)"/><use xlink:href="#b" transform="matrix(.9 0 0 .9 325.54 122.86)"/><use xlink:href="#b" transform="matrix(.9 0 0 .9 325.62 138.84)"/><use xlink:href="#b" transform="matrix(.9 0 0 .9 325.65 129.82)"/><use xlink:href="#b" transform="matrix(.9 0 0 .9 325.61 122.86)"/><use xlink:href="#b" transform="matrix(.9 0 0 .9 327.06 145.01)"/><use xlink:href="#b" transform="matrix(.9 0 0 .9 327.03 130.94)"/><use xlink:href="#b" transform="matrix(.9 0 0 .9 327.08 124.78)"/><use xlink:href="#b" transform="matrix(.9 0 0 .9 327.02 123.91)"/><use xlink:href="#b" transform="matrix(.9 0 0 .9 328.53 83.97)"/><use xlink:href="#b" transform="matrix(.9 0 0 .9 328.52 113.67)"/><use xlink:href="#b" transform="matrix(.9 0 0 .9 328.67 88.87)"/><use xlink:href="#b" transform="matrix(.9 0 0 .9 328.34 84.38)"/><use xlink:href="#b" transform="matrix(.9 0 0 .9 329.93 86.27)"/><use xlink:href="#b" transform="matrix(.9 0 0 .9 329.82 74.48)"/><use xlink:href="#b" transform="matrix(.9 0 0 .9 329.92 90.75)"/><use xlink:href="#b" transform="matrix(.9 0 0 .9 331.45 74.48)"/><use xlink:href="#b" transform="matrix(.9 0 0 .9 331.57 83.23)"/><use xlink:href="#b" transform="matrix(.9 0 0 .9 333.07 74.48)"/><use xlink:href="#b" transform="matrix(.9 0 0 .9 339.02 74.48)"/><use xlink:href="#b" transform="matrix(.9 0 0 .9 344.89 74.48)"/><use xlink:href="#b" transform="matrix(.9 0 0 .9 349.41 74.48)"/><use xlink:href="#b" transform="matrix(.9 0 0 .9 355.12 74.48)"/><use xlink:href="#b" transform="matrix(.9 0 0 .9 359.71 74.48)"/><use xlink:href="#b" transform="matrix(.9 0 0 .9 362.63 80.64)"/><use xlink:href="#b" transform="matrix(.9 0 0 .9 364.16 74.48)"/><use xlink:href="#b" transform="matrix(.9 0 0 .9 367.06 80.64)"/><use xlink:href="#b" transform="matrix(.9 0 0 .9 367.12 74.48)"/><use xlink:href="#b" transform="matrix(.9 0 0 .9 370.07 80.64)"/><use xlink:href="#b" transform="matrix(.9 0 0 .9 370.11 74.48)"/><use xlink:href="#b" transform="matrix(.9 0 0 .9 371.6 80.64)"/><use xlink:href="#b" transform="matrix(.9 0 0 .9 371.49 74.48)"/><use xlink:href="#b" transform="matrix(.9 0 0 .9 374.57 80.64)"/><use xlink:href="#b" transform="matrix(.9 0 0 .9 375.93 74.48)"/><use xlink:href="#b" transform="matrix(.9 0 0 .9 380.48 74.48)"/><use xlink:href="#b" transform="matrix(.9 0 0 .9 386.29 74.48)"/><use xlink:href="#b" transform="matrix(.9 0 0 .9 390.76 74.48)"/><use xlink:href="#b" transform="matrix(.9 0 0 .9 395.32 74.48)"/><use xlink:href="#b" transform="matrix(.9 0 0 .9 399.85 74.48)"/><use xlink:href="#b" transform="matrix(.9 0 0 .9 404.36 74.48)"/><use xlink:href="#b" transform="matrix(.9 0 0 .9 408.87 74.48)"/><use xlink:href="#b" transform="matrix(.9 0 0 .9 414.74 74.48)"/><use xlink:href="#b" transform="matrix(.9 0 0 .9 420.59 74.48)"/><use xlink:href="#b" transform="matrix(.9 0 0 .9 425.06 74.48)"/><use xlink:href="#b" transform="matrix(.9 0 0 .9 429.57 74.48)"/><use xlink:href="#b" transform="matrix(.9 0 0 .9 435.44 74.48)"/><use xlink:href="#b" transform="matrix(.9 0 0 .9 439.96 74.48)"/><use xlink:href="#b" transform="matrix(.9 0 0 .9 445.87 74.48)"/><use xlink:href="#b" transform="matrix(.9 0 0 .9 450.39 74.48)"/><use xlink:href="#b" transform="matrix(.9 0 0 .9 456.1 74.48)"/><use xlink:href="#b" transform="matrix(.9 0 0 .9 460.81 74.48)"/><use xlink:href="#b" transform="matrix(.9 0 0 .9 465.3 74.48)"/><use xlink:href="#b" transform="matrix(.9 0 0 .9 470.93 74.48)"/><use xlink:href="#b" transform="matrix(.9 0 0 .9 475.6 74.48)"/><use xlink:href="#b" transform="matrix(.9 0 0 .9 480.1 74.48)"/><use xlink:href="#b" transform="matrix(.9 0 0 .9 484.63 74.48)"/><use xlink:href="#b" transform="matrix(.9 0 0 .9 490.47 74.48)"/><use xlink:href="#b" transform="matrix(.9 0 0 .9 494.95 74.48)"/><use xlink:href="#b" transform="matrix(.9 0 0 .9 499.55 74.48)"/><use xlink:href="#b" transform="matrix(.9 0 0 .9 505.17 74.48)"/><use xlink:href="#b" transform="matrix(.9 0 0 .9 509.88 74.48)"/><use xlink:href="#b" transform="matrix(.9 0 0 .9 515.79 74.48)"/><use xlink:href="#b" transform="matrix(.9 0 0 .9 521.57 74.48)"/><use xlink:href="#b" transform="matrix(.9 0 0 .9 524.43 80.64)"/><use xlink:href="#b" transform="matrix(.9 0 0 .9 524.32 74.48)"/><use xlink:href="#b" transform="matrix(.9 0 0 .9 529.07 74.48)"/><use xlink:href="#b" transform="matrix(.9 0 0 .9 533.63 74.48)"/><use xlink:href="#b" transform="matrix(.9 0 0 .9 538.11 74.48)"/><use xlink:href="#b" transform="matrix(.9 0 0 .9 543.9 74.48)"/><use xlink:href="#b" transform="matrix(.9 0 0 .9 548.51 74.48)"/><use xlink:href="#b" transform="matrix(.9 0 0 .9 554.37 74.48)"/><use xlink:href="#b" transform="matrix(.9 0 0 .9 558.87 74.48)"/><use xlink:href="#b" transform="matrix(.9 0 0 .9 563.36 74.48)"/><use xlink:href="#b" transform="matrix(.9 0 0 .9 567.84 74.48)"/><use xlink:href="#b" transform="matrix(.9 0 0 .9 536.76 301.21)"/></g><g fill="none" stroke="currentColor" color="#000"><path stroke="#000" d="M106.09 54.01V422.4h468.73V54.01z"/><text fill="#000" stroke="none" font-family="Arial" font-size="12" text-anchor="middle" transform="rotate(-90 128.695 109.515)"><tspan>relative error</tspan></text></g><text color="#000" font-family="Arial" font-size="12" text-anchor="middle" transform="translate(340.45 471.3)"><tspan>condition number</tspan></text><text color="#000" font-family="Arial" font-size="12" text-anchor="middle" transform="translate(340.45 30.91)"><tspan>DotK for K = 2...9, double precision</tspan></text></svg>