<svg xmlns="http://www.w3.org/2000/svg" xmlns:xlink="http://www.w3.org/1999/xlink" viewBox="0 0 600 480"><desc>Produced by GNUPLOT 6.0 patchlevel 1</desc><path fill="none" d="M0 0h600v480H0z"/><defs><circle id="a" cx="0" cy="0" r="1" stroke="currentColor" stroke-width=".222"/><use xlink:href="#a" id="b" fill="currentColor" stroke="none"/></defs><g fill="none" stroke="currentColor" color="#000"><path stroke="#000" d="M106.09 420.78h4.5m-4.5-5.78h4.5m-4.5-3.48h4.5m-4.5-2.49h4.5m-4.5-1.94h4.5m-4.5-1.6h4.5m-4.5-1.35h4.5m-4.5-1.17h4.5m-4.5-1.04h9"/><text fill="#000" stroke="none" font-family="Arial" font-size="12" text-anchor="end" transform="translate(97.7 405.83)"><tspan> 1x10</tspan><tspan dy="-6" font-size="9.6">-16</tspan></text></g><g fill="none" stroke="currentColor" color="#000"><path stroke="#000" d="M106.09 379.85h4.5m-4.5-5.79h4.5m-4.5-3.47h4.5m-4.5-2.49h4.5m-4.5-1.94h4.5m-4.5-1.6h4.5m-4.5-1.35h4.5m-4.5-1.17h4.5m-4.5-1.04h9"/><text fill="#000" stroke="none" font-family="Arial" font-size="12" text-anchor="end" transform="translate(97.7 364.9)"><tspan> 1x10</tspan><tspan dy="-6" font-size="9.6">-14</tspan></text></g><g fill="none" stroke="currentColor" color="#000"><path stroke="#000" d="M106.09 338.92h4.5m-4.5-5.79h4.5m-4.5-3.47h4.5m-4.5-2.49h4.5m-4.5-1.95h4.5m-4.5-1.59h4.5m-4.5-1.35h4.5m-4.5-1.17h4.5m-4.5-1.04h9"/><text fill="#000" stroke="none" font-family="Arial" font-size="12" text-anchor="end" transform="translate(97.7 323.97)"><tspan> 1x10</tspan><tspan dy="-6" font-size="9.6">-12</tspan></text></g><g fill="none" stroke="currentColor" color="#000"><path stroke="#000" d="M106.09 297.98h4.5m-4.5-5.78h4.5m-4.5-3.47h4.5m-4.5-2.5h4.5m-4.5-1.94h4.5m-4.5-1.59h4.5m-4.5-1.35h4.5m-4.5-1.18h4.5m-4.5-1.03h9"/><text fill="#000" stroke="none" font-family="Arial" font-size="12" text-anchor="end" transform="translate(97.7 283.04)"><tspan> 1x10</tspan><tspan dy="-6" font-size="9.6">-10</tspan></text></g><g fill="none" stroke="currentColor" color="#000"><path stroke="#000" d="M106.09 257.05h4.5m-4.5-5.78h4.5m-4.5-3.48h4.5m-4.5-2.49h4.5m-4.5-1.94h4.5m-4.5-1.6h4.5m-4.5-1.35h4.5m-4.5-1.17h4.5m-4.5-1.04h9"/><text fill="#000" stroke="none" font-family="Arial" font-size="12" text-anchor="end" transform="translate(97.7 242.1)"><tspan> 1x10</tspan><tspan dy="-6" font-size="9.6">-8</tspan></text></g><g fill="none" stroke="currentColor" color="#000"><path stroke="#000" d="M106.09 216.12h4.5m-4.5-5.78h4.5m-4.5-3.48h4.5m-4.5-2.49h4.5m-4.5-1.94h4.5m-4.5-1.6h4.5m-4.5-1.35h4.5m-4.5-1.17h4.5m-4.5-1.04h9"/><text fill="#000" stroke="none" font-family="Arial" font-size="12" text-anchor="end" transform="translate(97.7 201.17)"><tspan> 1x10</tspan><tspan dy="-6" font-size="9.6">-6</tspan></text></g><g fill="none" stroke="currentColor" color="#000"><path stroke="#000" d="M106.09 175.19h4.5m-4.5-5.79h4.5m-4.5-3.47h4.5m-4.5-2.49h4.5m-4.5-1.95h4.5m-4.5-1.59h4.5m-4.5-1.35h4.5m-4.5-1.17h4.5m-4.5-1.04h9"/><text fill="#000" stroke="none" font-family="Arial" font-size="12" text-anchor="end" transform="translate(97.7 160.24)"><tspan> 0.0001</tspan></text></g><g fill="none" stroke="currentColor" color="#000"><path stroke="#000" d="M106.09 134.25h4.5m-4.5-5.78h4.5m-4.5-3.47h4.5m-4.5-2.49h4.5m-4.5-1.95h4.5m-4.5-1.59h4.5m-4.5-1.35h4.5m-4.5-1.18h4.5m-4.5-1.03h9"/><text fill="#000" stroke="none" font-family="Arial" font-size="12" text-anchor="end" transform="translate(97.7 119.31)"><tspan> 0.01</tspan></text></g><g fill="none" stroke="currentColor" color="#000"><path stroke="#000" d="M106.09 93.32h4.5m-4.5-5.78h4.5m-4.5-3.48h4.5m-4.5-2.49h4.5m-4.5-1.94h4.5m-4.5-1.59h4.5m-4.5-1.36h4.5m-4.5-1.17h4.5m-4.5-1.03h9"/><text fill="#000" stroke="none" font-family="Arial" font-size="12" text-anchor="end" transform="translate(97.7 78.38)"><tspan> 1</tspan></text></g><g fill="none" stroke="currentColor" color="#000"><path stroke="#000" d="M119.55 422.4v-4.5m.45 4.5v-4.5m.26 4.5v-4.5m.19 4.5v-4.5m.14 4.5v-4.5m.12 4.5v-4.5m.1 4.5v-4.5m.08 4.5v-4.5m.08 4.5v-9"/><text fill="#000" stroke="none" font-family="Arial" font-size="12" text-anchor="middle" transform="translate(120.97 444.3)"><tspan> 1</tspan></text></g><g fill="none" stroke="currentColor" color="#000"><path stroke="#000" d="M193.95 422.4v-4.5m.45 4.5v-4.5m.26 4.5v-4.5m.19 4.5v-4.5m.14 4.5v-4.5m.12 4.5v-4.5m.1 4.5v-4.5m.09 4.5v-4.5m.07 4.5v-9"/><text fill="#000" stroke="none" font-family="Arial" font-size="12" text-anchor="middle" transform="translate(195.37 444.3)"><tspan> 1x10</tspan><tspan dy="-6" font-size="9.6">50</tspan></text></g><g fill="none" stroke="currentColor" color="#000"><path stroke="#000" d="M268.35 422.4v-4.5m.45 4.5v-4.5m.26 4.5v-4.5m.19 4.5v-4.5m.14 4.5v-4.5m.12 4.5v-4.5m.1 4.5v-4.5m.09 4.5v-4.5m.07 4.5v-9"/><text fill="#000" stroke="none" font-family="Arial" font-size="12" text-anchor="middle" transform="translate(269.77 444.3)"><tspan> 1x10</tspan><tspan dy="-6" font-size="9.6">100</tspan></text></g><g fill="none" stroke="currentColor" color="#000"><path stroke="#000" d="M342.76 422.4v-4.5m.44 4.5v-4.5m.27 4.5v-4.5m.18 4.5v-4.5m.15 4.5v-4.5m.11 4.5v-4.5m.1 4.5v-4.5m.09 4.5v-4.5m.08 4.5v-9"/><text fill="#000" stroke="none" font-family="Arial" font-size="12" text-anchor="middle" transform="translate(344.18 444.3)"><tspan> 1x10</tspan><tspan dy="-6" font-size="9.6">150</tspan></text></g><g fill="none" stroke="currentColor" color="#000"><path stroke="#000" d="M417.16 422.4v-4.5m.44 4.5v-4.5m.27 4.5v-4.5m.18 4.5v-4.5m.15 4.5v-4.5m.11 4.5v-4.5m.1 4.5v-4.5m.09 4.5v-4.5m.08 4.5v-9"/><text fill="#000" stroke="none" font-family="Arial" font-size="12" text-anchor="middle" transform="translate(418.58 444.3)"><tspan> 1x10</tspan><tspan dy="-6" font-size="9.6">200</tspan></text></g><g fill="none" stroke="currentColor" color="#000"><path stroke="#000" d="M491.56 422.4v-4.5m.45 4.5v-4.5m.26 4.5v-4.5m.18 4.5v-4.5m.15 4.5v-4.5m.12 4.5v-4.5m.1 4.5v-4.5m.08 4.5v-4.5m.08 4.5v-9"/><text fill="#000" stroke="none" font-family="Arial" font-size="12" text-anchor="middle" transform="translate(492.98 444.3)"><tspan> 1x10</tspan><tspan dy="-6" font-size="9.6">250</tspan></text></g><g fill="none" stroke="currentColor" color="#000"><path stroke="#000" d="M565.96 422.4v-4.5m.45 4.5v-4.5m.26 4.5v-4.5m.19 4.5v-4.5m.14 4.5v-4.5m.12 4.5v-4.5m.1 4.5v-4.5m.08 4.5v-4.5m.08 4.5v-9"/><text fill="#000" stroke="none" font-family="Arial" font-size="12" text-anchor="middle" transform="translate(567.38 444.3)"><tspan> 1x10</tspan><tspan dy="-6" font-size="9.6">300</tspan></text></g><path fill="none" stroke="#000" d="M106.09 54.01V422.4h468.73V54.01z" color="#000"/><text color="#000" font-family="Arial" font-size="12" text-anchor="end" transform="translate(507.09 215.11)"><tspan>NaiveSum</tspan></text><g fill="none" stroke="currentColor" color="#140774"><use xlink:href="#b" transform="matrix(.9 0 0 .9 121.68 376.36)"/><use xlink:href="#b" transform="matrix(.9 0 0 .9 121.68 375.31)"/><use xlink:href="#b" transform="matrix(.9 0 0 .9 121.68 376.36)"/><use xlink:href="#b" transform="matrix(.9 0 0 .9 121.68 394.84)"/><use xlink:href="#b" transform="matrix(.9 0 0 .9 122.94 356.85)"/><use xlink:href="#b" transform="matrix(.9 0 0 .9 122.94 354.25)"/><use xlink:href="#b" transform="matrix(.9 0 0 .9 122.94 359.43)"/><use xlink:href="#b" transform="matrix(.9 0 0 .9 122.94 362.34)"/><use xlink:href="#b" transform="matrix(.9 0 0 .9 124.4 351.76)"/><use xlink:href="#b" transform="matrix(.9 0 0 .9 124.4 337.35)"/><use xlink:href="#b" transform="matrix(.9 0 0 .9 124.4 335.6)"/><use xlink:href="#b" transform="matrix(.9 0 0 .9 124.4 333.92)"/><use xlink:href="#b" transform="matrix(.9 0 0 .9 125.88 340.12)"/><use xlink:href="#b" transform="matrix(.9 0 0 .9 125.88 319.25)"/><use xlink:href="#b" transform="matrix(.9 0 0 .9 125.88 323.98)"/><use xlink:href="#b" transform="matrix(.9 0 0 .9 125.88 341.76)"/><use xlink:href="#b" transform="matrix(.9 0 0 .9 127.37 317.2)"/><use xlink:href="#b" transform="matrix(.9 0 0 .9 127.37 304.16)"/><use xlink:href="#b" transform="matrix(.9 0 0 .9 127.37 292.67)"/><use xlink:href="#b" transform="matrix(.9 0 0 .9 127.37 302.15)"/><use xlink:href="#b" transform="matrix(.9 0 0 .9 128.86 271.46)"/><use xlink:href="#b" transform="matrix(.9 0 0 .9 128.86 290.06)"/><use xlink:href="#b" transform="matrix(.9 0 0 .9 128.86 276.71)"/><use xlink:href="#b" transform="matrix(.9 0 0 .9 128.86 275.09)"/><use xlink:href="#b" transform="matrix(.9 0 0 .9 130.35 272.06)"/><use xlink:href="#b" transform="matrix(.9 0 0 .9 130.35 271.59)"/><use xlink:href="#b" transform="matrix(.9 0 0 .9 130.35 262.12)"/><use xlink:href="#b" transform="matrix(.9 0 0 .9 130.35 258.46)"/><use xlink:href="#b" transform="matrix(.9 0 0 .9 131.83 230)"/><use xlink:href="#b" transform="matrix(.9 0 0 .9 131.83 237.18)"/><use xlink:href="#b" transform="matrix(.9 0 0 .9 131.83 245.59)"/><use xlink:href="#b" transform="matrix(.9 0 0 .9 131.83 234.59)"/><use xlink:href="#b" transform="matrix(.9 0 0 .9 136.48 179.4)"/><use xlink:href="#b" transform="matrix(.9 0 0 .9 136.48 172.01)"/><use xlink:href="#b" transform="matrix(.9 0 0 .9 136.47 185.68)"/><use xlink:href="#b" transform="matrix(.9 0 0 .9 136.45 192.62)"/><use xlink:href="#b" transform="matrix(.9 0 0 .9 137.91 158.11)"/><use xlink:href="#b" transform="matrix(.9 0 0 .9 137.96 151.32)"/><use xlink:href="#b" transform="matrix(.9 0 0 .9 137.93 165.81)"/><use xlink:href="#b" transform="matrix(.9 0 0 .9 137.91 152.85)"/><use xlink:href="#b" transform="matrix(.9 0 0 .9 139.41 147.32)"/><use xlink:href="#b" transform="matrix(.9 0 0 .9 139.41 132.21)"/><use xlink:href="#b" transform="matrix(.9 0 0 .9 139.39 140.28)"/><use xlink:href="#b" transform="matrix(.9 0 0 .9 139.46 134.64)"/><use xlink:href="#b" transform="matrix(.9 0 0 .9 140.88 117.52)"/><use xlink:href="#b" transform="matrix(.9 0 0 .9 140.94 110.75)"/><use xlink:href="#b" transform="matrix(.9 0 0 .9 140.9 139)"/><use xlink:href="#b" transform="matrix(.9 0 0 .9 140.94 149.7)"/><use xlink:href="#b" transform="matrix(.9 0 0 .9 142.37 100.62)"/><use xlink:href="#b" transform="matrix(.9 0 0 .9 142.38 96.64)"/><use xlink:href="#b" transform="matrix(.9 0 0 .9 142.39 93.48)"/><use xlink:href="#b" transform="matrix(.9 0 0 .9 142.38 95.17)"/><use xlink:href="#b" transform="matrix(.9 0 0 .9 143.9 88.85)"/><use xlink:href="#b" transform="matrix(.9 0 0 .9 143.89 96.69)"/><use xlink:href="#b" transform="matrix(.9 0 0 .9 143.88 74.48)"/><use xlink:href="#b" transform="matrix(.9 0 0 .9 146.34 75.81)"/><use xlink:href="#b" transform="matrix(.9 0 0 .9 147.91 74.48)"/><use xlink:href="#b" transform="matrix(.9 0 0 .9 152.4 74.48)"/><use xlink:href="#b" transform="matrix(.9 0 0 .9 158.15 74.48)"/><use xlink:href="#b" transform="matrix(.9 0 0 .9 164.02 74.48)"/><use xlink:href="#b" transform="matrix(.9 0 0 .9 169.77 74.48)"/><use xlink:href="#b" transform="matrix(.9 0 0 .9 174.28 74.48)"/><use xlink:href="#b" transform="matrix(.9 0 0 .9 180.09 74.48)"/><use xlink:href="#b" transform="matrix(.9 0 0 .9 184.61 74.48)"/><use xlink:href="#b" transform="matrix(.9 0 0 .9 190.39 74.48)"/><use xlink:href="#b" transform="matrix(.9 0 0 .9 194.86 74.48)"/><use xlink:href="#b" transform="matrix(.9 0 0 .9 200.58 74.48)"/><use xlink:href="#b" transform="matrix(.9 0 0 .9 205.16 74.48)"/><use xlink:href="#b" transform="matrix(.9 0 0 .9 211.12 74.48)"/><use xlink:href="#b" transform="matrix(.9 0 0 .9 216.93 74.48)"/><use xlink:href="#b" transform="matrix(.9 0 0 .9 222.81 74.48)"/><use xlink:href="#b" transform="matrix(.9 0 0 .9 227.29 74.48)"/><use xlink:href="#b" transform="matrix(.9 0 0 .9 231.82 74.48)"/><use xlink:href="#b" transform="matrix(.9 0 0 .9 236.28 74.48)"/><use xlink:href="#b" transform="matrix(.9 0 0 .9 242.05 74.48)"/><use xlink:href="#b" transform="matrix(.9 0 0 .9 246.59 74.48)"/><use xlink:href="#b" transform="matrix(.9 0 0 .9 251.07 74.48)"/><use xlink:href="#b" transform="matrix(.9 0 0 .9 255.54 74.48)"/><use xlink:href="#b" transform="matrix(.9 0 0 .9 261.39 74.48)"/><use xlink:href="#b" transform="matrix(.9 0 0 .9 267.27 74.48)"/><use xlink:href="#b" transform="matrix(.9 0 0 .9 271.76 74.48)"/><use xlink:href="#b" transform="matrix(.9 0 0 .9 276.3 74.48)"/><use xlink:href="#b" transform="matrix(.9 0 0 .9 282.32 74.48)"/><use xlink:href="#b" transform="matrix(.9 0 0 .9 288.1 74.48)"/><use xlink:href="#b" transform="matrix(.9 0 0 .9 292.6 74.48)"/><use xlink:href="#b" transform="matrix(.9 0 0 .9 298.42 74.48)"/><use xlink:href="#b" transform="matrix(.9 0 0 .9 302.89 74.48)"/><use xlink:href="#b" transform="matrix(.9 0 0 .9 308.77 74.48)"/><use xlink:href="#b" transform="matrix(.9 0 0 .9 313.23 74.48)"/><use xlink:href="#b" transform="matrix(.9 0 0 .9 319.15 74.48)"/><use xlink:href="#b" transform="matrix(.9 0 0 .9 323.66 74.48)"/><use xlink:href="#b" transform="matrix(.9 0 0 .9 328.16 74.48)"/><use xlink:href="#b" transform="matrix(.9 0 0 .9 334.09 74.48)"/><use xlink:href="#b" transform="matrix(.9 0 0 .9 339.96 74.48)"/><use xlink:href="#b" transform="matrix(.9 0 0 .9 345.97 74.48)"/><use xlink:href="#b" transform="matrix(.9 0 0 .9 351.8 74.48)"/><use xlink:href="#b" transform="matrix(.9 0 0 .9 357.79 74.48)"/><use xlink:href="#b" transform="matrix(.9 0 0 .9 362.36 74.48)"/><use xlink:href="#b" transform="matrix(.9 0 0 .9 366.84 74.48)"/><use xlink:href="#b" transform="matrix(.9 0 0 .9 372.61 74.48)"/><use xlink:href="#b" transform="matrix(.9 0 0 .9 377.16 74.48)"/><use xlink:href="#b" transform="matrix(.9 0 0 .9 383.05 74.48)"/><use xlink:href="#b" transform="matrix(.9 0 0 .9 388.98 74.48)"/><use xlink:href="#b" transform="matrix(.9 0 0 .9 393.48 74.48)"/><use xlink:href="#b" transform="matrix(.9 0 0 .9 399.36 74.48)"/><use xlink:href="#b" transform="matrix(.9 0 0 .9 403.83 74.48)"/><use xlink:href="#b" transform="matrix(.9 0 0 .9 408.37 74.48)"/><use xlink:href="#b" transform="matrix(.9 0 0 .9 412.83 74.48)"/><use xlink:href="#b" transform="matrix(.9 0 0 .9 418.61 74.48)"/><use xlink:href="#b" transform="matrix(.9 0 0 .9 423.24 74.48)"/><use xlink:href="#b" transform="matrix(.9 0 0 .9 428.94 74.48)"/><use xlink:href="#b" transform="matrix(.9 0 0 .9 433.41 74.48)"/><use xlink:href="#b" transform="matrix(.9 0 0 .9 438.15 74.48)"/><use xlink:href="#b" transform="matrix(.9 0 0 .9 443.99 74.48)"/><use xlink:href="#b" transform="matrix(.9 0 0 .9 449.74 74.48)"/><use xlink:href="#b" transform="matrix(.9 0 0 .9 454.28 74.48)"/><use xlink:href="#b" transform="matrix(.9 0 0 .9 458.84 74.48)"/><use xlink:href="#b" transform="matrix(.9 0 0 .9 464.86 74.48)"/><use xlink:href="#b" transform="matrix(.9 0 0 .9 470.45 74.48)"/><use xlink:href="#b" transform="matrix(.9 0 0 .9 475.2 74.48)"/><use xlink:href="#b" transform="matrix(.9 0 0 .9 480.74 74.48)"/><use xlink:href="#b" transform="matrix(.9 0 0 .9 485.58 74.48)"/><use xlink:href="#b" transform="matrix(.9 0 0 .9 491.33 74.48)"/><use xlink:href="#b" transform="matrix(.9 0 0 .9 495.9 74.48)"/><use xlink:href="#b" transform="matrix(.9 0 0 .9 500.48 74.48)"/><use xlink:href="#b" transform="matrix(.9 0 0 .9 504.97 74.48)"/><use xlink:href="#b" transform="matrix(.9 0 0 .9 510.84 74.48)"/><use xlink:href="#b" transform="matrix(.9 0 0 .9 516.68 74.48)"/><use xlink:href="#b" transform="matrix(.9 0 0 .9 521.23 74.48)"/><use xlink:href="#b" transform="matrix(.9 0 0 .9 525.72 74.48)"/><use xlink:href="#b" transform="matrix(.9 0 0 .9 530.21 74.48)"/><use xlink:href="#b" transform="matrix(.9 0 0 .9 535.94 74.48)"/><use xlink:href="#b" transform="matrix(.9 0 0 .9 536.76 211.21)"/></g><text color="#000" font-family="Arial" font-size="12" text-anchor="end" transform="translate(507.09 233.11)"><tspan>Kahan</tspan></text><g fill="none" stroke="currentColor" color="#E9A2B4"><use xlink:href="#b" transform="matrix(.9 0 0 .9 121.68 401.93)"/><use xlink:href="#b" transform="matrix(.9 0 0 .9 122.94 392.86)"/><use xlink:href="#b" transform="matrix(.9 0 0 .9 122.94 386.7)"/><use xlink:href="#b" transform="matrix(.9 0 0 .9 122.94 399.02)"/><use xlink:href="#b" transform="matrix(.9 0 0 .9 122.94 389.26)"/><use xlink:href="#b" transform="matrix(.9 0 0 .9 124.4 366.52)"/><use xlink:href="#b" transform="matrix(.9 0 0 .9 124.4 382.73)"/><use xlink:href="#b" transform="matrix(.9 0 0 .9 124.4 369.98)"/><use xlink:href="#b" transform="matrix(.9 0 0 .9 124.4 387.27)"/><use xlink:href="#b" transform="matrix(.9 0 0 .9 125.88 340.22)"/><use xlink:href="#b" transform="matrix(.9 0 0 .9 125.88 358.37)"/><use xlink:href="#b" transform="matrix(.9 0 0 .9 125.88 353.77)"/><use xlink:href="#b" transform="matrix(.9 0 0 .9 125.88 352.5)"/><use xlink:href="#b" transform="matrix(.9 0 0 .9 127.37 331.69)"/><use xlink:href="#b" transform="matrix(.9 0 0 .9 127.37 327.39)"/><use xlink:href="#b" transform="matrix(.9 0 0 .9 127.37 328.72)"/><use xlink:href="#b" transform="matrix(.9 0 0 .9 127.37 321.51)"/><use xlink:href="#b" transform="matrix(.9 0 0 .9 128.86 307.64)"/><use xlink:href="#b" transform="matrix(.9 0 0 .9 128.86 302.72)"/><use xlink:href="#b" transform="matrix(.9 0 0 .9 128.86 314.6)"/><use xlink:href="#b" transform="matrix(.9 0 0 .9 128.86 312.91)"/><use xlink:href="#b" transform="matrix(.9 0 0 .9 130.35 328.1)"/><use xlink:href="#b" transform="matrix(.9 0 0 .9 130.35 298.2)"/><use xlink:href="#b" transform="matrix(.9 0 0 .9 130.35 297.64)"/><use xlink:href="#b" transform="matrix(.9 0 0 .9 130.35 291.34)"/><use xlink:href="#b" transform="matrix(.9 0 0 .9 131.83 267.99)"/><use xlink:href="#b" transform="matrix(.9 0 0 .9 131.83 277.06)"/><use xlink:href="#b" transform="matrix(.9 0 0 .9 131.83 280.62)"/><use xlink:href="#b" transform="matrix(.9 0 0 .9 131.83 264.3)"/><use xlink:href="#b" transform="matrix(.9 0 0 .9 136.48 248.88)"/><use xlink:href="#b" transform="matrix(.9 0 0 .9 136.48 246.18)"/><use xlink:href="#b" transform="matrix(.9 0 0 .9 136.47 238.17)"/><use xlink:href="#b" transform="matrix(.9 0 0 .9 136.45 244.4)"/><use xlink:href="#b" transform="matrix(.9 0 0 .9 137.91 225.47)"/><use xlink:href="#b" transform="matrix(.9 0 0 .9 137.96 217.49)"/><use xlink:href="#b" transform="matrix(.9 0 0 .9 137.93 226.7)"/><use xlink:href="#b" transform="matrix(.9 0 0 .9 137.91 253.75)"/><use xlink:href="#b" transform="matrix(.9 0 0 .9 139.41 204.37)"/><use xlink:href="#b" transform="matrix(.9 0 0 .9 139.41 206.22)"/><use xlink:href="#b" transform="matrix(.9 0 0 .9 139.39 208.31)"/><use xlink:href="#b" transform="matrix(.9 0 0 .9 139.46 201.79)"/><use xlink:href="#b" transform="matrix(.9 0 0 .9 140.88 196.37)"/><use xlink:href="#b" transform="matrix(.9 0 0 .9 140.94 196.47)"/><use xlink:href="#b" transform="matrix(.9 0 0 .9 140.9 180.36)"/><use xlink:href="#b" transform="matrix(.9 0 0 .9 140.94 211)"/><use xlink:href="#b" transform="matrix(.9 0 0 .9 142.37 165.72)"/><use xlink:href="#b" transform="matrix(.9 0 0 .9 142.38 160.44)"/><use xlink:href="#b" transform="matrix(.9 0 0 .9 142.39 157.9)"/><use xlink:href="#b" transform="matrix(.9 0 0 .9 142.38 177.98)"/><use xlink:href="#b" transform="matrix(.9 0 0 .9 143.9 136.87)"/><use xlink:href="#b" transform="matrix(.9 0 0 .9 143.89 146.43)"/><use xlink:href="#b" transform="matrix(.9 0 0 .9 143.88 149.14)"/><use xlink:href="#b" transform="matrix(.9 0 0 .9 143.86 149.9)"/><use xlink:href="#b" transform="matrix(.9 0 0 .9 145.36 142.68)"/><use xlink:href="#b" transform="matrix(.9 0 0 .9 145.39 128.97)"/><use xlink:href="#b" transform="matrix(.9 0 0 .9 145.38 124.43)"/><use xlink:href="#b" transform="matrix(.9 0 0 .9 145.34 133.16)"/><use xlink:href="#b" transform="matrix(.9 0 0 .9 146.42 97.17)"/><use xlink:href="#b" transform="matrix(.9 0 0 .9 146.44 101.55)"/><use xlink:href="#b" transform="matrix(.9 0 0 .9 146.43 94.97)"/><use xlink:href="#b" transform="matrix(.9 0 0 .9 146.34 106.44)"/><use xlink:href="#b" transform="matrix(.9 0 0 .9 147.91 79.91)"/><use xlink:href="#b" transform="matrix(.9 0 0 .9 147.95 78.54)"/><use xlink:href="#b" transform="matrix(.9 0 0 .9 147.88 80.92)"/><use xlink:href="#b" transform="matrix(.9 0 0 .9 147.88 89.81)"/><use xlink:href="#b" transform="matrix(.9 0 0 .9 149.39 105.52)"/><use xlink:href="#b" transform="matrix(.9 0 0 .9 149.43 77.68)"/><use xlink:href="#b" transform="matrix(.9 0 0 .9 149.37 74.48)"/><use xlink:href="#b" transform="matrix(.9 0 0 .9 152.3 92.45)"/><use xlink:href="#b" transform="matrix(.9 0 0 .9 152.28 74.48)"/><use xlink:href="#b" transform="matrix(.9 0 0 .9 158.15 74.48)"/><use xlink:href="#b" transform="matrix(.9 0 0 .9 164.02 74.48)"/><use xlink:href="#b" transform="matrix(.9 0 0 .9 169.77 74.48)"/><use xlink:href="#b" transform="matrix(.9 0 0 .9 174.28 74.48)"/><use xlink:href="#b" transform="matrix(.9 0 0 .9 180.09 74.48)"/><use xlink:href="#b" transform="matrix(.9 0 0 .9 184.61 74.48)"/><use xlink:href="#b" transform="matrix(.9 0 0 .9 190.39 74.48)"/><use xlink:href="#b" transform="matrix(.9 0 0 .9 194.86 74.48)"/><use xlink:href="#b" transform="matrix(.9 0 0 .9 200.58 74.48)"/><use xlink:href="#b" transform="matrix(.9 0 0 .9 205.16 74.48)"/><use xlink:href="#b" transform="matrix(.9 0 0 .9 211.12 74.48)"/><use xlink:href="#b" transform="matrix(.9 0 0 .9 216.93 74.48)"/><use xlink:href="#b" transform="matrix(.9 0 0 .9 222.81 74.48)"/><use xlink:href="#b" transform="matrix(.9 0 0 .9 227.29 74.48)"/><use xlink:href="#b" transform="matrix(.9 0 0 .9 231.82 74.48)"/><use xlink:href="#b" transform="matrix(.9 0 0 .9 236.28 74.48)"/><use xlink:href="#b" transform="matrix(.9 0 0 .9 242.05 74.48)"/><use xlink:href="#b" transform="matrix(.9 0 0 .9 246.59 74.48)"/><use xlink:href="#b" transform="matrix(.9 0 0 .9 251.07 74.48)"/><use xlink:href="#b" transform="matrix(.9 0 0 .9 255.54 74.48)"/><use xlink:href="#b" transform="matrix(.9 0 0 .9 261.39 74.48)"/><use xlink:href="#b" transform="matrix(.9 0 0 .9 267.27 74.48)"/><use xlink:href="#b" transform="matrix(.9 0 0 .9 271.76 74.48)"/><use xlink:href="#b" transform="matrix(.9 0 0 .9 276.3 74.48)"/><use xlink:href="#b" transform="matrix(.9 0 0 .9 282.32 74.48)"/><use xlink:href="#b" transform="matrix(.9 0 0 .9 288.1 74.48)"/><use xlink:href="#b" transform="matrix(.9 0 0 .9 292.6 74.48)"/><use xlink:href="#b" transform="matrix(.9 0 0 .9 298.42 74.48)"/><use xlink:href="#b" transform="matrix(.9 0 0 .9 302.89 74.48)"/><use xlink:href="#b" transform="matrix(.9 0 0 .9 308.77 74.48)"/><use xlink:href="#b" transform="matrix(.9 0 0 .9 313.23 74.48)"/><use xlink:href="#b" transform="matrix(.9 0 0 .9 319.15 74.48)"/><use xlink:href="#b" transform="matrix(.9 0 0 .9 323.66 74.48)"/><use xlink:href="#b" transform="matrix(.9 0 0 .9 328.16 74.48)"/><use xlink:href="#b" transform="matrix(.9 0 0 .9 334.09 74.48)"/><use xlink:href="#b" transform="matrix(.9 0 0 .9 339.96 74.48)"/><use xlink:href="#b" transform="matrix(.9 0 0 .9 345.97 74.48)"/><use xlink:href="#b" transform="matrix(.9 0 0 .9 351.8 74.48)"/><use xlink:href="#b" transform="matrix(.9 0 0 .9 357.79 74.48)"/><use xlink:href="#b" transform="matrix(.9 0 0 .9 362.36 74.48)"/><use xlink:href="#b" transform="matrix(.9 0 0 .9 366.84 74.48)"/><use xlink:href="#b" transform="matrix(.9 0 0 .9 372.61 74.48)"/><use xlink:href="#b" transform="matrix(.9 0 0 .9 377.16 74.48)"/><use xlink:href="#b" transform="matrix(.9 0 0 .9 383.05 74.48)"/><use xlink:href="#b" transform="matrix(.9 0 0 .9 388.98 74.48)"/><use xlink:href="#b" transform="matrix(.9 0 0 .9 393.48 74.48)"/><use xlink:href="#b" transform="matrix(.9 0 0 .9 399.36 74.48)"/><use xlink:href="#b" transform="matrix(.9 0 0 .9 403.83 74.48)"/><use xlink:href="#b" transform="matrix(.9 0 0 .9 408.37 74.48)"/><use xlink:href="#b" transform="matrix(.9 0 0 .9 412.83 74.48)"/><use xlink:href="#b" transform="matrix(.9 0 0 .9 418.61 74.48)"/><use xlink:href="#b" transform="matrix(.9 0 0 .9 423.24 74.48)"/><use xlink:href="#b" transform="matrix(.9 0 0 .9 428.94 74.48)"/><use xlink:href="#b" transform="matrix(.9 0 0 .9 433.41 74.48)"/><use xlink:href="#b" transform="matrix(.9 0 0 .9 438.15 74.48)"/><use xlink:href="#b" transform="matrix(.9 0 0 .9 443.99 74.48)"/><use xlink:href="#b" transform="matrix(.9 0 0 .9 449.74 74.48)"/><use xlink:href="#b" transform="matrix(.9 0 0 .9 454.28 74.48)"/><use xlink:href="#b" transform="matrix(.9 0 0 .9 458.84 74.48)"/><use xlink:href="#b" transform="matrix(.9 0 0 .9 464.86 74.48)"/><use xlink:href="#b" transform="matrix(.9 0 0 .9 470.45 74.48)"/><use xlink:href="#b" transform="matrix(.9 0 0 .9 475.2 74.48)"/><use xlink:href="#b" transform="matrix(.9 0 0 .9 480.74 74.48)"/><use xlink:href="#b" transform="matrix(.9 0 0 .9 485.58 74.48)"/><use xlink:href="#b" transform="matrix(.9 0 0 .9 491.33 74.48)"/><use xlink:href="#b" transform="matrix(.9 0 0 .9 495.9 74.48)"/><use xlink:href="#b" transform="matrix(.9 0 0 .9 500.48 74.48)"/><use xlink:href="#b" transform="matrix(.9 0 0 .9 504.97 74.48)"/><use xlink:href="#b" transform="matrix(.9 0 0 .9 510.84 74.48)"/><use xlink:href="#b" transform="matrix(.9 0 0 .9 516.68 74.48)"/><use xlink:href="#b" transform="matrix(.9 0 0 .9 521.23 74.48)"/><use xlink:href="#b" transform="matrix(.9 0 0 .9 525.72 74.48)"/><use xlink:href="#b" transform="matrix(.9 0 0 .9 530.21 74.48)"/><use xlink:href="#b" transform="matrix(.9 0 0 .9 535.94 74.48)"/><use xlink:href="#b" transform="matrix(.9 0 0 .9 536.76 229.21)"/></g><text color="#000" font-family="Arial" font-size="12" text-anchor="end" transform="translate(507.09 251.11)"><tspan>Neumaier</tspan></text><g fill="none" stroke="currentColor" color="#42B7DE"><use xlink:href="#b" transform="matrix(.9 0 0 .9 121.68 401.93)"/><use xlink:href="#b" transform="matrix(.9 0 0 .9 127.37 401.93)"/><use xlink:href="#b" transform="matrix(.9 0 0 .9 136.48 401.93)"/><use xlink:href="#b" transform="matrix(.9 0 0 .9 142.37 401.93)"/><use xlink:href="#b" transform="matrix(.9 0 0 .9 143.89 380.33)"/><use xlink:href="#b" transform="matrix(.9 0 0 .9 143.88 376.41)"/><use xlink:href="#b" transform="matrix(.9 0 0 .9 145.36 361.06)"/><use xlink:href="#b" transform="matrix(.9 0 0 .9 145.39 363.66)"/><use xlink:href="#b" transform="matrix(.9 0 0 .9 145.38 354.41)"/><use xlink:href="#b" transform="matrix(.9 0 0 .9 145.34 361.95)"/><use xlink:href="#b" transform="matrix(.9 0 0 .9 146.42 362.68)"/><use xlink:href="#b" transform="matrix(.9 0 0 .9 146.44 334.1)"/><use xlink:href="#b" transform="matrix(.9 0 0 .9 146.43 350.25)"/><use xlink:href="#b" transform="matrix(.9 0 0 .9 146.34 357.06)"/><use xlink:href="#b" transform="matrix(.9 0 0 .9 147.91 323.21)"/><use xlink:href="#b" transform="matrix(.9 0 0 .9 147.95 362.57)"/><use xlink:href="#b" transform="matrix(.9 0 0 .9 147.88 343.52)"/><use xlink:href="#b" transform="matrix(.9 0 0 .9 147.88 339.08)"/><use xlink:href="#b" transform="matrix(.9 0 0 .9 149.39 307.92)"/><use xlink:href="#b" transform="matrix(.9 0 0 .9 149.43 309.36)"/><use xlink:href="#b" transform="matrix(.9 0 0 .9 149.37 321.92)"/><use xlink:href="#b" transform="matrix(.9 0 0 .9 149.36 303.44)"/><use xlink:href="#b" transform="matrix(.9 0 0 .9 150.9 279.91)"/><use xlink:href="#b" transform="matrix(.9 0 0 .9 150.88 290.38)"/><use xlink:href="#b" transform="matrix(.9 0 0 .9 150.91 286.76)"/><use xlink:href="#b" transform="matrix(.9 0 0 .9 150.84 291.95)"/><use xlink:href="#b" transform="matrix(.9 0 0 .9 152.33 257.97)"/><use xlink:href="#b" transform="matrix(.9 0 0 .9 152.3 273.91)"/><use xlink:href="#b" transform="matrix(.9 0 0 .9 152.28 292.49)"/><use xlink:href="#b" transform="matrix(.9 0 0 .9 152.4 269.57)"/><use xlink:href="#b" transform="matrix(.9 0 0 .9 153.84 243.52)"/><use xlink:href="#b" transform="matrix(.9 0 0 .9 153.85 238.28)"/><use xlink:href="#b" transform="matrix(.9 0 0 .9 153.89 248.85)"/><use xlink:href="#b" transform="matrix(.9 0 0 .9 153.86 253.1)"/><use xlink:href="#b" transform="matrix(.9 0 0 .9 155.28 240.52)"/><use xlink:href="#b" transform="matrix(.9 0 0 .9 155.33 242.05)"/><use xlink:href="#b" transform="matrix(.9 0 0 .9 155.38 236.26)"/><use xlink:href="#b" transform="matrix(.9 0 0 .9 155.35 222.74)"/><use xlink:href="#b" transform="matrix(.9 0 0 .9 156.6 210.69)"/><use xlink:href="#b" transform="matrix(.9 0 0 .9 156.6 218.24)"/><use xlink:href="#b" transform="matrix(.9 0 0 .9 156.57 228.04)"/><use xlink:href="#b" transform="matrix(.9 0 0 .9 156.54 204.85)"/><use xlink:href="#b" transform="matrix(.9 0 0 .9 158.15 183.16)"/><use xlink:href="#b" transform="matrix(.9 0 0 .9 158.03 192.37)"/><use xlink:href="#b" transform="matrix(.9 0 0 .9 158.17 169.7)"/><use xlink:href="#b" transform="matrix(.9 0 0 .9 158.09 203.92)"/><use xlink:href="#b" transform="matrix(.9 0 0 .9 159.51 196.39)"/><use xlink:href="#b" transform="matrix(.9 0 0 .9 159.59 164.02)"/><use xlink:href="#b" transform="matrix(.9 0 0 .9 159.52 184.39)"/><use xlink:href="#b" transform="matrix(.9 0 0 .9 159.61 171.67)"/><use xlink:href="#b" transform="matrix(.9 0 0 .9 161.03 143.31)"/><use xlink:href="#b" transform="matrix(.9 0 0 .9 161.08 141.8)"/><use xlink:href="#b" transform="matrix(.9 0 0 .9 161.02 135.99)"/><use xlink:href="#b" transform="matrix(.9 0 0 .9 160.99 145.07)"/><use xlink:href="#b" transform="matrix(.9 0 0 .9 162.53 129.15)"/><use xlink:href="#b" transform="matrix(.9 0 0 .9 162.5 128.99)"/><use xlink:href="#b" transform="matrix(.9 0 0 .9 162.5 147.33)"/><use xlink:href="#b" transform="matrix(.9 0 0 .9 162.48 111.51)"/><use xlink:href="#b" transform="matrix(.9 0 0 .9 164.02 109.87)"/><use xlink:href="#b" transform="matrix(.9 0 0 .9 163.96 111.2)"/><use xlink:href="#b" transform="matrix(.9 0 0 .9 164.01 96.73)"/><use xlink:href="#b" transform="matrix(.9 0 0 .9 163.97 112.62)"/><use xlink:href="#b" transform="matrix(.9 0 0 .9 165.48 89.18)"/><use xlink:href="#b" transform="matrix(.9 0 0 .9 165.54 85.98)"/><use xlink:href="#b" transform="matrix(.9 0 0 .9 165.59 108.48)"/><use xlink:href="#b" transform="matrix(.9 0 0 .9 165.48 79.66)"/><use xlink:href="#b" transform="matrix(.9 0 0 .9 166.8 74.48)"/><use xlink:href="#b" transform="matrix(.9 0 0 .9 166.79 87.82)"/><use xlink:href="#b" transform="matrix(.9 0 0 .9 166.67 77.85)"/><use xlink:href="#b" transform="matrix(.9 0 0 .9 168.3 74.48)"/><use xlink:href="#b" transform="matrix(.9 0 0 .9 172.85 74.48)"/><use xlink:href="#b" transform="matrix(.9 0 0 .9 177.32 74.48)"/><use xlink:href="#b" transform="matrix(.9 0 0 .9 182.96 74.48)"/><use xlink:href="#b" transform="matrix(.9 0 0 .9 187.47 74.48)"/><use xlink:href="#b" transform="matrix(.9 0 0 .9 193.46 74.48)"/><use xlink:href="#b" transform="matrix(.9 0 0 .9 199.16 74.48)"/><use xlink:href="#b" transform="matrix(.9 0 0 .9 203.72 74.48)"/><use xlink:href="#b" transform="matrix(.9 0 0 .9 208.19 74.48)"/><use xlink:href="#b" transform="matrix(.9 0 0 .9 213.94 74.48)"/><use xlink:href="#b" transform="matrix(.9 0 0 .9 218.46 74.48)"/><use xlink:href="#b" transform="matrix(.9 0 0 .9 224.35 74.48)"/><use xlink:href="#b" transform="matrix(.9 0 0 .9 228.86 74.48)"/><use xlink:href="#b" transform="matrix(.9 0 0 .9 234.67 74.48)"/><use xlink:href="#b" transform="matrix(.9 0 0 .9 239.21 74.48)"/><use xlink:href="#b" transform="matrix(.9 0 0 .9 245.04 74.48)"/><use xlink:href="#b" transform="matrix(.9 0 0 .9 249.62 74.48)"/><use xlink:href="#b" transform="matrix(.9 0 0 .9 254.13 74.48)"/><use xlink:href="#b" transform="matrix(.9 0 0 .9 259.97 74.48)"/><use xlink:href="#b" transform="matrix(.9 0 0 .9 265.77 74.48)"/><use xlink:href="#b" transform="matrix(.9 0 0 .9 270.33 74.48)"/><use xlink:href="#b" transform="matrix(.9 0 0 .9 276.18 74.48)"/><use xlink:href="#b" transform="matrix(.9 0 0 .9 280.66 74.48)"/><use xlink:href="#b" transform="matrix(.9 0 0 .9 285.26 74.48)"/><use xlink:href="#b" transform="matrix(.9 0 0 .9 290.93 74.48)"/><use xlink:href="#b" transform="matrix(.9 0 0 .9 295.5 74.48)"/><use xlink:href="#b" transform="matrix(.9 0 0 .9 299.99 74.48)"/><use xlink:href="#b" transform="matrix(.9 0 0 .9 304.5 74.48)"/><use xlink:href="#b" transform="matrix(.9 0 0 .9 310.08 74.48)"/><use xlink:href="#b" transform="matrix(.9 0 0 .9 314.73 74.48)"/><use xlink:href="#b" transform="matrix(.9 0 0 .9 320.56 74.48)"/><use xlink:href="#b" transform="matrix(.9 0 0 .9 325.18 74.48)"/><use xlink:href="#b" transform="matrix(.9 0 0 .9 331.14 74.48)"/><use xlink:href="#b" transform="matrix(.9 0 0 .9 335.69 74.48)"/><use xlink:href="#b" transform="matrix(.9 0 0 .9 341.27 74.48)"/><use xlink:href="#b" transform="matrix(.9 0 0 .9 345.97 74.48)"/><use xlink:href="#b" transform="matrix(.9 0 0 .9 351.8 74.48)"/><use xlink:href="#b" transform="matrix(.9 0 0 .9 357.79 74.48)"/><use xlink:href="#b" transform="matrix(.9 0 0 .9 362.36 74.48)"/><use xlink:href="#b" transform="matrix(.9 0 0 .9 366.84 74.48)"/><use xlink:href="#b" transform="matrix(.9 0 0 .9 372.61 74.48)"/><use xlink:href="#b" transform="matrix(.9 0 0 .9 377.16 74.48)"/><use xlink:href="#b" transform="matrix(.9 0 0 .9 383.05 74.48)"/><use xlink:href="#b" transform="matrix(.9 0 0 .9 388.98 74.48)"/><use xlink:href="#b" transform="matrix(.9 0 0 .9 393.48 74.48)"/><use xlink:href="#b" transform="matrix(.9 0 0 .9 399.36 74.48)"/><use xlink:href="#b" transform="matrix(.9 0 0 .9 403.83 74.48)"/><use xlink:href="#b" transform="matrix(.9 0 0 .9 408.37 74.48)"/><use xlink:href="#b" transform="matrix(.9 0 0 .9 412.83 74.48)"/><use xlink:href="#b" transform="matrix(.9 0 0 .9 418.61 74.48)"/><use xlink:href="#b" transform="matrix(.9 0 0 .9 423.24 74.48)"/><use xlink:href="#b" transform="matrix(.9 0 0 .9 428.94 74.48)"/><use xlink:href="#b" transform="matrix(.9 0 0 .9 433.41 74.48)"/><use xlink:href="#b" transform="matrix(.9 0 0 .9 438.15 74.48)"/><use xlink:href="#b" transform="matrix(.9 0 0 .9 443.99 74.48)"/><use xlink:href="#b" transform="matrix(.9 0 0 .9 449.74 74.48)"/><use xlink:href="#b" transform="matrix(.9 0 0 .9 454.28 74.48)"/><use xlink:href="#b" transform="matrix(.9 0 0 .9 458.84 74.48)"/><use xlink:href="#b" transform="matrix(.9 0 0 .9 464.86 74.48)"/><use xlink:href="#b" transform="matrix(.9 0 0 .9 470.45 74.48)"/><use xlink:href="#b" transform="matrix(.9 0 0 .9 475.2 74.48)"/><use xlink:href="#b" transform="matrix(.9 0 0 .9 480.74 74.48)"/><use xlink:href="#b" transform="matrix(.9 0 0 .9 485.58 74.48)"/><use xlink:href="#b" transform="matrix(.9 0 0 .9 491.33 74.48)"/><use xlink:href="#b" transform="matrix(.9 0 0 .9 495.9 74.48)"/><use xlink:href="#b" transform="matrix(.9 0 0 .9 500.48 74.48)"/><use xlink:href="#b" transform="matrix(.9 0 0 .9 504.97 74.48)"/><use xlink:href="#b" transform="matrix(.9 0 0 .9 510.84 74.48)"/><use xlink:href="#b" transform="matrix(.9 0 0 .9 516.68 74.48)"/><use xlink:href="#b" transform="matrix(.9 0 0 .9 521.23 74.48)"/><use xlink:href="#b" transform="matrix(.9 0 0 .9 525.72 74.48)"/><use xlink:href="#b" transform="matrix(.9 0 0 .9 530.21 74.48)"/><use xlink:href="#b" transform="matrix(.9 0 0 .9 535.94 74.48)"/><use xlink:href="#b" transform="matrix(.9 0 0 .9 536.76 247.21)"/></g><text color="#000" font-family="Arial" font-size="12" text-anchor="end" transform="translate(507.09 269.11)"><tspan>Klein</tspan></text><g fill="none" stroke="currentColor" color="#CEA0DD"><use xlink:href="#b" transform="matrix(.9 0 0 .9 121.68 401.93)"/><use xlink:href="#b" transform="matrix(.9 0 0 .9 127.37 401.93)"/><use xlink:href="#b" transform="matrix(.9 0 0 .9 136.48 401.93)"/><use xlink:href="#b" transform="matrix(.9 0 0 .9 142.37 401.93)"/><use xlink:href="#b" transform="matrix(.9 0 0 .9 147.91 401.93)"/><use xlink:href="#b" transform="matrix(.9 0 0 .9 152.4 401.93)"/><use xlink:href="#b" transform="matrix(.9 0 0 .9 158.15 401.93)"/><use xlink:href="#b" transform="matrix(.9 0 0 .9 164.02 401.93)"/><use xlink:href="#b" transform="matrix(.9 0 0 .9 165.54 400.92)"/><use xlink:href="#b" transform="matrix(.9 0 0 .9 165.48 382.44)"/><use xlink:href="#b" transform="matrix(.9 0 0 .9 166.8 401.93)"/><use xlink:href="#b" transform="matrix(.9 0 0 .9 166.77 374.29)"/><use xlink:href="#b" transform="matrix(.9 0 0 .9 166.79 398.93)"/><use xlink:href="#b" transform="matrix(.9 0 0 .9 166.67 384.63)"/><use xlink:href="#b" transform="matrix(.9 0 0 .9 168.3 364.39)"/><use xlink:href="#b" transform="matrix(.9 0 0 .9 168.3 356.29)"/><use xlink:href="#b" transform="matrix(.9 0 0 .9 168.33 358.11)"/><use xlink:href="#b" transform="matrix(.9 0 0 .9 168.39 356.29)"/><use xlink:href="#b" transform="matrix(.9 0 0 .9 169.77 351.84)"/><use xlink:href="#b" transform="matrix(.9 0 0 .9 169.83 337.54)"/><use xlink:href="#b" transform="matrix(.9 0 0 .9 169.81 340.71)"/><use xlink:href="#b" transform="matrix(.9 0 0 .9 169.85 327.77)"/><use xlink:href="#b" transform="matrix(.9 0 0 .9 171.3 317.25)"/><use xlink:href="#b" transform="matrix(.9 0 0 .9 171.27 318.21)"/><use xlink:href="#b" transform="matrix(.9 0 0 .9 171.33 325.67)"/><use xlink:href="#b" transform="matrix(.9 0 0 .9 171.24 321.32)"/><use xlink:href="#b" transform="matrix(.9 0 0 .9 172.85 295.77)"/><use xlink:href="#b" transform="matrix(.9 0 0 .9 172.8 299.75)"/><use xlink:href="#b" transform="matrix(.9 0 0 .9 172.8 289.19)"/><use xlink:href="#b" transform="matrix(.9 0 0 .9 172.79 296.81)"/><use xlink:href="#b" transform="matrix(.9 0 0 .9 174.23 294.29)"/><use xlink:href="#b" transform="matrix(.9 0 0 .9 174.28 274.01)"/><use xlink:href="#b" transform="matrix(.9 0 0 .9 174.3 273.6)"/><use xlink:href="#b" transform="matrix(.9 0 0 .9 174.29 272.71)"/><use xlink:href="#b" transform="matrix(.9 0 0 .9 175.75 264.93)"/><use xlink:href="#b" transform="matrix(.9 0 0 .9 175.72 251.76)"/><use xlink:href="#b" transform="matrix(.9 0 0 .9 175.8 257.15)"/><use xlink:href="#b" transform="matrix(.9 0 0 .9 175.86 249.3)"/><use xlink:href="#b" transform="matrix(.9 0 0 .9 177.23 264.93)"/><use xlink:href="#b" transform="matrix(.9 0 0 .9 177.25 259.54)"/><use xlink:href="#b" transform="matrix(.9 0 0 .9 177.23 228.34)"/><use xlink:href="#b" transform="matrix(.9 0 0 .9 177.32 231.99)"/><use xlink:href="#b" transform="matrix(.9 0 0 .9 178.5 236.62)"/><use xlink:href="#b" transform="matrix(.9 0 0 .9 178.61 239.24)"/><use xlink:href="#b" transform="matrix(.9 0 0 .9 178.6 221.57)"/><use xlink:href="#b" transform="matrix(.9 0 0 .9 178.62 244.17)"/><use xlink:href="#b" transform="matrix(.9 0 0 .9 180.09 201.44)"/><use xlink:href="#b" transform="matrix(.9 0 0 .9 180 221.57)"/><use xlink:href="#b" transform="matrix(.9 0 0 .9 180.03 203.51)"/><use xlink:href="#b" transform="matrix(.9 0 0 .9 180.06 210.92)"/><use xlink:href="#b" transform="matrix(.9 0 0 .9 181.52 178.58)"/><use xlink:href="#b" transform="matrix(.9 0 0 .9 181.52 187.46)"/><use xlink:href="#b" transform="matrix(.9 0 0 .9 181.52 195.76)"/><use xlink:href="#b" transform="matrix(.9 0 0 .9 181.61 210.92)"/><use xlink:href="#b" transform="matrix(.9 0 0 .9 182.96 176.25)"/><use xlink:href="#b" transform="matrix(.9 0 0 .9 182.95 169.55)"/><use xlink:href="#b" transform="matrix(.9 0 0 .9 183.1 156.37)"/><use xlink:href="#b" transform="matrix(.9 0 0 .9 183.12 151.44)"/><use xlink:href="#b" transform="matrix(.9 0 0 .9 184.61 131.43)"/><use xlink:href="#b" transform="matrix(.9 0 0 .9 184.57 151.28)"/><use xlink:href="#b" transform="matrix(.9 0 0 .9 184.53 153.44)"/><use xlink:href="#b" transform="matrix(.9 0 0 .9 184.48 141.57)"/><use xlink:href="#b" transform="matrix(.9 0 0 .9 186.03 137.07)"/><use xlink:href="#b" transform="matrix(.9 0 0 .9 186.06 125.18)"/><use xlink:href="#b" transform="matrix(.9 0 0 .9 185.99 117.53)"/><use xlink:href="#b" transform="matrix(.9 0 0 .9 186.08 109.18)"/><use xlink:href="#b" transform="matrix(.9 0 0 .9 187.47 87.97)"/><use xlink:href="#b" transform="matrix(.9 0 0 .9 187.48 113.73)"/><use xlink:href="#b" transform="matrix(.9 0 0 .9 187.45 99.79)"/><use xlink:href="#b" transform="matrix(.9 0 0 .9 187.51 95.96)"/><use xlink:href="#b" transform="matrix(.9 0 0 .9 188.88 74.48)"/><use xlink:href="#b" transform="matrix(.9 0 0 .9 188.98 76.22)"/><use xlink:href="#b" transform="matrix(.9 0 0 .9 188.75 85.2)"/><use xlink:href="#b" transform="matrix(.9 0 0 .9 188.88 93.25)"/><use xlink:href="#b" transform="matrix(.9 0 0 .9 190.39 74.48)"/><use xlink:href="#b" transform="matrix(.9 0 0 .9 190.42 82.59)"/><use xlink:href="#b" transform="matrix(.9 0 0 .9 190.4 74.48)"/><use xlink:href="#b" transform="matrix(.9 0 0 .9 196.42 74.48)"/><use xlink:href="#b" transform="matrix(.9 0 0 .9 202.11 74.48)"/><use xlink:href="#b" transform="matrix(.9 0 0 .9 206.64 74.48)"/><use xlink:href="#b" transform="matrix(.9 0 0 .9 211.12 74.48)"/><use xlink:href="#b" transform="matrix(.9 0 0 .9 216.93 74.48)"/><use xlink:href="#b" transform="matrix(.9 0 0 .9 222.81 74.48)"/><use xlink:href="#b" transform="matrix(.9 0 0 .9 227.29 74.48)"/><use xlink:href="#b" transform="matrix(.9 0 0 .9 231.82 74.48)"/><use xlink:href="#b" transform="matrix(.9 0 0 .9 236.28 74.48)"/><use xlink:href="#b" transform="matrix(.9 0 0 .9 242.05 74.48)"/><use xlink:href="#b" transform="matrix(.9 0 0 .9 246.59 74.48)"/><use xlink:href="#b" transform="matrix(.9 0 0 .9 251.07 74.48)"/><use xlink:href="#b" transform="matrix(.9 0 0 .9 255.54 74.48)"/><use xlink:href="#b" transform="matrix(.9 0 0 .9 261.39 74.48)"/><use xlink:href="#b" transform="matrix(.9 0 0 .9 267.27 74.48)"/><use xlink:href="#b" transform="matrix(.9 0 0 .9 271.76 74.48)"/><use xlink:href="#b" transform="matrix(.9 0 0 .9 276.3 74.48)"/><use xlink:href="#b" transform="matrix(.9 0 0 .9 282.32 74.48)"/><use xlink:href="#b" transform="matrix(.9 0 0 .9 288.1 74.48)"/><use xlink:href="#b" transform="matrix(.9 0 0 .9 292.6 74.48)"/><use xlink:href="#b" transform="matrix(.9 0 0 .9 298.42 74.48)"/><use xlink:href="#b" transform="matrix(.9 0 0 .9 302.89 74.48)"/><use xlink:href="#b" transform="matrix(.9 0 0 .9 308.77 74.48)"/><use xlink:href="#b" transform="matrix(.9 0 0 .9 313.23 74.48)"/><use xlink:href="#b" transform="matrix(.9 0 0 .9 319.15 74.48)"/><use xlink:href="#b" transform="matrix(.9 0 0 .9 323.66 74.48)"/><use xlink:href="#b" transform="matrix(.9 0 0 .9 328.16 74.48)"/><use xlink:href="#b" transform="matrix(.9 0 0 .9 334.09 74.48)"/><use xlink:href="#b" transform="matrix(.9 0 0 .9 339.96 74.48)"/><use xlink:href="#b" transform="matrix(.9 0 0 .9 345.97 74.48)"/><use xlink:href="#b" transform="matrix(.9 0 0 .9 351.8 74.48)"/><use xlink:href="#b" transform="matrix(.9 0 0 .9 357.79 74.48)"/><use xlink:href="#b" transform="matrix(.9 0 0 .9 362.36 74.48)"/><use xlink:href="#b" transform="matrix(.9 0 0 .9 366.84 74.48)"/><use xlink:href="#b" transform="matrix(.9 0 0 .9 372.61 74.48)"/><use xlink:href="#b" transform="matrix(.9 0 0 .9 377.16 74.48)"/><use xlink:href="#b" transform="matrix(.9 0 0 .9 383.05 74.48)"/><use xlink:href="#b" transform="matrix(.9 0 0 .9 388.98 74.48)"/><use xlink:href="#b" transform="matrix(.9 0 0 .9 393.48 74.48)"/><use xlink:href="#b" transform="matrix(.9 0 0 .9 399.36 74.48)"/><use xlink:href="#b" transform="matrix(.9 0 0 .9 403.83 74.48)"/><use xlink:href="#b" transform="matrix(.9 0 0 .9 408.37 74.48)"/><use xlink:href="#b" transform="matrix(.9 0 0 .9 412.83 74.48)"/><use xlink:href="#b" transform="matrix(.9 0 0 .9 418.61 74.48)"/><use xlink:href="#b" transform="matrix(.9 0 0 .9 423.24 74.48)"/><use xlink:href="#b" transform="matrix(.9 0 0 .9 428.94 74.48)"/><use xlink:href="#b" transform="matrix(.9 0 0 .9 433.41 74.48)"/><use xlink:href="#b" transform="matrix(.9 0 0 .9 438.15 74.48)"/><use xlink:href="#b" transform="matrix(.9 0 0 .9 443.99 74.48)"/><use xlink:href="#b" transform="matrix(.9 0 0 .9 449.74 74.48)"/><use xlink:href="#b" transform="matrix(.9 0 0 .9 454.28 74.48)"/><use xlink:href="#b" transform="matrix(.9 0 0 .9 458.84 74.48)"/><use xlink:href="#b" transform="matrix(.9 0 0 .9 464.86 74.48)"/><use xlink:href="#b" transform="matrix(.9 0 0 .9 470.45 74.48)"/><use xlink:href="#b" transform="matrix(.9 0 0 .9 475.2 74.48)"/><use xlink:href="#b" transform="matrix(.9 0 0 .9 480.74 74.48)"/><use xlink:href="#b" transform="matrix(.9 0 0 .9 485.58 74.48)"/><use xlink:href="#b" transform="matrix(.9 0 0 .9 491.33 74.48)"/><use xlink:href="#b" transform="matrix(.9 0 0 .9 495.9 74.48)"/><use xlink:href="#b" transform="matrix(.9 0 0 .9 500.48 74.48)"/><use xlink:href="#b" transform="matrix(.9 0 0 .9 504.97 74.48)"/><use xlink:href="#b" transform="matrix(.9 0 0 .9 510.84 74.48)"/><use xlink:href="#b" transform="matrix(.9 0 0 .9 516.68 74.48)"/><use xlink:href="#b" transform="matrix(.9 0 0 .9 521.23 74.48)"/><use xlink:href="#b" transform="matrix(.9 0 0 .9 525.72 74.48)"/><use xlink:href="#b" transform="matrix(.9 0 0 .9 530.21 74.48)"/><use xlink:href="#b" transform="matrix(.9 0 0 .9 535.94 74.48)"/><use xlink:href="#b" transform="matrix(.9 0 0 .9 536.76 265.21)"/></g><g fill="none" stroke="currentColor" color="#000"><path stroke="#000" d="M106.09 54.01V422.4h468.73V54.01z"/><text fill="#000" stroke="none" font-family="Arial" font-size="12" text-anchor="middle" transform="rotate(-90 128.695 109.515)"><tspan>relative error</tspan></text></g><text color="#000" font-family="Arial" font-size="12" text-anchor="middle" transform="translate(340.45 471.3)"><tspan>condition number</tspan></text><text color="#000" font-family="Arial" font-size="12" text-anchor="middle" transform="translate(340.45 30.91)"><tspan>Kahan, Neumaier, and Klein summation, double precision</tspan></text></svg>