<svg xmlns="http://www.w3.org/2000/svg" xmlns:xlink="http://www.w3.org/1999/xlink" viewBox="0 0 600 480"><desc>Produced by GNUPLOT 6.0 patchlevel 1</desc><path fill="none" d="M0 0h600v480H0z"/><defs><circle id="a" cx="0" cy="0" r="1" stroke="currentColor" stroke-width=".222"/><use xlink:href="#a" id="b" fill="currentColor" stroke="none"/></defs><g fill="none" stroke="currentColor" color="#000"><path stroke="#000" d="M106.09 420.78h4.5m-4.5-5.78h4.5m-4.5-3.48h4.5m-4.5-2.49h4.5m-4.5-1.94h4.5m-4.5-1.6h4.5m-4.5-1.35h4.5m-4.5-1.17h4.5m-4.5-1.04h9"/><text fill="#000" stroke="none" font-family="Arial" font-size="12" text-anchor="end" transform="translate(97.7 405.83)"><tspan> 1x10</tspan><tspan dy="-6" font-size="9.6">-16</tspan></text></g><g fill="none" stroke="currentColor" color="#000"><path stroke="#000" d="M106.09 379.85h4.5m-4.5-5.79h4.5m-4.5-3.47h4.5m-4.5-2.49h4.5m-4.5-1.94h4.5m-4.5-1.6h4.5m-4.5-1.35h4.5m-4.5-1.17h4.5m-4.5-1.04h9"/><text fill="#000" stroke="none" font-family="Arial" font-size="12" text-anchor="end" transform="translate(97.7 364.9)"><tspan> 1x10</tspan><tspan dy="-6" font-size="9.6">-14</tspan></text></g><g fill="none" stroke="currentColor" color="#000"><path stroke="#000" d="M106.09 338.92h4.5m-4.5-5.79h4.5m-4.5-3.47h4.5m-4.5-2.49h4.5m-4.5-1.95h4.5m-4.5-1.59h4.5m-4.5-1.35h4.5m-4.5-1.17h4.5m-4.5-1.04h9"/><text fill="#000" stroke="none" font-family="Arial" font-size="12" text-anchor="end" transform="translate(97.7 323.97)"><tspan> 1x10</tspan><tspan dy="-6" font-size="9.6">-12</tspan></text></g><g fill="none" stroke="currentColor" color="#000"><path stroke="#000" d="M106.09 297.98h4.5m-4.5-5.78h4.5m-4.5-3.47h4.5m-4.5-2.5h4.5m-4.5-1.94h4.5m-4.5-1.59h4.5m-4.5-1.35h4.5m-4.5-1.18h4.5m-4.5-1.03h9"/><text fill="#000" stroke="none" font-family="Arial" font-size="12" text-anchor="end" transform="translate(97.7 283.04)"><tspan> 1x10</tspan><tspan dy="-6" font-size="9.6">-10</tspan></text></g><g fill="none" stroke="currentColor" color="#000"><path stroke="#000" d="M106.09 257.05h4.5m-4.5-5.78h4.5m-4.5-3.48h4.5m-4.5-2.49h4.5m-4.5-1.94h4.5m-4.5-1.6h4.5m-4.5-1.35h4.5m-4.5-1.17h4.5m-4.5-1.04h9"/><text fill="#000" stroke="none" font-family="Arial" font-size="12" text-anchor="end" transform="translate(97.7 242.1)"><tspan> 1x10</tspan><tspan dy="-6" font-size="9.6">-8</tspan></text></g><g fill="none" stroke="currentColor" color="#000"><path stroke="#000" d="M106.09 216.12h4.5m-4.5-5.78h4.5m-4.5-3.48h4.5m-4.5-2.49h4.5m-4.5-1.94h4.5m-4.5-1.6h4.5m-4.5-1.35h4.5m-4.5-1.17h4.5m-4.5-1.04h9"/><text fill="#000" stroke="none" font-family="Arial" font-size="12" text-anchor="end" transform="translate(97.7 201.17)"><tspan> 1x10</tspan><tspan dy="-6" font-size="9.6">-6</tspan></text></g><g fill="none" stroke="currentColor" color="#000"><path stroke="#000" d="M106.09 175.19h4.5m-4.5-5.79h4.5m-4.5-3.47h4.5m-4.5-2.49h4.5m-4.5-1.95h4.5m-4.5-1.59h4.5m-4.5-1.35h4.5m-4.5-1.17h4.5m-4.5-1.04h9"/><text fill="#000" stroke="none" font-family="Arial" font-size="12" text-anchor="end" transform="translate(97.7 160.24)"><tspan> 0.0001</tspan></text></g><g fill="none" stroke="currentColor" color="#000"><path stroke="#000" d="M106.09 134.25h4.5m-4.5-5.78h4.5m-4.5-3.47h4.5m-4.5-2.49h4.5m-4.5-1.95h4.5m-4.5-1.59h4.5m-4.5-1.35h4.5m-4.5-1.18h4.5m-4.5-1.03h9"/><text fill="#000" stroke="none" font-family="Arial" font-size="12" text-anchor="end" transform="translate(97.7 119.31)"><tspan> 0.01</tspan></text></g><g fill="none" stroke="currentColor" color="#000"><path stroke="#000" d="M106.09 93.32h4.5m-4.5-5.78h4.5m-4.5-3.48h4.5m-4.5-2.49h4.5m-4.5-1.94h4.5m-4.5-1.59h4.5m-4.5-1.36h4.5m-4.5-1.17h4.5m-4.5-1.03h9"/><text fill="#000" stroke="none" font-family="Arial" font-size="12" text-anchor="end" transform="translate(97.7 78.38)"><tspan> 1</tspan></text></g><g fill="none" stroke="currentColor" color="#000"><path stroke="#000" d="M119.55 422.4v-4.5m.45 4.5v-4.5m.26 4.5v-4.5m.19 4.5v-4.5m.14 4.5v-4.5m.12 4.5v-4.5m.1 4.5v-4.5m.08 4.5v-4.5m.08 4.5v-9"/><text fill="#000" stroke="none" font-family="Arial" font-size="12" text-anchor="middle" transform="translate(120.97 444.3)"><tspan> 1</tspan></text></g><g fill="none" stroke="currentColor" color="#000"><path stroke="#000" d="M193.95 422.4v-4.5m.45 4.5v-4.5m.26 4.5v-4.5m.19 4.5v-4.5m.14 4.5v-4.5m.12 4.5v-4.5m.1 4.5v-4.5m.09 4.5v-4.5m.07 4.5v-9"/><text fill="#000" stroke="none" font-family="Arial" font-size="12" text-anchor="middle" transform="translate(195.37 444.3)"><tspan> 1x10</tspan><tspan dy="-6" font-size="9.6">50</tspan></text></g><g fill="none" stroke="currentColor" color="#000"><path stroke="#000" d="M268.35 422.4v-4.5m.45 4.5v-4.5m.26 4.5v-4.5m.19 4.5v-4.5m.14 4.5v-4.5m.12 4.5v-4.5m.1 4.5v-4.5m.09 4.5v-4.5m.07 4.5v-9"/><text fill="#000" stroke="none" font-family="Arial" font-size="12" text-anchor="middle" transform="translate(269.77 444.3)"><tspan> 1x10</tspan><tspan dy="-6" font-size="9.6">100</tspan></text></g><g fill="none" stroke="currentColor" color="#000"><path stroke="#000" d="M342.76 422.4v-4.5m.44 4.5v-4.5m.27 4.5v-4.5m.18 4.5v-4.5m.15 4.5v-4.5m.11 4.5v-4.5m.1 4.5v-4.5m.09 4.5v-4.5m.08 4.5v-9"/><text fill="#000" stroke="none" font-family="Arial" font-size="12" text-anchor="middle" transform="translate(344.18 444.3)"><tspan> 1x10</tspan><tspan dy="-6" font-size="9.6">150</tspan></text></g><g fill="none" stroke="currentColor" color="#000"><path stroke="#000" d="M417.16 422.4v-4.5m.44 4.5v-4.5m.27 4.5v-4.5m.18 4.5v-4.5m.15 4.5v-4.5m.11 4.5v-4.5m.1 4.5v-4.5m.09 4.5v-4.5m.08 4.5v-9"/><text fill="#000" stroke="none" font-family="Arial" font-size="12" text-anchor="middle" transform="translate(418.58 444.3)"><tspan> 1x10</tspan><tspan dy="-6" font-size="9.6">200</tspan></text></g><g fill="none" stroke="currentColor" color="#000"><path stroke="#000" d="M491.56 422.4v-4.5m.45 4.5v-4.5m.26 4.5v-4.5m.18 4.5v-4.5m.15 4.5v-4.5m.12 4.5v-4.5m.1 4.5v-4.5m.08 4.5v-4.5m.08 4.5v-9"/><text fill="#000" stroke="none" font-family="Arial" font-size="12" text-anchor="middle" transform="translate(492.98 444.3)"><tspan> 1x10</tspan><tspan dy="-6" font-size="9.6">250</tspan></text></g><g fill="none" stroke="currentColor" color="#000"><path stroke="#000" d="M565.96 422.4v-4.5m.45 4.5v-4.5m.26 4.5v-4.5m.19 4.5v-4.5m.14 4.5v-4.5m.12 4.5v-4.5m.1 4.5v-4.5m.08 4.5v-4.5m.08 4.5v-9"/><text fill="#000" stroke="none" font-family="Arial" font-size="12" text-anchor="middle" transform="translate(567.38 444.3)"><tspan> 1x10</tspan><tspan dy="-6" font-size="9.6">300</tspan></text></g><path fill="none" stroke="#000" d="M106.09 54.01V422.4h468.73V54.01z" color="#000"/><text color="#000" font-family="Arial" font-size="12" text-anchor="end" transform="translate(507.09 242.11)"><tspan>NaiveSum</tspan></text><g fill="none" stroke="currentColor" color="#3CFF0F"><use xlink:href="#b" transform="matrix(.9 0 0 .9 121.68 376.36)"/><use xlink:href="#b" transform="matrix(.9 0 0 .9 121.68 375.31)"/><use xlink:href="#b" transform="matrix(.9 0 0 .9 121.68 376.36)"/><use xlink:href="#b" transform="matrix(.9 0 0 .9 121.68 394.84)"/><use xlink:href="#b" transform="matrix(.9 0 0 .9 122.94 356.85)"/><use xlink:href="#b" transform="matrix(.9 0 0 .9 122.94 354.25)"/><use xlink:href="#b" transform="matrix(.9 0 0 .9 122.94 359.43)"/><use xlink:href="#b" transform="matrix(.9 0 0 .9 122.94 362.34)"/><use xlink:href="#b" transform="matrix(.9 0 0 .9 124.4 351.76)"/><use xlink:href="#b" transform="matrix(.9 0 0 .9 124.4 337.35)"/><use xlink:href="#b" transform="matrix(.9 0 0 .9 124.4 335.6)"/><use xlink:href="#b" transform="matrix(.9 0 0 .9 124.4 333.92)"/><use xlink:href="#b" transform="matrix(.9 0 0 .9 125.88 340.12)"/><use xlink:href="#b" transform="matrix(.9 0 0 .9 125.88 319.25)"/><use xlink:href="#b" transform="matrix(.9 0 0 .9 125.88 323.98)"/><use xlink:href="#b" transform="matrix(.9 0 0 .9 125.88 341.76)"/><use xlink:href="#b" transform="matrix(.9 0 0 .9 127.37 317.2)"/><use xlink:href="#b" transform="matrix(.9 0 0 .9 127.37 304.16)"/><use xlink:href="#b" transform="matrix(.9 0 0 .9 127.37 292.67)"/><use xlink:href="#b" transform="matrix(.9 0 0 .9 127.37 302.15)"/><use xlink:href="#b" transform="matrix(.9 0 0 .9 128.86 271.46)"/><use xlink:href="#b" transform="matrix(.9 0 0 .9 128.86 290.06)"/><use xlink:href="#b" transform="matrix(.9 0 0 .9 128.86 276.71)"/><use xlink:href="#b" transform="matrix(.9 0 0 .9 128.86 275.09)"/><use xlink:href="#b" transform="matrix(.9 0 0 .9 130.35 272.06)"/><use xlink:href="#b" transform="matrix(.9 0 0 .9 130.35 271.59)"/><use xlink:href="#b" transform="matrix(.9 0 0 .9 130.35 262.12)"/><use xlink:href="#b" transform="matrix(.9 0 0 .9 130.35 258.46)"/><use xlink:href="#b" transform="matrix(.9 0 0 .9 131.83 230)"/><use xlink:href="#b" transform="matrix(.9 0 0 .9 131.83 237.18)"/><use xlink:href="#b" transform="matrix(.9 0 0 .9 131.83 245.59)"/><use xlink:href="#b" transform="matrix(.9 0 0 .9 131.83 234.59)"/><use xlink:href="#b" transform="matrix(.9 0 0 .9 136.48 179.4)"/><use xlink:href="#b" transform="matrix(.9 0 0 .9 136.48 172.01)"/><use xlink:href="#b" transform="matrix(.9 0 0 .9 136.47 185.68)"/><use xlink:href="#b" transform="matrix(.9 0 0 .9 136.45 192.62)"/><use xlink:href="#b" transform="matrix(.9 0 0 .9 137.91 158.11)"/><use xlink:href="#b" transform="matrix(.9 0 0 .9 137.96 151.32)"/><use xlink:href="#b" transform="matrix(.9 0 0 .9 137.93 165.81)"/><use xlink:href="#b" transform="matrix(.9 0 0 .9 137.91 152.85)"/><use xlink:href="#b" transform="matrix(.9 0 0 .9 139.41 147.32)"/><use xlink:href="#b" transform="matrix(.9 0 0 .9 139.41 132.21)"/><use xlink:href="#b" transform="matrix(.9 0 0 .9 139.39 140.28)"/><use xlink:href="#b" transform="matrix(.9 0 0 .9 139.46 134.64)"/><use xlink:href="#b" transform="matrix(.9 0 0 .9 140.88 117.52)"/><use xlink:href="#b" transform="matrix(.9 0 0 .9 140.94 110.75)"/><use xlink:href="#b" transform="matrix(.9 0 0 .9 140.9 139)"/><use xlink:href="#b" transform="matrix(.9 0 0 .9 140.94 149.7)"/><use xlink:href="#b" transform="matrix(.9 0 0 .9 142.37 100.62)"/><use xlink:href="#b" transform="matrix(.9 0 0 .9 142.38 96.64)"/><use xlink:href="#b" transform="matrix(.9 0 0 .9 142.39 93.48)"/><use xlink:href="#b" transform="matrix(.9 0 0 .9 142.38 95.17)"/><use xlink:href="#b" transform="matrix(.9 0 0 .9 143.9 88.85)"/><use xlink:href="#b" transform="matrix(.9 0 0 .9 143.89 96.69)"/><use xlink:href="#b" transform="matrix(.9 0 0 .9 143.88 74.48)"/><use xlink:href="#b" transform="matrix(.9 0 0 .9 146.34 75.81)"/><use xlink:href="#b" transform="matrix(.9 0 0 .9 147.91 74.48)"/><use xlink:href="#b" transform="matrix(.9 0 0 .9 152.4 74.48)"/><use xlink:href="#b" transform="matrix(.9 0 0 .9 158.15 74.48)"/><use xlink:href="#b" transform="matrix(.9 0 0 .9 164.02 74.48)"/><use xlink:href="#b" transform="matrix(.9 0 0 .9 169.77 74.48)"/><use xlink:href="#b" transform="matrix(.9 0 0 .9 174.28 74.48)"/><use xlink:href="#b" transform="matrix(.9 0 0 .9 180.09 74.48)"/><use xlink:href="#b" transform="matrix(.9 0 0 .9 184.61 74.48)"/><use xlink:href="#b" transform="matrix(.9 0 0 .9 190.39 74.48)"/><use xlink:href="#b" transform="matrix(.9 0 0 .9 194.86 74.48)"/><use xlink:href="#b" transform="matrix(.9 0 0 .9 200.58 74.48)"/><use xlink:href="#b" transform="matrix(.9 0 0 .9 205.16 74.48)"/><use xlink:href="#b" transform="matrix(.9 0 0 .9 211.12 74.48)"/><use xlink:href="#b" transform="matrix(.9 0 0 .9 216.93 74.48)"/><use xlink:href="#b" transform="matrix(.9 0 0 .9 222.81 74.48)"/><use xlink:href="#b" transform="matrix(.9 0 0 .9 227.29 74.48)"/><use xlink:href="#b" transform="matrix(.9 0 0 .9 231.82 74.48)"/><use xlink:href="#b" transform="matrix(.9 0 0 .9 236.28 74.48)"/><use xlink:href="#b" transform="matrix(.9 0 0 .9 242.05 74.48)"/><use xlink:href="#b" transform="matrix(.9 0 0 .9 246.59 74.48)"/><use xlink:href="#b" transform="matrix(.9 0 0 .9 251.07 74.48)"/><use xlink:href="#b" transform="matrix(.9 0 0 .9 255.54 74.48)"/><use xlink:href="#b" transform="matrix(.9 0 0 .9 261.39 74.48)"/><use xlink:href="#b" transform="matrix(.9 0 0 .9 267.27 74.48)"/><use xlink:href="#b" transform="matrix(.9 0 0 .9 271.76 74.48)"/><use xlink:href="#b" transform="matrix(.9 0 0 .9 276.3 74.48)"/><use xlink:href="#b" transform="matrix(.9 0 0 .9 282.32 74.48)"/><use xlink:href="#b" transform="matrix(.9 0 0 .9 288.1 74.48)"/><use xlink:href="#b" transform="matrix(.9 0 0 .9 292.6 74.48)"/><use xlink:href="#b" transform="matrix(.9 0 0 .9 298.42 74.48)"/><use xlink:href="#b" transform="matrix(.9 0 0 .9 302.89 74.48)"/><use xlink:href="#b" transform="matrix(.9 0 0 .9 308.77 74.48)"/><use xlink:href="#b" transform="matrix(.9 0 0 .9 313.23 74.48)"/><use xlink:href="#b" transform="matrix(.9 0 0 .9 319.15 74.48)"/><use xlink:href="#b" transform="matrix(.9 0 0 .9 323.66 74.48)"/><use xlink:href="#b" transform="matrix(.9 0 0 .9 328.16 74.48)"/><use xlink:href="#b" transform="matrix(.9 0 0 .9 334.09 74.48)"/><use xlink:href="#b" transform="matrix(.9 0 0 .9 339.96 74.48)"/><use xlink:href="#b" transform="matrix(.9 0 0 .9 345.97 74.48)"/><use xlink:href="#b" transform="matrix(.9 0 0 .9 351.8 74.48)"/><use xlink:href="#b" transform="matrix(.9 0 0 .9 357.79 74.48)"/><use xlink:href="#b" transform="matrix(.9 0 0 .9 362.36 74.48)"/><use xlink:href="#b" transform="matrix(.9 0 0 .9 366.84 74.48)"/><use xlink:href="#b" transform="matrix(.9 0 0 .9 372.61 74.48)"/><use xlink:href="#b" transform="matrix(.9 0 0 .9 377.16 74.48)"/><use xlink:href="#b" transform="matrix(.9 0 0 .9 383.05 74.48)"/><use xlink:href="#b" transform="matrix(.9 0 0 .9 388.98 74.48)"/><use xlink:href="#b" transform="matrix(.9 0 0 .9 393.48 74.48)"/><use xlink:href="#b" transform="matrix(.9 0 0 .9 399.36 74.48)"/><use xlink:href="#b" transform="matrix(.9 0 0 .9 403.83 74.48)"/><use xlink:href="#b" transform="matrix(.9 0 0 .9 408.37 74.48)"/><use xlink:href="#b" transform="matrix(.9 0 0 .9 412.83 74.48)"/><use xlink:href="#b" transform="matrix(.9 0 0 .9 418.61 74.48)"/><use xlink:href="#b" transform="matrix(.9 0 0 .9 423.24 74.48)"/><use xlink:href="#b" transform="matrix(.9 0 0 .9 428.94 74.48)"/><use xlink:href="#b" transform="matrix(.9 0 0 .9 433.41 74.48)"/><use xlink:href="#b" transform="matrix(.9 0 0 .9 438.15 74.48)"/><use xlink:href="#b" transform="matrix(.9 0 0 .9 443.99 74.48)"/><use xlink:href="#b" transform="matrix(.9 0 0 .9 449.74 74.48)"/><use xlink:href="#b" transform="matrix(.9 0 0 .9 454.28 74.48)"/><use xlink:href="#b" transform="matrix(.9 0 0 .9 458.84 74.48)"/><use xlink:href="#b" transform="matrix(.9 0 0 .9 464.86 74.48)"/><use xlink:href="#b" transform="matrix(.9 0 0 .9 470.45 74.48)"/><use xlink:href="#b" transform="matrix(.9 0 0 .9 475.2 74.48)"/><use xlink:href="#b" transform="matrix(.9 0 0 .9 480.74 74.48)"/><use xlink:href="#b" transform="matrix(.9 0 0 .9 485.58 74.48)"/><use xlink:href="#b" transform="matrix(.9 0 0 .9 491.33 74.48)"/><use xlink:href="#b" transform="matrix(.9 0 0 .9 495.9 74.48)"/><use xlink:href="#b" transform="matrix(.9 0 0 .9 500.48 74.48)"/><use xlink:href="#b" transform="matrix(.9 0 0 .9 504.97 74.48)"/><use xlink:href="#b" transform="matrix(.9 0 0 .9 510.84 74.48)"/><use xlink:href="#b" transform="matrix(.9 0 0 .9 516.68 74.48)"/><use xlink:href="#b" transform="matrix(.9 0 0 .9 521.23 74.48)"/><use xlink:href="#b" transform="matrix(.9 0 0 .9 525.72 74.48)"/><use xlink:href="#b" transform="matrix(.9 0 0 .9 530.21 74.48)"/><use xlink:href="#b" transform="matrix(.9 0 0 .9 535.94 74.48)"/><use xlink:href="#b" transform="matrix(.9 0 0 .9 536.76 238.21)"/></g><g fill="none" stroke="currentColor" color="#000"><path stroke="#000" d="M106.09 54.01V422.4h468.73V54.01z"/><text fill="#000" stroke="none" font-family="Arial" font-size="12" text-anchor="middle" transform="rotate(-90 128.695 109.515)"><tspan>relative error</tspan></text></g><text color="#000" font-family="Arial" font-size="12" text-anchor="middle" transform="translate(340.45 471.3)"><tspan>condition number</tspan></text><text color="#000" font-family="Arial" font-size="12" text-anchor="middle" transform="translate(340.45 30.91)"><tspan>NaiveSum, double precision</tspan></text></svg>