<svg xmlns="http://www.w3.org/2000/svg" xmlns:xlink="http://www.w3.org/1999/xlink" viewBox="0 0 600 480"><desc>Produced by GNUPLOT 6.0 patchlevel 1</desc><path fill="none" d="M0 0h600v480H0z"/><defs><circle id="a" cx="0" cy="0" r="1" stroke="currentColor" stroke-width=".222"/><use xlink:href="#a" id="b" fill="currentColor" stroke="none"/></defs><g fill="none" stroke="currentColor" color="#000"><path stroke="#000" d="M106.09 420.78h4.5m-4.5-5.78h4.5m-4.5-3.48h4.5m-4.5-2.49h4.5m-4.5-1.94h4.5m-4.5-1.6h4.5m-4.5-1.35h4.5m-4.5-1.17h4.5m-4.5-1.04h9"/><text fill="#000" stroke="none" font-family="Arial" font-size="12" text-anchor="end" transform="translate(97.7 405.83)"><tspan> 1x10</tspan><tspan dy="-6" font-size="9.6">-16</tspan></text></g><g fill="none" stroke="currentColor" color="#000"><path stroke="#000" d="M106.09 379.85h4.5m-4.5-5.79h4.5m-4.5-3.47h4.5m-4.5-2.49h4.5m-4.5-1.94h4.5m-4.5-1.6h4.5m-4.5-1.35h4.5m-4.5-1.17h4.5m-4.5-1.04h9"/><text fill="#000" stroke="none" font-family="Arial" font-size="12" text-anchor="end" transform="translate(97.7 364.9)"><tspan> 1x10</tspan><tspan dy="-6" font-size="9.6">-14</tspan></text></g><g fill="none" stroke="currentColor" color="#000"><path stroke="#000" d="M106.09 338.92h4.5m-4.5-5.79h4.5m-4.5-3.47h4.5m-4.5-2.49h4.5m-4.5-1.95h4.5m-4.5-1.59h4.5m-4.5-1.35h4.5m-4.5-1.17h4.5m-4.5-1.04h9"/><text fill="#000" stroke="none" font-family="Arial" font-size="12" text-anchor="end" transform="translate(97.7 323.97)"><tspan> 1x10</tspan><tspan dy="-6" font-size="9.6">-12</tspan></text></g><g fill="none" stroke="currentColor" color="#000"><path stroke="#000" d="M106.09 297.98h4.5m-4.5-5.78h4.5m-4.5-3.47h4.5m-4.5-2.5h4.5m-4.5-1.94h4.5m-4.5-1.59h4.5m-4.5-1.35h4.5m-4.5-1.18h4.5m-4.5-1.03h9"/><text fill="#000" stroke="none" font-family="Arial" font-size="12" text-anchor="end" transform="translate(97.7 283.04)"><tspan> 1x10</tspan><tspan dy="-6" font-size="9.6">-10</tspan></text></g><g fill="none" stroke="currentColor" color="#000"><path stroke="#000" d="M106.09 257.05h4.5m-4.5-5.78h4.5m-4.5-3.48h4.5m-4.5-2.49h4.5m-4.5-1.94h4.5m-4.5-1.6h4.5m-4.5-1.35h4.5m-4.5-1.17h4.5m-4.5-1.04h9"/><text fill="#000" stroke="none" font-family="Arial" font-size="12" text-anchor="end" transform="translate(97.7 242.1)"><tspan> 1x10</tspan><tspan dy="-6" font-size="9.6">-8</tspan></text></g><g fill="none" stroke="currentColor" color="#000"><path stroke="#000" d="M106.09 216.12h4.5m-4.5-5.78h4.5m-4.5-3.48h4.5m-4.5-2.49h4.5m-4.5-1.94h4.5m-4.5-1.6h4.5m-4.5-1.35h4.5m-4.5-1.17h4.5m-4.5-1.04h9"/><text fill="#000" stroke="none" font-family="Arial" font-size="12" text-anchor="end" transform="translate(97.7 201.17)"><tspan> 1x10</tspan><tspan dy="-6" font-size="9.6">-6</tspan></text></g><g fill="none" stroke="currentColor" color="#000"><path stroke="#000" d="M106.09 175.19h4.5m-4.5-5.79h4.5m-4.5-3.47h4.5m-4.5-2.49h4.5m-4.5-1.95h4.5m-4.5-1.59h4.5m-4.5-1.35h4.5m-4.5-1.17h4.5m-4.5-1.04h9"/><text fill="#000" stroke="none" font-family="Arial" font-size="12" text-anchor="end" transform="translate(97.7 160.24)"><tspan> 0.0001</tspan></text></g><g fill="none" stroke="currentColor" color="#000"><path stroke="#000" d="M106.09 134.25h4.5m-4.5-5.78h4.5m-4.5-3.47h4.5m-4.5-2.49h4.5m-4.5-1.95h4.5m-4.5-1.59h4.5m-4.5-1.35h4.5m-4.5-1.18h4.5m-4.5-1.03h9"/><text fill="#000" stroke="none" font-family="Arial" font-size="12" text-anchor="end" transform="translate(97.7 119.31)"><tspan> 0.01</tspan></text></g><g fill="none" stroke="currentColor" color="#000"><path stroke="#000" d="M106.09 93.32h4.5m-4.5-5.78h4.5m-4.5-3.48h4.5m-4.5-2.49h4.5m-4.5-1.94h4.5m-4.5-1.59h4.5m-4.5-1.36h4.5m-4.5-1.17h4.5m-4.5-1.03h9"/><text fill="#000" stroke="none" font-family="Arial" font-size="12" text-anchor="end" transform="translate(97.7 78.38)"><tspan> 1</tspan></text></g><g fill="none" stroke="currentColor" color="#000"><path stroke="#000" d="M119.55 422.4v-4.5m.45 4.5v-4.5m.26 4.5v-4.5m.19 4.5v-4.5m.14 4.5v-4.5m.12 4.5v-4.5m.1 4.5v-4.5m.08 4.5v-4.5m.08 4.5v-9"/><text fill="#000" stroke="none" font-family="Arial" font-size="12" text-anchor="middle" transform="translate(120.97 444.3)"><tspan> 1</tspan></text></g><g fill="none" stroke="currentColor" color="#000"><path stroke="#000" d="M193.95 422.4v-4.5m.45 4.5v-4.5m.26 4.5v-4.5m.19 4.5v-4.5m.14 4.5v-4.5m.12 4.5v-4.5m.1 4.5v-4.5m.09 4.5v-4.5m.07 4.5v-9"/><text fill="#000" stroke="none" font-family="Arial" font-size="12" text-anchor="middle" transform="translate(195.37 444.3)"><tspan> 1x10</tspan><tspan dy="-6" font-size="9.6">50</tspan></text></g><g fill="none" stroke="currentColor" color="#000"><path stroke="#000" d="M268.35 422.4v-4.5m.45 4.5v-4.5m.26 4.5v-4.5m.19 4.5v-4.5m.14 4.5v-4.5m.12 4.5v-4.5m.1 4.5v-4.5m.09 4.5v-4.5m.07 4.5v-9"/><text fill="#000" stroke="none" font-family="Arial" font-size="12" text-anchor="middle" transform="translate(269.77 444.3)"><tspan> 1x10</tspan><tspan dy="-6" font-size="9.6">100</tspan></text></g><g fill="none" stroke="currentColor" color="#000"><path stroke="#000" d="M342.76 422.4v-4.5m.44 4.5v-4.5m.27 4.5v-4.5m.18 4.5v-4.5m.15 4.5v-4.5m.11 4.5v-4.5m.1 4.5v-4.5m.09 4.5v-4.5m.08 4.5v-9"/><text fill="#000" stroke="none" font-family="Arial" font-size="12" text-anchor="middle" transform="translate(344.18 444.3)"><tspan> 1x10</tspan><tspan dy="-6" font-size="9.6">150</tspan></text></g><g fill="none" stroke="currentColor" color="#000"><path stroke="#000" d="M417.16 422.4v-4.5m.44 4.5v-4.5m.27 4.5v-4.5m.18 4.5v-4.5m.15 4.5v-4.5m.11 4.5v-4.5m.1 4.5v-4.5m.09 4.5v-4.5m.08 4.5v-9"/><text fill="#000" stroke="none" font-family="Arial" font-size="12" text-anchor="middle" transform="translate(418.58 444.3)"><tspan> 1x10</tspan><tspan dy="-6" font-size="9.6">200</tspan></text></g><g fill="none" stroke="currentColor" color="#000"><path stroke="#000" d="M491.56 422.4v-4.5m.45 4.5v-4.5m.26 4.5v-4.5m.18 4.5v-4.5m.15 4.5v-4.5m.12 4.5v-4.5m.1 4.5v-4.5m.08 4.5v-4.5m.08 4.5v-9"/><text fill="#000" stroke="none" font-family="Arial" font-size="12" text-anchor="middle" transform="translate(492.98 444.3)"><tspan> 1x10</tspan><tspan dy="-6" font-size="9.6">250</tspan></text></g><g fill="none" stroke="currentColor" color="#000"><path stroke="#000" d="M565.96 422.4v-4.5m.45 4.5v-4.5m.26 4.5v-4.5m.19 4.5v-4.5m.14 4.5v-4.5m.12 4.5v-4.5m.1 4.5v-4.5m.08 4.5v-4.5m.08 4.5v-9"/><text fill="#000" stroke="none" font-family="Arial" font-size="12" text-anchor="middle" transform="translate(567.38 444.3)"><tspan> 1x10</tspan><tspan dy="-6" font-size="9.6">300</tspan></text></g><path fill="none" stroke="#000" d="M106.09 54.01V422.4h468.73V54.01z" color="#000"/><text color="#000" font-family="Arial" font-size="12" text-anchor="end" transform="translate(507.09 242.11)"><tspan>OnlineExactDot</tspan></text><g fill="none" stroke="currentColor" color="#772E53"><use xlink:href="#b" transform="matrix(.9 0 0 .9 122.13 401.93)"/><use xlink:href="#b" transform="matrix(.9 0 0 .9 127.82 401.93)"/><use xlink:href="#b" transform="matrix(.9 0 0 .9 136.91 401.93)"/><use xlink:href="#b" transform="matrix(.9 0 0 .9 141.38 401.93)"/><use xlink:href="#b" transform="matrix(.9 0 0 .9 146.81 401.93)"/><use xlink:href="#b" transform="matrix(.9 0 0 .9 151.33 401.93)"/><use xlink:href="#b" transform="matrix(.9 0 0 .9 155.79 401.93)"/><use xlink:href="#b" transform="matrix(.9 0 0 .9 161.45 401.93)"/><use xlink:href="#b" transform="matrix(.9 0 0 .9 165.95 401.93)"/><use xlink:href="#b" transform="matrix(.9 0 0 .9 171.75 401.93)"/><use xlink:href="#b" transform="matrix(.9 0 0 .9 176.23 401.93)"/><use xlink:href="#b" transform="matrix(.9 0 0 .9 181.95 401.93)"/><use xlink:href="#b" transform="matrix(.9 0 0 .9 186.43 401.93)"/><use xlink:href="#b" transform="matrix(.9 0 0 .9 192.32 401.93)"/><use xlink:href="#b" transform="matrix(.9 0 0 .9 196.84 401.93)"/><use xlink:href="#b" transform="matrix(.9 0 0 .9 202.78 401.93)"/><use xlink:href="#b" transform="matrix(.9 0 0 .9 208.63 401.93)"/><use xlink:href="#b" transform="matrix(.9 0 0 .9 214.51 401.93)"/><use xlink:href="#b" transform="matrix(.9 0 0 .9 219.03 401.93)"/><use xlink:href="#b" transform="matrix(.9 0 0 .9 224.71 401.93)"/><use xlink:href="#b" transform="matrix(.9 0 0 .9 229.28 401.93)"/><use xlink:href="#b" transform="matrix(.9 0 0 .9 235.07 401.93)"/><use xlink:href="#b" transform="matrix(.9 0 0 .9 239.63 401.93)"/><use xlink:href="#b" transform="matrix(.9 0 0 .9 244.12 401.93)"/><use xlink:href="#b" transform="matrix(.9 0 0 .9 249.94 401.93)"/><use xlink:href="#b" transform="matrix(.9 0 0 .9 254.46 401.93)"/><use xlink:href="#b" transform="matrix(.9 0 0 .9 259.01 401.93)"/><use xlink:href="#b" transform="matrix(.9 0 0 .9 264.84 401.93)"/><use xlink:href="#b" transform="matrix(.9 0 0 .9 269.3 401.93)"/><use xlink:href="#b" transform="matrix(.9 0 0 .9 273.8 401.93)"/><use xlink:href="#b" transform="matrix(.9 0 0 .9 279.46 401.93)"/><use xlink:href="#b" transform="matrix(.9 0 0 .9 283.96 401.93)"/><use xlink:href="#b" transform="matrix(.9 0 0 .9 288.58 401.93)"/><use xlink:href="#b" transform="matrix(.9 0 0 .9 294.37 401.93)"/><use xlink:href="#b" transform="matrix(.9 0 0 .9 300.23 401.93)"/><use xlink:href="#b" transform="matrix(.9 0 0 .9 304.83 401.93)"/><use xlink:href="#b" transform="matrix(.9 0 0 .9 310.78 401.93)"/><use xlink:href="#b" transform="matrix(.9 0 0 .9 315.25 401.93)"/><use xlink:href="#b" transform="matrix(.9 0 0 .9 321.2 401.93)"/><use xlink:href="#b" transform="matrix(.9 0 0 .9 327.06 401.93)"/><use xlink:href="#b" transform="matrix(.9 0 0 .9 331.57 401.93)"/><use xlink:href="#b" transform="matrix(.9 0 0 .9 337.39 401.93)"/><use xlink:href="#b" transform="matrix(.9 0 0 .9 341.89 401.93)"/><use xlink:href="#b" transform="matrix(.9 0 0 .9 347.94 401.93)"/><use xlink:href="#b" transform="matrix(.9 0 0 .9 353.73 401.93)"/><use xlink:href="#b" transform="matrix(.9 0 0 .9 358.21 401.93)"/><use xlink:href="#b" transform="matrix(.9 0 0 .9 362.78 401.93)"/><use xlink:href="#b" transform="matrix(.9 0 0 .9 368.54 401.93)"/><use xlink:href="#b" transform="matrix(.9 0 0 .9 374.41 401.93)"/><use xlink:href="#b" transform="matrix(.9 0 0 .9 379.03 401.93)"/><use xlink:href="#b" transform="matrix(.9 0 0 .9 384.89 401.93)"/><use xlink:href="#b" transform="matrix(.9 0 0 .9 389.49 401.93)"/><use xlink:href="#b" transform="matrix(.9 0 0 .9 395.32 401.93)"/><use xlink:href="#b" transform="matrix(.9 0 0 .9 399.85 401.93)"/><use xlink:href="#b" transform="matrix(.9 0 0 .9 404.36 401.93)"/><use xlink:href="#b" transform="matrix(.9 0 0 .9 408.87 401.93)"/><use xlink:href="#b" transform="matrix(.9 0 0 .9 414.74 401.93)"/><use xlink:href="#b" transform="matrix(.9 0 0 .9 420.59 401.93)"/><use xlink:href="#b" transform="matrix(.9 0 0 .9 425.06 401.93)"/><use xlink:href="#b" transform="matrix(.9 0 0 .9 429.57 401.93)"/><use xlink:href="#b" transform="matrix(.9 0 0 .9 435.44 401.93)"/><use xlink:href="#b" transform="matrix(.9 0 0 .9 439.96 401.93)"/><use xlink:href="#b" transform="matrix(.9 0 0 .9 445.87 401.93)"/><use xlink:href="#b" transform="matrix(.9 0 0 .9 450.39 401.93)"/><use xlink:href="#b" transform="matrix(.9 0 0 .9 456.1 401.93)"/><use xlink:href="#b" transform="matrix(.9 0 0 .9 460.81 401.93)"/><use xlink:href="#b" transform="matrix(.9 0 0 .9 465.3 401.93)"/><use xlink:href="#b" transform="matrix(.9 0 0 .9 470.93 401.93)"/><use xlink:href="#b" transform="matrix(.9 0 0 .9 475.6 401.93)"/><use xlink:href="#b" transform="matrix(.9 0 0 .9 480.1 401.93)"/><use xlink:href="#b" transform="matrix(.9 0 0 .9 484.63 401.93)"/><use xlink:href="#b" transform="matrix(.9 0 0 .9 490.47 401.93)"/><use xlink:href="#b" transform="matrix(.9 0 0 .9 494.95 401.93)"/><use xlink:href="#b" transform="matrix(.9 0 0 .9 499.55 401.93)"/><use xlink:href="#b" transform="matrix(.9 0 0 .9 505.17 401.93)"/><use xlink:href="#b" transform="matrix(.9 0 0 .9 509.88 401.93)"/><use xlink:href="#b" transform="matrix(.9 0 0 .9 515.79 401.93)"/><use xlink:href="#b" transform="matrix(.9 0 0 .9 521.57 401.93)"/><use xlink:href="#b" transform="matrix(.9 0 0 .9 526.15 401.93)"/><use xlink:href="#b" transform="matrix(.9 0 0 .9 530.69 401.93)"/><use xlink:href="#b" transform="matrix(.9 0 0 .9 536.38 401.93)"/><use xlink:href="#b" transform="matrix(.9 0 0 .9 541.08 401.93)"/><use xlink:href="#b" transform="matrix(.9 0 0 .9 546.77 401.93)"/><use xlink:href="#b" transform="matrix(.9 0 0 .9 551.33 401.93)"/><use xlink:href="#b" transform="matrix(.9 0 0 .9 555.85 401.93)"/><use xlink:href="#b" transform="matrix(.9 0 0 .9 560.36 401.93)"/><use xlink:href="#b" transform="matrix(.9 0 0 .9 566.11 401.93)"/><use xlink:href="#b" transform="matrix(.9 0 0 .9 536.76 238.21)"/></g><g fill="none" stroke="currentColor" color="#000"><path stroke="#000" d="M106.09 54.01V422.4h468.73V54.01z"/><text fill="#000" stroke="none" font-family="Arial" font-size="12" text-anchor="middle" transform="rotate(-90 128.695 109.515)"><tspan>relative error</tspan></text></g><text color="#000" font-family="Arial" font-size="12" text-anchor="middle" transform="translate(340.45 471.3)"><tspan>condition number</tspan></text><text color="#000" font-family="Arial" font-size="12" text-anchor="middle" transform="translate(340.45 30.91)"><tspan>OnlineExactDot, double precision</tspan></text></svg>