<svg xmlns="http://www.w3.org/2000/svg" xmlns:xlink="http://www.w3.org/1999/xlink" viewBox="0 0 600 480"><desc>Produced by GNUPLOT 6.0 patchlevel 1</desc><path fill="none" d="M0 0h600v480H0z"/><defs><circle id="a" cx="0" cy="0" r="1" stroke="currentColor" stroke-width=".222"/><use xlink:href="#a" id="b" fill="currentColor" stroke="none"/></defs><g fill="none" stroke="currentColor" color="#000"><path stroke="#000" d="M106.09 420.78h4.5m-4.5-5.78h4.5m-4.5-3.48h4.5m-4.5-2.49h4.5m-4.5-1.94h4.5m-4.5-1.6h4.5m-4.5-1.35h4.5m-4.5-1.17h4.5m-4.5-1.04h9"/><text fill="#000" stroke="none" font-family="Arial" font-size="12" text-anchor="end" transform="translate(97.7 405.83)"><tspan> 1x10</tspan><tspan dy="-6" font-size="9.6">-16</tspan></text></g><g fill="none" stroke="currentColor" color="#000"><path stroke="#000" d="M106.09 379.85h4.5m-4.5-5.79h4.5m-4.5-3.47h4.5m-4.5-2.49h4.5m-4.5-1.94h4.5m-4.5-1.6h4.5m-4.5-1.35h4.5m-4.5-1.17h4.5m-4.5-1.04h9"/><text fill="#000" stroke="none" font-family="Arial" font-size="12" text-anchor="end" transform="translate(97.7 364.9)"><tspan> 1x10</tspan><tspan dy="-6" font-size="9.6">-14</tspan></text></g><g fill="none" stroke="currentColor" color="#000"><path stroke="#000" d="M106.09 338.92h4.5m-4.5-5.79h4.5m-4.5-3.47h4.5m-4.5-2.49h4.5m-4.5-1.95h4.5m-4.5-1.59h4.5m-4.5-1.35h4.5m-4.5-1.17h4.5m-4.5-1.04h9"/><text fill="#000" stroke="none" font-family="Arial" font-size="12" text-anchor="end" transform="translate(97.7 323.97)"><tspan> 1x10</tspan><tspan dy="-6" font-size="9.6">-12</tspan></text></g><g fill="none" stroke="currentColor" color="#000"><path stroke="#000" d="M106.09 297.98h4.5m-4.5-5.78h4.5m-4.5-3.47h4.5m-4.5-2.5h4.5m-4.5-1.94h4.5m-4.5-1.59h4.5m-4.5-1.35h4.5m-4.5-1.18h4.5m-4.5-1.03h9"/><text fill="#000" stroke="none" font-family="Arial" font-size="12" text-anchor="end" transform="translate(97.7 283.04)"><tspan> 1x10</tspan><tspan dy="-6" font-size="9.6">-10</tspan></text></g><g fill="none" stroke="currentColor" color="#000"><path stroke="#000" d="M106.09 257.05h4.5m-4.5-5.78h4.5m-4.5-3.48h4.5m-4.5-2.49h4.5m-4.5-1.94h4.5m-4.5-1.6h4.5m-4.5-1.35h4.5m-4.5-1.17h4.5m-4.5-1.04h9"/><text fill="#000" stroke="none" font-family="Arial" font-size="12" text-anchor="end" transform="translate(97.7 242.1)"><tspan> 1x10</tspan><tspan dy="-6" font-size="9.6">-8</tspan></text></g><g fill="none" stroke="currentColor" color="#000"><path stroke="#000" d="M106.09 216.12h4.5m-4.5-5.78h4.5m-4.5-3.48h4.5m-4.5-2.49h4.5m-4.5-1.94h4.5m-4.5-1.6h4.5m-4.5-1.35h4.5m-4.5-1.17h4.5m-4.5-1.04h9"/><text fill="#000" stroke="none" font-family="Arial" font-size="12" text-anchor="end" transform="translate(97.7 201.17)"><tspan> 1x10</tspan><tspan dy="-6" font-size="9.6">-6</tspan></text></g><g fill="none" stroke="currentColor" color="#000"><path stroke="#000" d="M106.09 175.19h4.5m-4.5-5.79h4.5m-4.5-3.47h4.5m-4.5-2.49h4.5m-4.5-1.95h4.5m-4.5-1.59h4.5m-4.5-1.35h4.5m-4.5-1.17h4.5m-4.5-1.04h9"/><text fill="#000" stroke="none" font-family="Arial" font-size="12" text-anchor="end" transform="translate(97.7 160.24)"><tspan> 0.0001</tspan></text></g><g fill="none" stroke="currentColor" color="#000"><path stroke="#000" d="M106.09 134.25h4.5m-4.5-5.78h4.5m-4.5-3.47h4.5m-4.5-2.49h4.5m-4.5-1.95h4.5m-4.5-1.59h4.5m-4.5-1.35h4.5m-4.5-1.18h4.5m-4.5-1.03h9"/><text fill="#000" stroke="none" font-family="Arial" font-size="12" text-anchor="end" transform="translate(97.7 119.31)"><tspan> 0.01</tspan></text></g><g fill="none" stroke="currentColor" color="#000"><path stroke="#000" d="M106.09 93.32h4.5m-4.5-5.78h4.5m-4.5-3.48h4.5m-4.5-2.49h4.5m-4.5-1.94h4.5m-4.5-1.59h4.5m-4.5-1.36h4.5m-4.5-1.17h4.5m-4.5-1.03h9"/><text fill="#000" stroke="none" font-family="Arial" font-size="12" text-anchor="end" transform="translate(97.7 78.38)"><tspan> 1</tspan></text></g><g fill="none" stroke="currentColor" color="#000"><path stroke="#000" d="M119.55 422.4v-4.5m.45 4.5v-4.5m.26 4.5v-4.5m.19 4.5v-4.5m.14 4.5v-4.5m.12 4.5v-4.5m.1 4.5v-4.5m.08 4.5v-4.5m.08 4.5v-9"/><text fill="#000" stroke="none" font-family="Arial" font-size="12" text-anchor="middle" transform="translate(120.97 444.3)"><tspan> 1</tspan></text></g><g fill="none" stroke="currentColor" color="#000"><path stroke="#000" d="M193.95 422.4v-4.5m.45 4.5v-4.5m.26 4.5v-4.5m.19 4.5v-4.5m.14 4.5v-4.5m.12 4.5v-4.5m.1 4.5v-4.5m.09 4.5v-4.5m.07 4.5v-9"/><text fill="#000" stroke="none" font-family="Arial" font-size="12" text-anchor="middle" transform="translate(195.37 444.3)"><tspan> 1x10</tspan><tspan dy="-6" font-size="9.6">50</tspan></text></g><g fill="none" stroke="currentColor" color="#000"><path stroke="#000" d="M268.35 422.4v-4.5m.45 4.5v-4.5m.26 4.5v-4.5m.19 4.5v-4.5m.14 4.5v-4.5m.12 4.5v-4.5m.1 4.5v-4.5m.09 4.5v-4.5m.07 4.5v-9"/><text fill="#000" stroke="none" font-family="Arial" font-size="12" text-anchor="middle" transform="translate(269.77 444.3)"><tspan> 1x10</tspan><tspan dy="-6" font-size="9.6">100</tspan></text></g><g fill="none" stroke="currentColor" color="#000"><path stroke="#000" d="M342.76 422.4v-4.5m.44 4.5v-4.5m.27 4.5v-4.5m.18 4.5v-4.5m.15 4.5v-4.5m.11 4.5v-4.5m.1 4.5v-4.5m.09 4.5v-4.5m.08 4.5v-9"/><text fill="#000" stroke="none" font-family="Arial" font-size="12" text-anchor="middle" transform="translate(344.18 444.3)"><tspan> 1x10</tspan><tspan dy="-6" font-size="9.6">150</tspan></text></g><g fill="none" stroke="currentColor" color="#000"><path stroke="#000" d="M417.16 422.4v-4.5m.44 4.5v-4.5m.27 4.5v-4.5m.18 4.5v-4.5m.15 4.5v-4.5m.11 4.5v-4.5m.1 4.5v-4.5m.09 4.5v-4.5m.08 4.5v-9"/><text fill="#000" stroke="none" font-family="Arial" font-size="12" text-anchor="middle" transform="translate(418.58 444.3)"><tspan> 1x10</tspan><tspan dy="-6" font-size="9.6">200</tspan></text></g><g fill="none" stroke="currentColor" color="#000"><path stroke="#000" d="M491.56 422.4v-4.5m.45 4.5v-4.5m.26 4.5v-4.5m.18 4.5v-4.5m.15 4.5v-4.5m.12 4.5v-4.5m.1 4.5v-4.5m.08 4.5v-4.5m.08 4.5v-9"/><text fill="#000" stroke="none" font-family="Arial" font-size="12" text-anchor="middle" transform="translate(492.98 444.3)"><tspan> 1x10</tspan><tspan dy="-6" font-size="9.6">250</tspan></text></g><g fill="none" stroke="currentColor" color="#000"><path stroke="#000" d="M565.96 422.4v-4.5m.45 4.5v-4.5m.26 4.5v-4.5m.19 4.5v-4.5m.14 4.5v-4.5m.12 4.5v-4.5m.1 4.5v-4.5m.08 4.5v-4.5m.08 4.5v-9"/><text fill="#000" stroke="none" font-family="Arial" font-size="12" text-anchor="middle" transform="translate(567.38 444.3)"><tspan> 1x10</tspan><tspan dy="-6" font-size="9.6">300</tspan></text></g><path fill="none" stroke="#000" d="M106.09 54.01V422.4h468.73V54.01z" color="#000"/><text color="#000" font-family="Arial" font-size="12" text-anchor="end" transform="translate(507.09 170.11)"><tspan>NaiveSum</tspan></text><g fill="none" stroke="currentColor" color="#D08403"><use xlink:href="#b" transform="matrix(.9 0 0 .9 121.68 376.36)"/><use xlink:href="#b" transform="matrix(.9 0 0 .9 121.68 375.31)"/><use xlink:href="#b" transform="matrix(.9 0 0 .9 121.68 376.36)"/><use xlink:href="#b" transform="matrix(.9 0 0 .9 121.68 394.84)"/><use xlink:href="#b" transform="matrix(.9 0 0 .9 122.94 356.85)"/><use xlink:href="#b" transform="matrix(.9 0 0 .9 122.94 354.25)"/><use xlink:href="#b" transform="matrix(.9 0 0 .9 122.94 359.43)"/><use xlink:href="#b" transform="matrix(.9 0 0 .9 122.94 362.34)"/><use xlink:href="#b" transform="matrix(.9 0 0 .9 124.4 351.76)"/><use xlink:href="#b" transform="matrix(.9 0 0 .9 124.4 337.35)"/><use xlink:href="#b" transform="matrix(.9 0 0 .9 124.4 335.6)"/><use xlink:href="#b" transform="matrix(.9 0 0 .9 124.4 333.92)"/><use xlink:href="#b" transform="matrix(.9 0 0 .9 125.88 340.12)"/><use xlink:href="#b" transform="matrix(.9 0 0 .9 125.88 319.25)"/><use xlink:href="#b" transform="matrix(.9 0 0 .9 125.88 323.98)"/><use xlink:href="#b" transform="matrix(.9 0 0 .9 125.88 341.76)"/><use xlink:href="#b" transform="matrix(.9 0 0 .9 127.37 317.2)"/><use xlink:href="#b" transform="matrix(.9 0 0 .9 127.37 304.16)"/><use xlink:href="#b" transform="matrix(.9 0 0 .9 127.37 292.67)"/><use xlink:href="#b" transform="matrix(.9 0 0 .9 127.37 302.15)"/><use xlink:href="#b" transform="matrix(.9 0 0 .9 128.86 271.46)"/><use xlink:href="#b" transform="matrix(.9 0 0 .9 128.86 290.06)"/><use xlink:href="#b" transform="matrix(.9 0 0 .9 128.86 276.71)"/><use xlink:href="#b" transform="matrix(.9 0 0 .9 128.86 275.09)"/><use xlink:href="#b" transform="matrix(.9 0 0 .9 130.35 272.06)"/><use xlink:href="#b" transform="matrix(.9 0 0 .9 130.35 271.59)"/><use xlink:href="#b" transform="matrix(.9 0 0 .9 130.35 262.12)"/><use xlink:href="#b" transform="matrix(.9 0 0 .9 130.35 258.46)"/><use xlink:href="#b" transform="matrix(.9 0 0 .9 131.83 230)"/><use xlink:href="#b" transform="matrix(.9 0 0 .9 131.83 237.18)"/><use xlink:href="#b" transform="matrix(.9 0 0 .9 131.83 245.59)"/><use xlink:href="#b" transform="matrix(.9 0 0 .9 131.83 234.59)"/><use xlink:href="#b" transform="matrix(.9 0 0 .9 136.48 179.4)"/><use xlink:href="#b" transform="matrix(.9 0 0 .9 136.48 172.01)"/><use xlink:href="#b" transform="matrix(.9 0 0 .9 136.47 185.68)"/><use xlink:href="#b" transform="matrix(.9 0 0 .9 136.45 192.62)"/><use xlink:href="#b" transform="matrix(.9 0 0 .9 137.91 158.11)"/><use xlink:href="#b" transform="matrix(.9 0 0 .9 137.96 151.32)"/><use xlink:href="#b" transform="matrix(.9 0 0 .9 137.93 165.81)"/><use xlink:href="#b" transform="matrix(.9 0 0 .9 137.91 152.85)"/><use xlink:href="#b" transform="matrix(.9 0 0 .9 139.41 147.32)"/><use xlink:href="#b" transform="matrix(.9 0 0 .9 139.41 132.21)"/><use xlink:href="#b" transform="matrix(.9 0 0 .9 139.39 140.28)"/><use xlink:href="#b" transform="matrix(.9 0 0 .9 139.46 134.64)"/><use xlink:href="#b" transform="matrix(.9 0 0 .9 140.88 117.52)"/><use xlink:href="#b" transform="matrix(.9 0 0 .9 140.94 110.75)"/><use xlink:href="#b" transform="matrix(.9 0 0 .9 140.9 139)"/><use xlink:href="#b" transform="matrix(.9 0 0 .9 140.94 149.7)"/><use xlink:href="#b" transform="matrix(.9 0 0 .9 142.37 100.62)"/><use xlink:href="#b" transform="matrix(.9 0 0 .9 142.38 96.64)"/><use xlink:href="#b" transform="matrix(.9 0 0 .9 142.39 93.48)"/><use xlink:href="#b" transform="matrix(.9 0 0 .9 142.38 95.17)"/><use xlink:href="#b" transform="matrix(.9 0 0 .9 143.9 88.85)"/><use xlink:href="#b" transform="matrix(.9 0 0 .9 143.89 96.69)"/><use xlink:href="#b" transform="matrix(.9 0 0 .9 143.88 74.48)"/><use xlink:href="#b" transform="matrix(.9 0 0 .9 146.34 75.81)"/><use xlink:href="#b" transform="matrix(.9 0 0 .9 147.91 74.48)"/><use xlink:href="#b" transform="matrix(.9 0 0 .9 152.4 74.48)"/><use xlink:href="#b" transform="matrix(.9 0 0 .9 158.15 74.48)"/><use xlink:href="#b" transform="matrix(.9 0 0 .9 164.02 74.48)"/><use xlink:href="#b" transform="matrix(.9 0 0 .9 169.77 74.48)"/><use xlink:href="#b" transform="matrix(.9 0 0 .9 174.28 74.48)"/><use xlink:href="#b" transform="matrix(.9 0 0 .9 180.09 74.48)"/><use xlink:href="#b" transform="matrix(.9 0 0 .9 184.61 74.48)"/><use xlink:href="#b" transform="matrix(.9 0 0 .9 190.39 74.48)"/><use xlink:href="#b" transform="matrix(.9 0 0 .9 194.86 74.48)"/><use xlink:href="#b" transform="matrix(.9 0 0 .9 200.58 74.48)"/><use xlink:href="#b" transform="matrix(.9 0 0 .9 205.16 74.48)"/><use xlink:href="#b" transform="matrix(.9 0 0 .9 211.12 74.48)"/><use xlink:href="#b" transform="matrix(.9 0 0 .9 216.93 74.48)"/><use xlink:href="#b" transform="matrix(.9 0 0 .9 222.81 74.48)"/><use xlink:href="#b" transform="matrix(.9 0 0 .9 227.29 74.48)"/><use xlink:href="#b" transform="matrix(.9 0 0 .9 231.82 74.48)"/><use xlink:href="#b" transform="matrix(.9 0 0 .9 236.28 74.48)"/><use xlink:href="#b" transform="matrix(.9 0 0 .9 242.05 74.48)"/><use xlink:href="#b" transform="matrix(.9 0 0 .9 246.59 74.48)"/><use xlink:href="#b" transform="matrix(.9 0 0 .9 251.07 74.48)"/><use xlink:href="#b" transform="matrix(.9 0 0 .9 255.54 74.48)"/><use xlink:href="#b" transform="matrix(.9 0 0 .9 261.39 74.48)"/><use xlink:href="#b" transform="matrix(.9 0 0 .9 267.27 74.48)"/><use xlink:href="#b" transform="matrix(.9 0 0 .9 271.76 74.48)"/><use xlink:href="#b" transform="matrix(.9 0 0 .9 276.3 74.48)"/><use xlink:href="#b" transform="matrix(.9 0 0 .9 282.32 74.48)"/><use xlink:href="#b" transform="matrix(.9 0 0 .9 288.1 74.48)"/><use xlink:href="#b" transform="matrix(.9 0 0 .9 292.6 74.48)"/><use xlink:href="#b" transform="matrix(.9 0 0 .9 298.42 74.48)"/><use xlink:href="#b" transform="matrix(.9 0 0 .9 302.89 74.48)"/><use xlink:href="#b" transform="matrix(.9 0 0 .9 308.77 74.48)"/><use xlink:href="#b" transform="matrix(.9 0 0 .9 313.23 74.48)"/><use xlink:href="#b" transform="matrix(.9 0 0 .9 319.15 74.48)"/><use xlink:href="#b" transform="matrix(.9 0 0 .9 323.66 74.48)"/><use xlink:href="#b" transform="matrix(.9 0 0 .9 328.16 74.48)"/><use xlink:href="#b" transform="matrix(.9 0 0 .9 334.09 74.48)"/><use xlink:href="#b" transform="matrix(.9 0 0 .9 339.96 74.48)"/><use xlink:href="#b" transform="matrix(.9 0 0 .9 345.97 74.48)"/><use xlink:href="#b" transform="matrix(.9 0 0 .9 351.8 74.48)"/><use xlink:href="#b" transform="matrix(.9 0 0 .9 357.79 74.48)"/><use xlink:href="#b" transform="matrix(.9 0 0 .9 362.36 74.48)"/><use xlink:href="#b" transform="matrix(.9 0 0 .9 366.84 74.48)"/><use xlink:href="#b" transform="matrix(.9 0 0 .9 372.61 74.48)"/><use xlink:href="#b" transform="matrix(.9 0 0 .9 377.16 74.48)"/><use xlink:href="#b" transform="matrix(.9 0 0 .9 383.05 74.48)"/><use xlink:href="#b" transform="matrix(.9 0 0 .9 388.98 74.48)"/><use xlink:href="#b" transform="matrix(.9 0 0 .9 393.48 74.48)"/><use xlink:href="#b" transform="matrix(.9 0 0 .9 399.36 74.48)"/><use xlink:href="#b" transform="matrix(.9 0 0 .9 403.83 74.48)"/><use xlink:href="#b" transform="matrix(.9 0 0 .9 408.37 74.48)"/><use xlink:href="#b" transform="matrix(.9 0 0 .9 412.83 74.48)"/><use xlink:href="#b" transform="matrix(.9 0 0 .9 418.61 74.48)"/><use xlink:href="#b" transform="matrix(.9 0 0 .9 423.24 74.48)"/><use xlink:href="#b" transform="matrix(.9 0 0 .9 428.94 74.48)"/><use xlink:href="#b" transform="matrix(.9 0 0 .9 433.41 74.48)"/><use xlink:href="#b" transform="matrix(.9 0 0 .9 438.15 74.48)"/><use xlink:href="#b" transform="matrix(.9 0 0 .9 443.99 74.48)"/><use xlink:href="#b" transform="matrix(.9 0 0 .9 449.74 74.48)"/><use xlink:href="#b" transform="matrix(.9 0 0 .9 454.28 74.48)"/><use xlink:href="#b" transform="matrix(.9 0 0 .9 458.84 74.48)"/><use xlink:href="#b" transform="matrix(.9 0 0 .9 464.86 74.48)"/><use xlink:href="#b" transform="matrix(.9 0 0 .9 470.45 74.48)"/><use xlink:href="#b" transform="matrix(.9 0 0 .9 475.2 74.48)"/><use xlink:href="#b" transform="matrix(.9 0 0 .9 480.74 74.48)"/><use xlink:href="#b" transform="matrix(.9 0 0 .9 485.58 74.48)"/><use xlink:href="#b" transform="matrix(.9 0 0 .9 491.33 74.48)"/><use xlink:href="#b" transform="matrix(.9 0 0 .9 495.9 74.48)"/><use xlink:href="#b" transform="matrix(.9 0 0 .9 500.48 74.48)"/><use xlink:href="#b" transform="matrix(.9 0 0 .9 504.97 74.48)"/><use xlink:href="#b" transform="matrix(.9 0 0 .9 510.84 74.48)"/><use xlink:href="#b" transform="matrix(.9 0 0 .9 516.68 74.48)"/><use xlink:href="#b" transform="matrix(.9 0 0 .9 521.23 74.48)"/><use xlink:href="#b" transform="matrix(.9 0 0 .9 525.72 74.48)"/><use xlink:href="#b" transform="matrix(.9 0 0 .9 530.21 74.48)"/><use xlink:href="#b" transform="matrix(.9 0 0 .9 535.94 74.48)"/><use xlink:href="#b" transform="matrix(.9 0 0 .9 536.76 166.21)"/></g><text color="#000" font-family="Arial" font-size="12" text-anchor="end" transform="translate(507.09 188.11)"><tspan>Sum2</tspan></text><g fill="none" stroke="currentColor" color="#70133B"><use xlink:href="#b" transform="matrix(.9 0 0 .9 121.68 401.93)"/><use xlink:href="#b" transform="matrix(.9 0 0 .9 127.37 401.93)"/><use xlink:href="#b" transform="matrix(.9 0 0 .9 136.48 401.93)"/><use xlink:href="#b" transform="matrix(.9 0 0 .9 142.37 401.93)"/><use xlink:href="#b" transform="matrix(.9 0 0 .9 143.89 380.33)"/><use xlink:href="#b" transform="matrix(.9 0 0 .9 143.88 376.41)"/><use xlink:href="#b" transform="matrix(.9 0 0 .9 145.36 361.06)"/><use xlink:href="#b" transform="matrix(.9 0 0 .9 145.39 363.66)"/><use xlink:href="#b" transform="matrix(.9 0 0 .9 145.38 354.41)"/><use xlink:href="#b" transform="matrix(.9 0 0 .9 145.34 361.95)"/><use xlink:href="#b" transform="matrix(.9 0 0 .9 146.42 362.68)"/><use xlink:href="#b" transform="matrix(.9 0 0 .9 146.44 334.1)"/><use xlink:href="#b" transform="matrix(.9 0 0 .9 146.43 350.25)"/><use xlink:href="#b" transform="matrix(.9 0 0 .9 146.34 357.06)"/><use xlink:href="#b" transform="matrix(.9 0 0 .9 147.91 323.21)"/><use xlink:href="#b" transform="matrix(.9 0 0 .9 147.95 362.57)"/><use xlink:href="#b" transform="matrix(.9 0 0 .9 147.88 343.52)"/><use xlink:href="#b" transform="matrix(.9 0 0 .9 147.88 339.08)"/><use xlink:href="#b" transform="matrix(.9 0 0 .9 149.39 307.92)"/><use xlink:href="#b" transform="matrix(.9 0 0 .9 149.43 309.36)"/><use xlink:href="#b" transform="matrix(.9 0 0 .9 149.37 321.92)"/><use xlink:href="#b" transform="matrix(.9 0 0 .9 149.36 303.44)"/><use xlink:href="#b" transform="matrix(.9 0 0 .9 150.9 279.91)"/><use xlink:href="#b" transform="matrix(.9 0 0 .9 150.88 290.38)"/><use xlink:href="#b" transform="matrix(.9 0 0 .9 150.91 286.76)"/><use xlink:href="#b" transform="matrix(.9 0 0 .9 150.84 291.95)"/><use xlink:href="#b" transform="matrix(.9 0 0 .9 152.33 257.97)"/><use xlink:href="#b" transform="matrix(.9 0 0 .9 152.3 273.91)"/><use xlink:href="#b" transform="matrix(.9 0 0 .9 152.28 292.49)"/><use xlink:href="#b" transform="matrix(.9 0 0 .9 152.4 269.57)"/><use xlink:href="#b" transform="matrix(.9 0 0 .9 153.84 243.52)"/><use xlink:href="#b" transform="matrix(.9 0 0 .9 153.85 238.28)"/><use xlink:href="#b" transform="matrix(.9 0 0 .9 153.89 248.85)"/><use xlink:href="#b" transform="matrix(.9 0 0 .9 153.86 253.1)"/><use xlink:href="#b" transform="matrix(.9 0 0 .9 155.28 240.52)"/><use xlink:href="#b" transform="matrix(.9 0 0 .9 155.33 242.05)"/><use xlink:href="#b" transform="matrix(.9 0 0 .9 155.38 236.26)"/><use xlink:href="#b" transform="matrix(.9 0 0 .9 155.35 222.74)"/><use xlink:href="#b" transform="matrix(.9 0 0 .9 156.6 210.69)"/><use xlink:href="#b" transform="matrix(.9 0 0 .9 156.6 218.24)"/><use xlink:href="#b" transform="matrix(.9 0 0 .9 156.57 228.04)"/><use xlink:href="#b" transform="matrix(.9 0 0 .9 156.54 204.85)"/><use xlink:href="#b" transform="matrix(.9 0 0 .9 158.15 183.16)"/><use xlink:href="#b" transform="matrix(.9 0 0 .9 158.03 192.37)"/><use xlink:href="#b" transform="matrix(.9 0 0 .9 158.17 169.7)"/><use xlink:href="#b" transform="matrix(.9 0 0 .9 158.09 203.92)"/><use xlink:href="#b" transform="matrix(.9 0 0 .9 159.51 196.39)"/><use xlink:href="#b" transform="matrix(.9 0 0 .9 159.59 164.02)"/><use xlink:href="#b" transform="matrix(.9 0 0 .9 159.52 184.39)"/><use xlink:href="#b" transform="matrix(.9 0 0 .9 159.61 171.67)"/><use xlink:href="#b" transform="matrix(.9 0 0 .9 161.03 143.31)"/><use xlink:href="#b" transform="matrix(.9 0 0 .9 161.08 141.8)"/><use xlink:href="#b" transform="matrix(.9 0 0 .9 161.02 135.99)"/><use xlink:href="#b" transform="matrix(.9 0 0 .9 160.99 145.07)"/><use xlink:href="#b" transform="matrix(.9 0 0 .9 162.53 129.15)"/><use xlink:href="#b" transform="matrix(.9 0 0 .9 162.5 128.99)"/><use xlink:href="#b" transform="matrix(.9 0 0 .9 162.5 147.33)"/><use xlink:href="#b" transform="matrix(.9 0 0 .9 162.48 111.51)"/><use xlink:href="#b" transform="matrix(.9 0 0 .9 164.02 109.87)"/><use xlink:href="#b" transform="matrix(.9 0 0 .9 163.96 111.2)"/><use xlink:href="#b" transform="matrix(.9 0 0 .9 164.01 96.73)"/><use xlink:href="#b" transform="matrix(.9 0 0 .9 163.97 112.62)"/><use xlink:href="#b" transform="matrix(.9 0 0 .9 165.48 89.18)"/><use xlink:href="#b" transform="matrix(.9 0 0 .9 165.54 85.98)"/><use xlink:href="#b" transform="matrix(.9 0 0 .9 165.59 108.48)"/><use xlink:href="#b" transform="matrix(.9 0 0 .9 165.48 79.66)"/><use xlink:href="#b" transform="matrix(.9 0 0 .9 166.8 74.48)"/><use xlink:href="#b" transform="matrix(.9 0 0 .9 166.79 87.82)"/><use xlink:href="#b" transform="matrix(.9 0 0 .9 166.67 77.85)"/><use xlink:href="#b" transform="matrix(.9 0 0 .9 168.3 74.48)"/><use xlink:href="#b" transform="matrix(.9 0 0 .9 172.85 74.48)"/><use xlink:href="#b" transform="matrix(.9 0 0 .9 177.32 74.48)"/><use xlink:href="#b" transform="matrix(.9 0 0 .9 182.96 74.48)"/><use xlink:href="#b" transform="matrix(.9 0 0 .9 187.47 74.48)"/><use xlink:href="#b" transform="matrix(.9 0 0 .9 193.46 74.48)"/><use xlink:href="#b" transform="matrix(.9 0 0 .9 199.16 74.48)"/><use xlink:href="#b" transform="matrix(.9 0 0 .9 203.72 74.48)"/><use xlink:href="#b" transform="matrix(.9 0 0 .9 208.19 74.48)"/><use xlink:href="#b" transform="matrix(.9 0 0 .9 213.94 74.48)"/><use xlink:href="#b" transform="matrix(.9 0 0 .9 218.46 74.48)"/><use xlink:href="#b" transform="matrix(.9 0 0 .9 224.35 74.48)"/><use xlink:href="#b" transform="matrix(.9 0 0 .9 228.86 74.48)"/><use xlink:href="#b" transform="matrix(.9 0 0 .9 234.67 74.48)"/><use xlink:href="#b" transform="matrix(.9 0 0 .9 239.21 74.48)"/><use xlink:href="#b" transform="matrix(.9 0 0 .9 245.04 74.48)"/><use xlink:href="#b" transform="matrix(.9 0 0 .9 249.62 74.48)"/><use xlink:href="#b" transform="matrix(.9 0 0 .9 254.13 74.48)"/><use xlink:href="#b" transform="matrix(.9 0 0 .9 259.97 74.48)"/><use xlink:href="#b" transform="matrix(.9 0 0 .9 265.77 74.48)"/><use xlink:href="#b" transform="matrix(.9 0 0 .9 270.33 74.48)"/><use xlink:href="#b" transform="matrix(.9 0 0 .9 276.18 74.48)"/><use xlink:href="#b" transform="matrix(.9 0 0 .9 280.66 74.48)"/><use xlink:href="#b" transform="matrix(.9 0 0 .9 285.26 74.48)"/><use xlink:href="#b" transform="matrix(.9 0 0 .9 290.93 74.48)"/><use xlink:href="#b" transform="matrix(.9 0 0 .9 295.5 74.48)"/><use xlink:href="#b" transform="matrix(.9 0 0 .9 299.99 74.48)"/><use xlink:href="#b" transform="matrix(.9 0 0 .9 304.5 74.48)"/><use xlink:href="#b" transform="matrix(.9 0 0 .9 310.08 74.48)"/><use xlink:href="#b" transform="matrix(.9 0 0 .9 314.73 74.48)"/><use xlink:href="#b" transform="matrix(.9 0 0 .9 320.56 74.48)"/><use xlink:href="#b" transform="matrix(.9 0 0 .9 325.18 74.48)"/><use xlink:href="#b" transform="matrix(.9 0 0 .9 331.14 74.48)"/><use xlink:href="#b" transform="matrix(.9 0 0 .9 335.69 74.48)"/><use xlink:href="#b" transform="matrix(.9 0 0 .9 341.27 74.48)"/><use xlink:href="#b" transform="matrix(.9 0 0 .9 345.97 74.48)"/><use xlink:href="#b" transform="matrix(.9 0 0 .9 351.8 74.48)"/><use xlink:href="#b" transform="matrix(.9 0 0 .9 357.79 74.48)"/><use xlink:href="#b" transform="matrix(.9 0 0 .9 362.36 74.48)"/><use xlink:href="#b" transform="matrix(.9 0 0 .9 366.84 74.48)"/><use xlink:href="#b" transform="matrix(.9 0 0 .9 372.61 74.48)"/><use xlink:href="#b" transform="matrix(.9 0 0 .9 377.16 74.48)"/><use xlink:href="#b" transform="matrix(.9 0 0 .9 383.05 74.48)"/><use xlink:href="#b" transform="matrix(.9 0 0 .9 388.98 74.48)"/><use xlink:href="#b" transform="matrix(.9 0 0 .9 393.48 74.48)"/><use xlink:href="#b" transform="matrix(.9 0 0 .9 399.36 74.48)"/><use xlink:href="#b" transform="matrix(.9 0 0 .9 403.83 74.48)"/><use xlink:href="#b" transform="matrix(.9 0 0 .9 408.37 74.48)"/><use xlink:href="#b" transform="matrix(.9 0 0 .9 412.83 74.48)"/><use xlink:href="#b" transform="matrix(.9 0 0 .9 418.61 74.48)"/><use xlink:href="#b" transform="matrix(.9 0 0 .9 423.24 74.48)"/><use xlink:href="#b" transform="matrix(.9 0 0 .9 428.94 74.48)"/><use xlink:href="#b" transform="matrix(.9 0 0 .9 433.41 74.48)"/><use xlink:href="#b" transform="matrix(.9 0 0 .9 438.15 74.48)"/><use xlink:href="#b" transform="matrix(.9 0 0 .9 443.99 74.48)"/><use xlink:href="#b" transform="matrix(.9 0 0 .9 449.74 74.48)"/><use xlink:href="#b" transform="matrix(.9 0 0 .9 454.28 74.48)"/><use xlink:href="#b" transform="matrix(.9 0 0 .9 458.84 74.48)"/><use xlink:href="#b" transform="matrix(.9 0 0 .9 464.86 74.48)"/><use xlink:href="#b" transform="matrix(.9 0 0 .9 470.45 74.48)"/><use xlink:href="#b" transform="matrix(.9 0 0 .9 475.2 74.48)"/><use xlink:href="#b" transform="matrix(.9 0 0 .9 480.74 74.48)"/><use xlink:href="#b" transform="matrix(.9 0 0 .9 485.58 74.48)"/><use xlink:href="#b" transform="matrix(.9 0 0 .9 491.33 74.48)"/><use xlink:href="#b" transform="matrix(.9 0 0 .9 495.9 74.48)"/><use xlink:href="#b" transform="matrix(.9 0 0 .9 500.48 74.48)"/><use xlink:href="#b" transform="matrix(.9 0 0 .9 504.97 74.48)"/><use xlink:href="#b" transform="matrix(.9 0 0 .9 510.84 74.48)"/><use xlink:href="#b" transform="matrix(.9 0 0 .9 516.68 74.48)"/><use xlink:href="#b" transform="matrix(.9 0 0 .9 521.23 74.48)"/><use xlink:href="#b" transform="matrix(.9 0 0 .9 525.72 74.48)"/><use xlink:href="#b" transform="matrix(.9 0 0 .9 530.21 74.48)"/><use xlink:href="#b" transform="matrix(.9 0 0 .9 535.94 74.48)"/><use xlink:href="#b" transform="matrix(.9 0 0 .9 536.76 184.21)"/></g><text color="#000" font-family="Arial" font-size="12" text-anchor="end" transform="translate(507.09 206.11)"><tspan>Sum3</tspan></text><g fill="none" stroke="currentColor" color="#437FFF"><use xlink:href="#b" transform="matrix(.9 0 0 .9 121.68 401.93)"/><use xlink:href="#b" transform="matrix(.9 0 0 .9 127.37 401.93)"/><use xlink:href="#b" transform="matrix(.9 0 0 .9 136.48 401.93)"/><use xlink:href="#b" transform="matrix(.9 0 0 .9 142.37 401.93)"/><use xlink:href="#b" transform="matrix(.9 0 0 .9 147.91 401.93)"/><use xlink:href="#b" transform="matrix(.9 0 0 .9 152.4 401.93)"/><use xlink:href="#b" transform="matrix(.9 0 0 .9 158.15 401.93)"/><use xlink:href="#b" transform="matrix(.9 0 0 .9 164.02 401.93)"/><use xlink:href="#b" transform="matrix(.9 0 0 .9 165.54 400.92)"/><use xlink:href="#b" transform="matrix(.9 0 0 .9 165.48 382.44)"/><use xlink:href="#b" transform="matrix(.9 0 0 .9 166.8 401.93)"/><use xlink:href="#b" transform="matrix(.9 0 0 .9 166.77 374.29)"/><use xlink:href="#b" transform="matrix(.9 0 0 .9 166.79 398.93)"/><use xlink:href="#b" transform="matrix(.9 0 0 .9 166.67 384.63)"/><use xlink:href="#b" transform="matrix(.9 0 0 .9 168.3 364.39)"/><use xlink:href="#b" transform="matrix(.9 0 0 .9 168.3 356.29)"/><use xlink:href="#b" transform="matrix(.9 0 0 .9 168.33 358.11)"/><use xlink:href="#b" transform="matrix(.9 0 0 .9 168.39 356.29)"/><use xlink:href="#b" transform="matrix(.9 0 0 .9 169.77 351.84)"/><use xlink:href="#b" transform="matrix(.9 0 0 .9 169.83 337.54)"/><use xlink:href="#b" transform="matrix(.9 0 0 .9 169.81 340.71)"/><use xlink:href="#b" transform="matrix(.9 0 0 .9 169.85 327.77)"/><use xlink:href="#b" transform="matrix(.9 0 0 .9 171.3 317.25)"/><use xlink:href="#b" transform="matrix(.9 0 0 .9 171.27 318.21)"/><use xlink:href="#b" transform="matrix(.9 0 0 .9 171.33 325.67)"/><use xlink:href="#b" transform="matrix(.9 0 0 .9 171.24 321.32)"/><use xlink:href="#b" transform="matrix(.9 0 0 .9 172.85 295.77)"/><use xlink:href="#b" transform="matrix(.9 0 0 .9 172.8 299.75)"/><use xlink:href="#b" transform="matrix(.9 0 0 .9 172.8 289.19)"/><use xlink:href="#b" transform="matrix(.9 0 0 .9 172.79 296.81)"/><use xlink:href="#b" transform="matrix(.9 0 0 .9 174.23 294.29)"/><use xlink:href="#b" transform="matrix(.9 0 0 .9 174.28 274.01)"/><use xlink:href="#b" transform="matrix(.9 0 0 .9 174.3 273.6)"/><use xlink:href="#b" transform="matrix(.9 0 0 .9 174.29 272.71)"/><use xlink:href="#b" transform="matrix(.9 0 0 .9 175.75 264.93)"/><use xlink:href="#b" transform="matrix(.9 0 0 .9 175.72 251.76)"/><use xlink:href="#b" transform="matrix(.9 0 0 .9 175.8 257.15)"/><use xlink:href="#b" transform="matrix(.9 0 0 .9 175.86 249.3)"/><use xlink:href="#b" transform="matrix(.9 0 0 .9 177.23 264.93)"/><use xlink:href="#b" transform="matrix(.9 0 0 .9 177.25 259.54)"/><use xlink:href="#b" transform="matrix(.9 0 0 .9 177.23 228.34)"/><use xlink:href="#b" transform="matrix(.9 0 0 .9 177.32 231.99)"/><use xlink:href="#b" transform="matrix(.9 0 0 .9 178.5 236.62)"/><use xlink:href="#b" transform="matrix(.9 0 0 .9 178.61 239.24)"/><use xlink:href="#b" transform="matrix(.9 0 0 .9 178.6 221.57)"/><use xlink:href="#b" transform="matrix(.9 0 0 .9 178.62 244.17)"/><use xlink:href="#b" transform="matrix(.9 0 0 .9 180.09 201.44)"/><use xlink:href="#b" transform="matrix(.9 0 0 .9 180 221.57)"/><use xlink:href="#b" transform="matrix(.9 0 0 .9 180.03 203.51)"/><use xlink:href="#b" transform="matrix(.9 0 0 .9 180.06 210.92)"/><use xlink:href="#b" transform="matrix(.9 0 0 .9 181.52 178.58)"/><use xlink:href="#b" transform="matrix(.9 0 0 .9 181.52 187.46)"/><use xlink:href="#b" transform="matrix(.9 0 0 .9 181.52 195.76)"/><use xlink:href="#b" transform="matrix(.9 0 0 .9 181.61 210.92)"/><use xlink:href="#b" transform="matrix(.9 0 0 .9 182.96 176.25)"/><use xlink:href="#b" transform="matrix(.9 0 0 .9 182.95 169.55)"/><use xlink:href="#b" transform="matrix(.9 0 0 .9 183.1 156.37)"/><use xlink:href="#b" transform="matrix(.9 0 0 .9 183.12 151.44)"/><use xlink:href="#b" transform="matrix(.9 0 0 .9 184.61 131.43)"/><use xlink:href="#b" transform="matrix(.9 0 0 .9 184.57 151.28)"/><use xlink:href="#b" transform="matrix(.9 0 0 .9 184.53 153.44)"/><use xlink:href="#b" transform="matrix(.9 0 0 .9 184.48 141.57)"/><use xlink:href="#b" transform="matrix(.9 0 0 .9 186.03 137.07)"/><use xlink:href="#b" transform="matrix(.9 0 0 .9 186.06 125.18)"/><use xlink:href="#b" transform="matrix(.9 0 0 .9 185.99 117.53)"/><use xlink:href="#b" transform="matrix(.9 0 0 .9 186.08 109.18)"/><use xlink:href="#b" transform="matrix(.9 0 0 .9 187.47 87.97)"/><use xlink:href="#b" transform="matrix(.9 0 0 .9 187.48 113.73)"/><use xlink:href="#b" transform="matrix(.9 0 0 .9 187.45 99.79)"/><use xlink:href="#b" transform="matrix(.9 0 0 .9 187.51 95.96)"/><use xlink:href="#b" transform="matrix(.9 0 0 .9 188.88 74.48)"/><use xlink:href="#b" transform="matrix(.9 0 0 .9 188.98 76.22)"/><use xlink:href="#b" transform="matrix(.9 0 0 .9 188.75 85.2)"/><use xlink:href="#b" transform="matrix(.9 0 0 .9 188.88 93.25)"/><use xlink:href="#b" transform="matrix(.9 0 0 .9 190.39 74.48)"/><use xlink:href="#b" transform="matrix(.9 0 0 .9 190.42 82.59)"/><use xlink:href="#b" transform="matrix(.9 0 0 .9 190.4 74.48)"/><use xlink:href="#b" transform="matrix(.9 0 0 .9 196.42 74.48)"/><use xlink:href="#b" transform="matrix(.9 0 0 .9 202.11 74.48)"/><use xlink:href="#b" transform="matrix(.9 0 0 .9 206.64 74.48)"/><use xlink:href="#b" transform="matrix(.9 0 0 .9 211.12 74.48)"/><use xlink:href="#b" transform="matrix(.9 0 0 .9 216.93 74.48)"/><use xlink:href="#b" transform="matrix(.9 0 0 .9 222.81 74.48)"/><use xlink:href="#b" transform="matrix(.9 0 0 .9 227.29 74.48)"/><use xlink:href="#b" transform="matrix(.9 0 0 .9 231.82 74.48)"/><use xlink:href="#b" transform="matrix(.9 0 0 .9 236.28 74.48)"/><use xlink:href="#b" transform="matrix(.9 0 0 .9 242.05 74.48)"/><use xlink:href="#b" transform="matrix(.9 0 0 .9 246.59 74.48)"/><use xlink:href="#b" transform="matrix(.9 0 0 .9 251.07 74.48)"/><use xlink:href="#b" transform="matrix(.9 0 0 .9 255.54 74.48)"/><use xlink:href="#b" transform="matrix(.9 0 0 .9 261.39 74.48)"/><use xlink:href="#b" transform="matrix(.9 0 0 .9 267.27 74.48)"/><use xlink:href="#b" transform="matrix(.9 0 0 .9 271.76 74.48)"/><use xlink:href="#b" transform="matrix(.9 0 0 .9 276.3 74.48)"/><use xlink:href="#b" transform="matrix(.9 0 0 .9 282.32 74.48)"/><use xlink:href="#b" transform="matrix(.9 0 0 .9 288.1 74.48)"/><use xlink:href="#b" transform="matrix(.9 0 0 .9 292.6 74.48)"/><use xlink:href="#b" transform="matrix(.9 0 0 .9 298.42 74.48)"/><use xlink:href="#b" transform="matrix(.9 0 0 .9 302.89 74.48)"/><use xlink:href="#b" transform="matrix(.9 0 0 .9 308.77 74.48)"/><use xlink:href="#b" transform="matrix(.9 0 0 .9 313.23 74.48)"/><use xlink:href="#b" transform="matrix(.9 0 0 .9 319.15 74.48)"/><use xlink:href="#b" transform="matrix(.9 0 0 .9 323.66 74.48)"/><use xlink:href="#b" transform="matrix(.9 0 0 .9 328.16 74.48)"/><use xlink:href="#b" transform="matrix(.9 0 0 .9 334.09 74.48)"/><use xlink:href="#b" transform="matrix(.9 0 0 .9 339.96 74.48)"/><use xlink:href="#b" transform="matrix(.9 0 0 .9 345.97 74.48)"/><use xlink:href="#b" transform="matrix(.9 0 0 .9 351.8 74.48)"/><use xlink:href="#b" transform="matrix(.9 0 0 .9 357.79 74.48)"/><use xlink:href="#b" transform="matrix(.9 0 0 .9 362.36 74.48)"/><use xlink:href="#b" transform="matrix(.9 0 0 .9 366.84 74.48)"/><use xlink:href="#b" transform="matrix(.9 0 0 .9 372.61 74.48)"/><use xlink:href="#b" transform="matrix(.9 0 0 .9 377.16 74.48)"/><use xlink:href="#b" transform="matrix(.9 0 0 .9 383.05 74.48)"/><use xlink:href="#b" transform="matrix(.9 0 0 .9 388.98 74.48)"/><use xlink:href="#b" transform="matrix(.9 0 0 .9 393.48 74.48)"/><use xlink:href="#b" transform="matrix(.9 0 0 .9 399.36 74.48)"/><use xlink:href="#b" transform="matrix(.9 0 0 .9 403.83 74.48)"/><use xlink:href="#b" transform="matrix(.9 0 0 .9 408.37 74.48)"/><use xlink:href="#b" transform="matrix(.9 0 0 .9 412.83 74.48)"/><use xlink:href="#b" transform="matrix(.9 0 0 .9 418.61 74.48)"/><use xlink:href="#b" transform="matrix(.9 0 0 .9 423.24 74.48)"/><use xlink:href="#b" transform="matrix(.9 0 0 .9 428.94 74.48)"/><use xlink:href="#b" transform="matrix(.9 0 0 .9 433.41 74.48)"/><use xlink:href="#b" transform="matrix(.9 0 0 .9 438.15 74.48)"/><use xlink:href="#b" transform="matrix(.9 0 0 .9 443.99 74.48)"/><use xlink:href="#b" transform="matrix(.9 0 0 .9 449.74 74.48)"/><use xlink:href="#b" transform="matrix(.9 0 0 .9 454.28 74.48)"/><use xlink:href="#b" transform="matrix(.9 0 0 .9 458.84 74.48)"/><use xlink:href="#b" transform="matrix(.9 0 0 .9 464.86 74.48)"/><use xlink:href="#b" transform="matrix(.9 0 0 .9 470.45 74.48)"/><use xlink:href="#b" transform="matrix(.9 0 0 .9 475.2 74.48)"/><use xlink:href="#b" transform="matrix(.9 0 0 .9 480.74 74.48)"/><use xlink:href="#b" transform="matrix(.9 0 0 .9 485.58 74.48)"/><use xlink:href="#b" transform="matrix(.9 0 0 .9 491.33 74.48)"/><use xlink:href="#b" transform="matrix(.9 0 0 .9 495.9 74.48)"/><use xlink:href="#b" transform="matrix(.9 0 0 .9 500.48 74.48)"/><use xlink:href="#b" transform="matrix(.9 0 0 .9 504.97 74.48)"/><use xlink:href="#b" transform="matrix(.9 0 0 .9 510.84 74.48)"/><use xlink:href="#b" transform="matrix(.9 0 0 .9 516.68 74.48)"/><use xlink:href="#b" transform="matrix(.9 0 0 .9 521.23 74.48)"/><use xlink:href="#b" transform="matrix(.9 0 0 .9 525.72 74.48)"/><use xlink:href="#b" transform="matrix(.9 0 0 .9 530.21 74.48)"/><use xlink:href="#b" transform="matrix(.9 0 0 .9 535.94 74.48)"/><use xlink:href="#b" transform="matrix(.9 0 0 .9 536.76 202.21)"/></g><text color="#000" font-family="Arial" font-size="12" text-anchor="end" transform="translate(507.09 224.11)"><tspan>Sum4</tspan></text><g fill="none" stroke="currentColor" color="#74B8D7"><use xlink:href="#b" transform="matrix(.9 0 0 .9 121.68 401.93)"/><use xlink:href="#b" transform="matrix(.9 0 0 .9 127.37 401.93)"/><use xlink:href="#b" transform="matrix(.9 0 0 .9 136.48 401.93)"/><use xlink:href="#b" transform="matrix(.9 0 0 .9 142.37 401.93)"/><use xlink:href="#b" transform="matrix(.9 0 0 .9 147.91 401.93)"/><use xlink:href="#b" transform="matrix(.9 0 0 .9 152.4 401.93)"/><use xlink:href="#b" transform="matrix(.9 0 0 .9 158.15 401.93)"/><use xlink:href="#b" transform="matrix(.9 0 0 .9 164.02 401.93)"/><use xlink:href="#b" transform="matrix(.9 0 0 .9 169.77 401.93)"/><use xlink:href="#b" transform="matrix(.9 0 0 .9 174.28 401.93)"/><use xlink:href="#b" transform="matrix(.9 0 0 .9 180.09 401.93)"/><use xlink:href="#b" transform="matrix(.9 0 0 .9 184.61 401.93)"/><use xlink:href="#b" transform="matrix(.9 0 0 .9 188.88 399.99)"/><use xlink:href="#b" transform="matrix(.9 0 0 .9 188.88 393.83)"/><use xlink:href="#b" transform="matrix(.9 0 0 .9 190.39 378.48)"/><use xlink:href="#b" transform="matrix(.9 0 0 .9 190.42 365)"/><use xlink:href="#b" transform="matrix(.9 0 0 .9 190.4 398.01)"/><use xlink:href="#b" transform="matrix(.9 0 0 .9 191.78 350.97)"/><use xlink:href="#b" transform="matrix(.9 0 0 .9 191.84 340.05)"/><use xlink:href="#b" transform="matrix(.9 0 0 .9 191.81 378.73)"/><use xlink:href="#b" transform="matrix(.9 0 0 .9 191.88 355.55)"/><use xlink:href="#b" transform="matrix(.9 0 0 .9 193.46 333.87)"/><use xlink:href="#b" transform="matrix(.9 0 0 .9 193.3 308.08)"/><use xlink:href="#b" transform="matrix(.9 0 0 .9 193.35 335.28)"/><use xlink:href="#b" transform="matrix(.9 0 0 .9 193.3 328.97)"/><use xlink:href="#b" transform="matrix(.9 0 0 .9 194.84 324.37)"/><use xlink:href="#b" transform="matrix(.9 0 0 .9 194.75 322.37)"/><use xlink:href="#b" transform="matrix(.9 0 0 .9 194.86 365.43)"/><use xlink:href="#b" transform="matrix(.9 0 0 .9 194.79 318.17)"/><use xlink:href="#b" transform="matrix(.9 0 0 .9 196.42 297.22)"/><use xlink:href="#b" transform="matrix(.9 0 0 .9 196.32 313.13)"/><use xlink:href="#b" transform="matrix(.9 0 0 .9 196.35 310.42)"/><use xlink:href="#b" transform="matrix(.9 0 0 .9 196.17 298.12)"/><use xlink:href="#b" transform="matrix(.9 0 0 .9 197.83 288.04)"/><use xlink:href="#b" transform="matrix(.9 0 0 .9 197.64 280.3)"/><use xlink:href="#b" transform="matrix(.9 0 0 .9 197.88 271.23)"/><use xlink:href="#b" transform="matrix(.9 0 0 .9 197.86 271.99)"/><use xlink:href="#b" transform="matrix(.9 0 0 .9 199.16 260.84)"/><use xlink:href="#b" transform="matrix(.9 0 0 .9 199.3 265.55)"/><use xlink:href="#b" transform="matrix(.9 0 0 .9 199.18 256.77)"/><use xlink:href="#b" transform="matrix(.9 0 0 .9 199.05 269.21)"/><use xlink:href="#b" transform="matrix(.9 0 0 .9 200.58 243.11)"/><use xlink:href="#b" transform="matrix(.9 0 0 .9 200.63 239.37)"/><use xlink:href="#b" transform="matrix(.9 0 0 .9 200.67 239.27)"/><use xlink:href="#b" transform="matrix(.9 0 0 .9 200.66 252.44)"/><use xlink:href="#b" transform="matrix(.9 0 0 .9 202.11 198.78)"/><use xlink:href="#b" transform="matrix(.9 0 0 .9 202.07 216.69)"/><use xlink:href="#b" transform="matrix(.9 0 0 .9 202.14 205.94)"/><use xlink:href="#b" transform="matrix(.9 0 0 .9 202.2 229.2)"/><use xlink:href="#b" transform="matrix(.9 0 0 .9 203.59 187.11)"/><use xlink:href="#b" transform="matrix(.9 0 0 .9 203.72 195.13)"/><use xlink:href="#b" transform="matrix(.9 0 0 .9 203.66 204.06)"/><use xlink:href="#b" transform="matrix(.9 0 0 .9 203.63 218.76)"/><use xlink:href="#b" transform="matrix(.9 0 0 .9 205.16 158.79)"/><use xlink:href="#b" transform="matrix(.9 0 0 .9 205.17 182.96)"/><use xlink:href="#b" transform="matrix(.9 0 0 .9 205.17 162.76)"/><use xlink:href="#b" transform="matrix(.9 0 0 .9 205.19 157.69)"/><use xlink:href="#b" transform="matrix(.9 0 0 .9 206.55 149.73)"/><use xlink:href="#b" transform="matrix(.9 0 0 .9 206.64 157.69)"/><use xlink:href="#b" transform="matrix(.9 0 0 .9 206.52 179.43)"/><use xlink:href="#b" transform="matrix(.9 0 0 .9 206.58 151.55)"/><use xlink:href="#b" transform="matrix(.9 0 0 .9 208.19 139.05)"/><use xlink:href="#b" transform="matrix(.9 0 0 .9 208.08 164.66)"/><use xlink:href="#b" transform="matrix(.9 0 0 .9 208.09 125.9)"/><use xlink:href="#b" transform="matrix(.9 0 0 .9 208.11 139.56)"/><use xlink:href="#b" transform="matrix(.9 0 0 .9 209.57 109)"/><use xlink:href="#b" transform="matrix(.9 0 0 .9 209.48 124.45)"/><use xlink:href="#b" transform="matrix(.9 0 0 .9 209.46 114.37)"/><use xlink:href="#b" transform="matrix(.9 0 0 .9 209.6 114.94)"/><use xlink:href="#b" transform="matrix(.9 0 0 .9 211.12 83.34)"/><use xlink:href="#b" transform="matrix(.9 0 0 .9 210.95 122.87)"/><use xlink:href="#b" transform="matrix(.9 0 0 .9 211.04 111.24)"/><use xlink:href="#b" transform="matrix(.9 0 0 .9 210.94 104.16)"/><use xlink:href="#b" transform="matrix(.9 0 0 .9 212.59 74.48)"/><use xlink:href="#b" transform="matrix(.9 0 0 .9 212.5 83.13)"/><use xlink:href="#b" transform="matrix(.9 0 0 .9 212.49 76.01)"/><use xlink:href="#b" transform="matrix(.9 0 0 .9 212.53 74.48)"/><use xlink:href="#b" transform="matrix(.9 0 0 .9 218.46 74.48)"/><use xlink:href="#b" transform="matrix(.9 0 0 .9 222.81 80.64)"/><use xlink:href="#b" transform="matrix(.9 0 0 .9 222.74 74.48)"/><use xlink:href="#b" transform="matrix(.9 0 0 .9 227.29 74.48)"/><use xlink:href="#b" transform="matrix(.9 0 0 .9 231.82 74.48)"/><use xlink:href="#b" transform="matrix(.9 0 0 .9 236.28 74.48)"/><use xlink:href="#b" transform="matrix(.9 0 0 .9 242.05 74.48)"/><use xlink:href="#b" transform="matrix(.9 0 0 .9 246.59 74.48)"/><use xlink:href="#b" transform="matrix(.9 0 0 .9 251.07 74.48)"/><use xlink:href="#b" transform="matrix(.9 0 0 .9 255.54 74.48)"/><use xlink:href="#b" transform="matrix(.9 0 0 .9 261.39 74.48)"/><use xlink:href="#b" transform="matrix(.9 0 0 .9 267.27 74.48)"/><use xlink:href="#b" transform="matrix(.9 0 0 .9 271.76 74.48)"/><use xlink:href="#b" transform="matrix(.9 0 0 .9 276.3 74.48)"/><use xlink:href="#b" transform="matrix(.9 0 0 .9 282.32 74.48)"/><use xlink:href="#b" transform="matrix(.9 0 0 .9 288.1 74.48)"/><use xlink:href="#b" transform="matrix(.9 0 0 .9 292.6 74.48)"/><use xlink:href="#b" transform="matrix(.9 0 0 .9 298.42 74.48)"/><use xlink:href="#b" transform="matrix(.9 0 0 .9 302.89 74.48)"/><use xlink:href="#b" transform="matrix(.9 0 0 .9 308.77 74.48)"/><use xlink:href="#b" transform="matrix(.9 0 0 .9 313.23 74.48)"/><use xlink:href="#b" transform="matrix(.9 0 0 .9 319.15 74.48)"/><use xlink:href="#b" transform="matrix(.9 0 0 .9 323.66 74.48)"/><use xlink:href="#b" transform="matrix(.9 0 0 .9 328.16 74.48)"/><use xlink:href="#b" transform="matrix(.9 0 0 .9 334.09 74.48)"/><use xlink:href="#b" transform="matrix(.9 0 0 .9 339.96 74.48)"/><use xlink:href="#b" transform="matrix(.9 0 0 .9 345.97 74.48)"/><use xlink:href="#b" transform="matrix(.9 0 0 .9 351.8 74.48)"/><use xlink:href="#b" transform="matrix(.9 0 0 .9 357.79 74.48)"/><use xlink:href="#b" transform="matrix(.9 0 0 .9 362.36 74.48)"/><use xlink:href="#b" transform="matrix(.9 0 0 .9 366.84 74.48)"/><use xlink:href="#b" transform="matrix(.9 0 0 .9 372.61 74.48)"/><use xlink:href="#b" transform="matrix(.9 0 0 .9 377.16 74.48)"/><use xlink:href="#b" transform="matrix(.9 0 0 .9 383.05 74.48)"/><use xlink:href="#b" transform="matrix(.9 0 0 .9 388.98 74.48)"/><use xlink:href="#b" transform="matrix(.9 0 0 .9 393.48 74.48)"/><use xlink:href="#b" transform="matrix(.9 0 0 .9 399.36 74.48)"/><use xlink:href="#b" transform="matrix(.9 0 0 .9 403.83 74.48)"/><use xlink:href="#b" transform="matrix(.9 0 0 .9 408.37 74.48)"/><use xlink:href="#b" transform="matrix(.9 0 0 .9 409.68 80.64)"/><use xlink:href="#b" transform="matrix(.9 0 0 .9 409.83 74.48)"/><use xlink:href="#b" transform="matrix(.9 0 0 .9 414.3 74.48)"/><use xlink:href="#b" transform="matrix(.9 0 0 .9 420.15 74.48)"/><use xlink:href="#b" transform="matrix(.9 0 0 .9 424.63 74.48)"/><use xlink:href="#b" transform="matrix(.9 0 0 .9 429.17 74.48)"/><use xlink:href="#b" transform="matrix(.9 0 0 .9 435.01 74.48)"/><use xlink:href="#b" transform="matrix(.9 0 0 .9 439.64 74.48)"/><use xlink:href="#b" transform="matrix(.9 0 0 .9 445.24 74.48)"/><use xlink:href="#b" transform="matrix(.9 0 0 .9 449.74 74.48)"/><use xlink:href="#b" transform="matrix(.9 0 0 .9 454.28 74.48)"/><use xlink:href="#b" transform="matrix(.9 0 0 .9 458.84 74.48)"/><use xlink:href="#b" transform="matrix(.9 0 0 .9 464.86 80.64)"/><use xlink:href="#b" transform="matrix(.9 0 0 .9 464.74 74.48)"/><use xlink:href="#b" transform="matrix(.9 0 0 .9 469.27 74.48)"/><use xlink:href="#b" transform="matrix(.9 0 0 .9 475.2 74.48)"/><use xlink:href="#b" transform="matrix(.9 0 0 .9 480.74 74.48)"/><use xlink:href="#b" transform="matrix(.9 0 0 .9 485.58 74.48)"/><use xlink:href="#b" transform="matrix(.9 0 0 .9 491.33 74.48)"/><use xlink:href="#b" transform="matrix(.9 0 0 .9 495.9 74.48)"/><use xlink:href="#b" transform="matrix(.9 0 0 .9 500.48 74.48)"/><use xlink:href="#b" transform="matrix(.9 0 0 .9 504.97 74.48)"/><use xlink:href="#b" transform="matrix(.9 0 0 .9 510.84 74.48)"/><use xlink:href="#b" transform="matrix(.9 0 0 .9 516.68 74.48)"/><use xlink:href="#b" transform="matrix(.9 0 0 .9 521.23 74.48)"/><use xlink:href="#b" transform="matrix(.9 0 0 .9 525.72 74.48)"/><use xlink:href="#b" transform="matrix(.9 0 0 .9 530.21 74.48)"/><use xlink:href="#b" transform="matrix(.9 0 0 .9 535.94 74.48)"/><use xlink:href="#b" transform="matrix(.9 0 0 .9 536.76 220.21)"/></g><text color="#000" font-family="Arial" font-size="12" text-anchor="end" transform="translate(507.09 242.11)"><tspan>Sum5</tspan></text><g fill="none" stroke="currentColor" color="#924F6D"><use xlink:href="#b" transform="matrix(.9 0 0 .9 121.68 401.93)"/><use xlink:href="#b" transform="matrix(.9 0 0 .9 127.37 401.93)"/><use xlink:href="#b" transform="matrix(.9 0 0 .9 136.48 401.93)"/><use xlink:href="#b" transform="matrix(.9 0 0 .9 142.37 401.93)"/><use xlink:href="#b" transform="matrix(.9 0 0 .9 147.91 401.93)"/><use xlink:href="#b" transform="matrix(.9 0 0 .9 152.4 401.93)"/><use xlink:href="#b" transform="matrix(.9 0 0 .9 158.15 401.93)"/><use xlink:href="#b" transform="matrix(.9 0 0 .9 164.02 401.93)"/><use xlink:href="#b" transform="matrix(.9 0 0 .9 169.77 401.93)"/><use xlink:href="#b" transform="matrix(.9 0 0 .9 174.28 401.93)"/><use xlink:href="#b" transform="matrix(.9 0 0 .9 180.09 401.93)"/><use xlink:href="#b" transform="matrix(.9 0 0 .9 184.61 401.93)"/><use xlink:href="#b" transform="matrix(.9 0 0 .9 190.39 401.93)"/><use xlink:href="#b" transform="matrix(.9 0 0 .9 194.86 401.93)"/><use xlink:href="#b" transform="matrix(.9 0 0 .9 200.58 401.93)"/><use xlink:href="#b" transform="matrix(.9 0 0 .9 205.16 401.93)"/><use xlink:href="#b" transform="matrix(.9 0 0 .9 211.12 401.93)"/><use xlink:href="#b" transform="matrix(.9 0 0 .9 212.59 363.12)"/><use xlink:href="#b" transform="matrix(.9 0 0 .9 212.5 399.06)"/><use xlink:href="#b" transform="matrix(.9 0 0 .9 213.94 381.15)"/><use xlink:href="#b" transform="matrix(.9 0 0 .9 214.03 373.62)"/><use xlink:href="#b" transform="matrix(.9 0 0 .9 213.91 371.39)"/><use xlink:href="#b" transform="matrix(.9 0 0 .9 213.93 360.54)"/><use xlink:href="#b" transform="matrix(.9 0 0 .9 215.49 364.29)"/><use xlink:href="#b" transform="matrix(.9 0 0 .9 215.53 352.25)"/><use xlink:href="#b" transform="matrix(.9 0 0 .9 215.49 348.74)"/><use xlink:href="#b" transform="matrix(.9 0 0 .9 215.53 343.18)"/><use xlink:href="#b" transform="matrix(.9 0 0 .9 216.93 337.56)"/><use xlink:href="#b" transform="matrix(.9 0 0 .9 216.94 346.52)"/><use xlink:href="#b" transform="matrix(.9 0 0 .9 216.94 377.18)"/><use xlink:href="#b" transform="matrix(.9 0 0 .9 216.82 349.58)"/><use xlink:href="#b" transform="matrix(.9 0 0 .9 218.46 320.04)"/><use xlink:href="#b" transform="matrix(.9 0 0 .9 218.57 300.19)"/><use xlink:href="#b" transform="matrix(.9 0 0 .9 218.47 320.04)"/><use xlink:href="#b" transform="matrix(.9 0 0 .9 218.53 319.47)"/><use xlink:href="#b" transform="matrix(.9 0 0 .9 219.91 289.24)"/><use xlink:href="#b" transform="matrix(.9 0 0 .9 220.04 287.51)"/><use xlink:href="#b" transform="matrix(.9 0 0 .9 219.93 306.78)"/><use xlink:href="#b" transform="matrix(.9 0 0 .9 220.02 312.1)"/><use xlink:href="#b" transform="matrix(.9 0 0 .9 221.34 289.32)"/><use xlink:href="#b" transform="matrix(.9 0 0 .9 221.28 267.54)"/><use xlink:href="#b" transform="matrix(.9 0 0 .9 221.24 292.13)"/><use xlink:href="#b" transform="matrix(.9 0 0 .9 221.27 279.85)"/><use xlink:href="#b" transform="matrix(.9 0 0 .9 222.81 269.9)"/><use xlink:href="#b" transform="matrix(.9 0 0 .9 222.74 241.03)"/><use xlink:href="#b" transform="matrix(.9 0 0 .9 222.86 232.51)"/><use xlink:href="#b" transform="matrix(.9 0 0 .9 222.79 255.95)"/><use xlink:href="#b" transform="matrix(.9 0 0 .9 224.35 241.45)"/><use xlink:href="#b" transform="matrix(.9 0 0 .9 224.37 217.1)"/><use xlink:href="#b" transform="matrix(.9 0 0 .9 224.4 248.52)"/><use xlink:href="#b" transform="matrix(.9 0 0 .9 224.27 224.92)"/><use xlink:href="#b" transform="matrix(.9 0 0 .9 225.9 216.97)"/><use xlink:href="#b" transform="matrix(.9 0 0 .9 225.9 194.78)"/><use xlink:href="#b" transform="matrix(.9 0 0 .9 225.83 219.75)"/><use xlink:href="#b" transform="matrix(.9 0 0 .9 225.81 224.79)"/><use xlink:href="#b" transform="matrix(.9 0 0 .9 227.29 202.04)"/><use xlink:href="#b" transform="matrix(.9 0 0 .9 227.34 199.59)"/><use xlink:href="#b" transform="matrix(.9 0 0 .9 227.4 201.65)"/><use xlink:href="#b" transform="matrix(.9 0 0 .9 227.4 176.56)"/><use xlink:href="#b" transform="matrix(.9 0 0 .9 228.81 161.49)"/><use xlink:href="#b" transform="matrix(.9 0 0 .9 228.69 184.46)"/><use xlink:href="#b" transform="matrix(.9 0 0 .9 228.86 168.02)"/><use xlink:href="#b" transform="matrix(.9 0 0 .9 228.76 175.16)"/><use xlink:href="#b" transform="matrix(.9 0 0 .9 230.26 143.68)"/><use xlink:href="#b" transform="matrix(.9 0 0 .9 230.22 199.59)"/><use xlink:href="#b" transform="matrix(.9 0 0 .9 230.15 153.42)"/><use xlink:href="#b" transform="matrix(.9 0 0 .9 230.23 165.07)"/><use xlink:href="#b" transform="matrix(.9 0 0 .9 231.63 122.39)"/><use xlink:href="#b" transform="matrix(.9 0 0 .9 231.82 120.04)"/><use xlink:href="#b" transform="matrix(.9 0 0 .9 231.62 129.69)"/><use xlink:href="#b" transform="matrix(.9 0 0 .9 231.6 122.39)"/><use xlink:href="#b" transform="matrix(.9 0 0 .9 233.19 111.53)"/><use xlink:href="#b" transform="matrix(.9 0 0 .9 233.21 121.37)"/><use xlink:href="#b" transform="matrix(.9 0 0 .9 233.26 113.67)"/><use xlink:href="#b" transform="matrix(.9 0 0 .9 233.07 116.64)"/><use xlink:href="#b" transform="matrix(.9 0 0 .9 234.67 74.48)"/><use xlink:href="#b" transform="matrix(.9 0 0 .9 234.69 92.55)"/><use xlink:href="#b" transform="matrix(.9 0 0 .9 234.68 75.08)"/><use xlink:href="#b" transform="matrix(.9 0 0 .9 234.82 94.47)"/><use xlink:href="#b" transform="matrix(.9 0 0 .9 236.28 84.91)"/><use xlink:href="#b" transform="matrix(.9 0 0 .9 236.06 83.03)"/><use xlink:href="#b" transform="matrix(.9 0 0 .9 236.18 74.48)"/><use xlink:href="#b" transform="matrix(.9 0 0 .9 240.72 74.48)"/><use xlink:href="#b" transform="matrix(.9 0 0 .9 246.59 74.48)"/><use xlink:href="#b" transform="matrix(.9 0 0 .9 251.07 74.48)"/><use xlink:href="#b" transform="matrix(.9 0 0 .9 255.54 74.48)"/><use xlink:href="#b" transform="matrix(.9 0 0 .9 261.39 74.48)"/><use xlink:href="#b" transform="matrix(.9 0 0 .9 267.27 74.48)"/><use xlink:href="#b" transform="matrix(.9 0 0 .9 271.76 74.48)"/><use xlink:href="#b" transform="matrix(.9 0 0 .9 276.3 74.48)"/><use xlink:href="#b" transform="matrix(.9 0 0 .9 282.32 74.48)"/><use xlink:href="#b" transform="matrix(.9 0 0 .9 288.1 74.48)"/><use xlink:href="#b" transform="matrix(.9 0 0 .9 292.6 74.48)"/><use xlink:href="#b" transform="matrix(.9 0 0 .9 298.42 74.48)"/><use xlink:href="#b" transform="matrix(.9 0 0 .9 302.89 74.48)"/><use xlink:href="#b" transform="matrix(.9 0 0 .9 308.77 74.48)"/><use xlink:href="#b" transform="matrix(.9 0 0 .9 313.23 74.48)"/><use xlink:href="#b" transform="matrix(.9 0 0 .9 319.15 74.48)"/><use xlink:href="#b" transform="matrix(.9 0 0 .9 323.66 74.48)"/><use xlink:href="#b" transform="matrix(.9 0 0 .9 328.16 74.48)"/><use xlink:href="#b" transform="matrix(.9 0 0 .9 334.09 74.48)"/><use xlink:href="#b" transform="matrix(.9 0 0 .9 339.96 74.48)"/><use xlink:href="#b" transform="matrix(.9 0 0 .9 345.97 74.48)"/><use xlink:href="#b" transform="matrix(.9 0 0 .9 351.8 74.48)"/><use xlink:href="#b" transform="matrix(.9 0 0 .9 357.79 74.48)"/><use xlink:href="#b" transform="matrix(.9 0 0 .9 362.36 74.48)"/><use xlink:href="#b" transform="matrix(.9 0 0 .9 366.84 74.48)"/><use xlink:href="#b" transform="matrix(.9 0 0 .9 372.61 74.48)"/><use xlink:href="#b" transform="matrix(.9 0 0 .9 377.16 74.48)"/><use xlink:href="#b" transform="matrix(.9 0 0 .9 383.05 74.48)"/><use xlink:href="#b" transform="matrix(.9 0 0 .9 388.98 74.48)"/><use xlink:href="#b" transform="matrix(.9 0 0 .9 393.48 74.48)"/><use xlink:href="#b" transform="matrix(.9 0 0 .9 399.36 74.48)"/><use xlink:href="#b" transform="matrix(.9 0 0 .9 403.83 74.48)"/><use xlink:href="#b" transform="matrix(.9 0 0 .9 408.37 74.48)"/><use xlink:href="#b" transform="matrix(.9 0 0 .9 412.83 74.48)"/><use xlink:href="#b" transform="matrix(.9 0 0 .9 418.61 74.48)"/><use xlink:href="#b" transform="matrix(.9 0 0 .9 423.24 74.48)"/><use xlink:href="#b" transform="matrix(.9 0 0 .9 428.94 74.48)"/><use xlink:href="#b" transform="matrix(.9 0 0 .9 433.41 74.48)"/><use xlink:href="#b" transform="matrix(.9 0 0 .9 438.15 74.48)"/><use xlink:href="#b" transform="matrix(.9 0 0 .9 443.99 74.48)"/><use xlink:href="#b" transform="matrix(.9 0 0 .9 449.74 74.48)"/><use xlink:href="#b" transform="matrix(.9 0 0 .9 454.28 74.48)"/><use xlink:href="#b" transform="matrix(.9 0 0 .9 458.84 74.48)"/><use xlink:href="#b" transform="matrix(.9 0 0 .9 464.86 74.48)"/><use xlink:href="#b" transform="matrix(.9 0 0 .9 470.45 74.48)"/><use xlink:href="#b" transform="matrix(.9 0 0 .9 475.2 74.48)"/><use xlink:href="#b" transform="matrix(.9 0 0 .9 480.74 74.48)"/><use xlink:href="#b" transform="matrix(.9 0 0 .9 485.58 74.48)"/><use xlink:href="#b" transform="matrix(.9 0 0 .9 491.33 74.48)"/><use xlink:href="#b" transform="matrix(.9 0 0 .9 495.9 74.48)"/><use xlink:href="#b" transform="matrix(.9 0 0 .9 500.48 74.48)"/><use xlink:href="#b" transform="matrix(.9 0 0 .9 504.97 74.48)"/><use xlink:href="#b" transform="matrix(.9 0 0 .9 510.84 74.48)"/><use xlink:href="#b" transform="matrix(.9 0 0 .9 516.68 74.48)"/><use xlink:href="#b" transform="matrix(.9 0 0 .9 521.23 74.48)"/><use xlink:href="#b" transform="matrix(.9 0 0 .9 525.72 74.48)"/><use xlink:href="#b" transform="matrix(.9 0 0 .9 530.21 74.48)"/><use xlink:href="#b" transform="matrix(.9 0 0 .9 533.03 80.64)"/><use xlink:href="#b" transform="matrix(.9 0 0 .9 533.15 74.48)"/><use xlink:href="#b" transform="matrix(.9 0 0 .9 537.69 74.48)"/><use xlink:href="#b" transform="matrix(.9 0 0 .9 536.76 238.21)"/></g><text color="#000" font-family="Arial" font-size="12" text-anchor="end" transform="translate(507.09 260.11)"><tspan>Sum6</tspan></text><g fill="none" stroke="currentColor" color="#B6CE57"><use xlink:href="#b" transform="matrix(.9 0 0 .9 121.68 401.93)"/><use xlink:href="#b" transform="matrix(.9 0 0 .9 127.37 401.93)"/><use xlink:href="#b" transform="matrix(.9 0 0 .9 136.48 401.93)"/><use xlink:href="#b" transform="matrix(.9 0 0 .9 142.37 401.93)"/><use xlink:href="#b" transform="matrix(.9 0 0 .9 147.91 401.93)"/><use xlink:href="#b" transform="matrix(.9 0 0 .9 152.4 401.93)"/><use xlink:href="#b" transform="matrix(.9 0 0 .9 158.15 401.93)"/><use xlink:href="#b" transform="matrix(.9 0 0 .9 164.02 401.93)"/><use xlink:href="#b" transform="matrix(.9 0 0 .9 169.77 401.93)"/><use xlink:href="#b" transform="matrix(.9 0 0 .9 174.28 401.93)"/><use xlink:href="#b" transform="matrix(.9 0 0 .9 180.09 401.93)"/><use xlink:href="#b" transform="matrix(.9 0 0 .9 184.61 401.93)"/><use xlink:href="#b" transform="matrix(.9 0 0 .9 190.39 401.93)"/><use xlink:href="#b" transform="matrix(.9 0 0 .9 194.86 401.93)"/><use xlink:href="#b" transform="matrix(.9 0 0 .9 200.58 401.93)"/><use xlink:href="#b" transform="matrix(.9 0 0 .9 205.16 401.93)"/><use xlink:href="#b" transform="matrix(.9 0 0 .9 211.12 401.93)"/><use xlink:href="#b" transform="matrix(.9 0 0 .9 216.93 401.93)"/><use xlink:href="#b" transform="matrix(.9 0 0 .9 222.81 401.93)"/><use xlink:href="#b" transform="matrix(.9 0 0 .9 227.29 401.93)"/><use xlink:href="#b" transform="matrix(.9 0 0 .9 231.82 401.93)"/><use xlink:href="#b" transform="matrix(.9 0 0 .9 234.67 390.35)"/><use xlink:href="#b" transform="matrix(.9 0 0 .9 234.69 401.93)"/><use xlink:href="#b" transform="matrix(.9 0 0 .9 234.68 400.11)"/><use xlink:href="#b" transform="matrix(.9 0 0 .9 234.82 401.93)"/><use xlink:href="#b" transform="matrix(.9 0 0 .9 236.28 388.37)"/><use xlink:href="#b" transform="matrix(.9 0 0 .9 236.06 401.93)"/><use xlink:href="#b" transform="matrix(.9 0 0 .9 236.18 391.97)"/><use xlink:href="#b" transform="matrix(.9 0 0 .9 237.63 383.83)"/><use xlink:href="#b" transform="matrix(.9 0 0 .9 237.56 374.06)"/><use xlink:href="#b" transform="matrix(.9 0 0 .9 237.64 375.68)"/><use xlink:href="#b" transform="matrix(.9 0 0 .9 239.21 364.08)"/><use xlink:href="#b" transform="matrix(.9 0 0 .9 239.17 328.78)"/><use xlink:href="#b" transform="matrix(.9 0 0 .9 239.06 364.08)"/><use xlink:href="#b" transform="matrix(.9 0 0 .9 239.22 334.78)"/><use xlink:href="#b" transform="matrix(.9 0 0 .9 240.63 353.86)"/><use xlink:href="#b" transform="matrix(.9 0 0 .9 240.62 325.23)"/><use xlink:href="#b" transform="matrix(.9 0 0 .9 240.72 340.62)"/><use xlink:href="#b" transform="matrix(.9 0 0 .9 240.73 332.31)"/><use xlink:href="#b" transform="matrix(.9 0 0 .9 242.05 306.61)"/><use xlink:href="#b" transform="matrix(.9 0 0 .9 242.08 314.03)"/><use xlink:href="#b" transform="matrix(.9 0 0 .9 242.08 316.59)"/><use xlink:href="#b" transform="matrix(.9 0 0 .9 242.16 301.06)"/><use xlink:href="#b" transform="matrix(.9 0 0 .9 243.61 269.77)"/><use xlink:href="#b" transform="matrix(.9 0 0 .9 243.57 306.61)"/><use xlink:href="#b" transform="matrix(.9 0 0 .9 243.57 284.16)"/><use xlink:href="#b" transform="matrix(.9 0 0 .9 243.53 272.8)"/><use xlink:href="#b" transform="matrix(.9 0 0 .9 245.04 295.4)"/><use xlink:href="#b" transform="matrix(.9 0 0 .9 245.13 268.05)"/><use xlink:href="#b" transform="matrix(.9 0 0 .9 245.06 256.08)"/><use xlink:href="#b" transform="matrix(.9 0 0 .9 245.03 257.16)"/><use xlink:href="#b" transform="matrix(.9 0 0 .9 246.59 236.87)"/><use xlink:href="#b" transform="matrix(.9 0 0 .9 246.41 232.47)"/><use xlink:href="#b" transform="matrix(.9 0 0 .9 246.34 234.79)"/><use xlink:href="#b" transform="matrix(.9 0 0 .9 246.69 235.92)"/><use xlink:href="#b" transform="matrix(.9 0 0 .9 247.96 246.99)"/><use xlink:href="#b" transform="matrix(.9 0 0 .9 247.92 225.39)"/><use xlink:href="#b" transform="matrix(.9 0 0 .9 248 231.6)"/><use xlink:href="#b" transform="matrix(.9 0 0 .9 248 229.39)"/><use xlink:href="#b" transform="matrix(.9 0 0 .9 249.62 196.48)"/><use xlink:href="#b" transform="matrix(.9 0 0 .9 249.55 215.11)"/><use xlink:href="#b" transform="matrix(.9 0 0 .9 249.55 207.24)"/><use xlink:href="#b" transform="matrix(.9 0 0 .9 249.62 212.89)"/><use xlink:href="#b" transform="matrix(.9 0 0 .9 251 189.79)"/><use xlink:href="#b" transform="matrix(.9 0 0 .9 251.07 180.12)"/><use xlink:href="#b" transform="matrix(.9 0 0 .9 251.02 185.37)"/><use xlink:href="#b" transform="matrix(.9 0 0 .9 251.07 175.55)"/><use xlink:href="#b" transform="matrix(.9 0 0 .9 252.39 180.62)"/><use xlink:href="#b" transform="matrix(.9 0 0 .9 252.45 155.9)"/><use xlink:href="#b" transform="matrix(.9 0 0 .9 252.5 171.75)"/><use xlink:href="#b" transform="matrix(.9 0 0 .9 252.5 163.7)"/><use xlink:href="#b" transform="matrix(.9 0 0 .9 253.86 155.27)"/><use xlink:href="#b" transform="matrix(.9 0 0 .9 253.88 158.97)"/><use xlink:href="#b" transform="matrix(.9 0 0 .9 254.13 146.29)"/><use xlink:href="#b" transform="matrix(.9 0 0 .9 253.88 144.34)"/><use xlink:href="#b" transform="matrix(.9 0 0 .9 255.34 137.82)"/><use xlink:href="#b" transform="matrix(.9 0 0 .9 255.48 116.37)"/><use xlink:href="#b" transform="matrix(.9 0 0 .9 255.54 112.05)"/><use xlink:href="#b" transform="matrix(.9 0 0 .9 255.32 105.51)"/><use xlink:href="#b" transform="matrix(.9 0 0 .9 256.77 113.42)"/><use xlink:href="#b" transform="matrix(.9 0 0 .9 256.94 107.1)"/><use xlink:href="#b" transform="matrix(.9 0 0 .9 256.95 91.89)"/><use xlink:href="#b" transform="matrix(.9 0 0 .9 256.95 113.42)"/><use xlink:href="#b" transform="matrix(.9 0 0 .9 258.28 76.02)"/><use xlink:href="#b" transform="matrix(.9 0 0 .9 258.3 79.69)"/><use xlink:href="#b" transform="matrix(.9 0 0 .9 258.55 126.6)"/><use xlink:href="#b" transform="matrix(.9 0 0 .9 258.26 74.48)"/><use xlink:href="#b" transform="matrix(.9 0 0 .9 259.97 80.05)"/><use xlink:href="#b" transform="matrix(.9 0 0 .9 259.96 87.43)"/><use xlink:href="#b" transform="matrix(.9 0 0 .9 259.78 74.48)"/><use xlink:href="#b" transform="matrix(.9 0 0 .9 264.29 74.48)"/><use xlink:href="#b" transform="matrix(.9 0 0 .9 268.78 74.48)"/><use xlink:href="#b" transform="matrix(.9 0 0 .9 273.25 74.48)"/><use xlink:href="#b" transform="matrix(.9 0 0 .9 279.22 74.48)"/><use xlink:href="#b" transform="matrix(.9 0 0 .9 285.08 74.48)"/><use xlink:href="#b" transform="matrix(.9 0 0 .9 289.68 74.48)"/><use xlink:href="#b" transform="matrix(.9 0 0 .9 295.5 74.48)"/><use xlink:href="#b" transform="matrix(.9 0 0 .9 299.99 74.48)"/><use xlink:href="#b" transform="matrix(.9 0 0 .9 304.5 74.48)"/><use xlink:href="#b" transform="matrix(.9 0 0 .9 310.08 74.48)"/><use xlink:href="#b" transform="matrix(.9 0 0 .9 314.73 74.48)"/><use xlink:href="#b" transform="matrix(.9 0 0 .9 320.56 74.48)"/><use xlink:href="#b" transform="matrix(.9 0 0 .9 325.18 74.48)"/><use xlink:href="#b" transform="matrix(.9 0 0 .9 331.14 74.48)"/><use xlink:href="#b" transform="matrix(.9 0 0 .9 335.69 74.48)"/><use xlink:href="#b" transform="matrix(.9 0 0 .9 341.27 74.48)"/><use xlink:href="#b" transform="matrix(.9 0 0 .9 345.97 74.48)"/><use xlink:href="#b" transform="matrix(.9 0 0 .9 351.8 74.48)"/><use xlink:href="#b" transform="matrix(.9 0 0 .9 357.79 74.48)"/><use xlink:href="#b" transform="matrix(.9 0 0 .9 362.36 74.48)"/><use xlink:href="#b" transform="matrix(.9 0 0 .9 366.84 74.48)"/><use xlink:href="#b" transform="matrix(.9 0 0 .9 372.61 74.48)"/><use xlink:href="#b" transform="matrix(.9 0 0 .9 377.16 74.48)"/><use xlink:href="#b" transform="matrix(.9 0 0 .9 383.05 74.48)"/><use xlink:href="#b" transform="matrix(.9 0 0 .9 388.98 74.48)"/><use xlink:href="#b" transform="matrix(.9 0 0 .9 393.48 74.48)"/><use xlink:href="#b" transform="matrix(.9 0 0 .9 399.36 74.48)"/><use xlink:href="#b" transform="matrix(.9 0 0 .9 403.83 74.48)"/><use xlink:href="#b" transform="matrix(.9 0 0 .9 408.37 74.48)"/><use xlink:href="#b" transform="matrix(.9 0 0 .9 412.83 74.48)"/><use xlink:href="#b" transform="matrix(.9 0 0 .9 418.61 74.48)"/><use xlink:href="#b" transform="matrix(.9 0 0 .9 423.24 74.48)"/><use xlink:href="#b" transform="matrix(.9 0 0 .9 428.94 74.48)"/><use xlink:href="#b" transform="matrix(.9 0 0 .9 433.41 74.48)"/><use xlink:href="#b" transform="matrix(.9 0 0 .9 438.15 74.48)"/><use xlink:href="#b" transform="matrix(.9 0 0 .9 443.99 74.48)"/><use xlink:href="#b" transform="matrix(.9 0 0 .9 449.74 74.48)"/><use xlink:href="#b" transform="matrix(.9 0 0 .9 454.28 74.48)"/><use xlink:href="#b" transform="matrix(.9 0 0 .9 458.84 74.48)"/><use xlink:href="#b" transform="matrix(.9 0 0 .9 464.86 74.48)"/><use xlink:href="#b" transform="matrix(.9 0 0 .9 470.45 74.48)"/><use xlink:href="#b" transform="matrix(.9 0 0 .9 475.2 74.48)"/><use xlink:href="#b" transform="matrix(.9 0 0 .9 480.74 74.48)"/><use xlink:href="#b" transform="matrix(.9 0 0 .9 484.06 80.64)"/><use xlink:href="#b" transform="matrix(.9 0 0 .9 485.58 74.48)"/><use xlink:href="#b" transform="matrix(.9 0 0 .9 491.33 74.48)"/><use xlink:href="#b" transform="matrix(.9 0 0 .9 495.9 74.48)"/><use xlink:href="#b" transform="matrix(.9 0 0 .9 500.48 74.48)"/><use xlink:href="#b" transform="matrix(.9 0 0 .9 504.97 74.48)"/><use xlink:href="#b" transform="matrix(.9 0 0 .9 506.42 80.64)"/><use xlink:href="#b" transform="matrix(.9 0 0 .9 506.39 74.48)"/><use xlink:href="#b" transform="matrix(.9 0 0 .9 512.19 74.48)"/><use xlink:href="#b" transform="matrix(.9 0 0 .9 516.68 74.48)"/><use xlink:href="#b" transform="matrix(.9 0 0 .9 521.23 74.48)"/><use xlink:href="#b" transform="matrix(.9 0 0 .9 525.72 74.48)"/><use xlink:href="#b" transform="matrix(.9 0 0 .9 530.21 74.48)"/><use xlink:href="#b" transform="matrix(.9 0 0 .9 535.94 74.48)"/><use xlink:href="#b" transform="matrix(.9 0 0 .9 536.76 256.21)"/></g><text color="#000" font-family="Arial" font-size="12" text-anchor="end" transform="translate(507.09 278.11)"><tspan>Sum7</tspan></text><g fill="none" stroke="currentColor" color="#83F22C"><use xlink:href="#b" transform="matrix(.9 0 0 .9 121.68 401.93)"/><use xlink:href="#b" transform="matrix(.9 0 0 .9 127.37 401.93)"/><use xlink:href="#b" transform="matrix(.9 0 0 .9 136.48 401.93)"/><use xlink:href="#b" transform="matrix(.9 0 0 .9 142.37 401.93)"/><use xlink:href="#b" transform="matrix(.9 0 0 .9 147.91 401.93)"/><use xlink:href="#b" transform="matrix(.9 0 0 .9 152.4 401.93)"/><use xlink:href="#b" transform="matrix(.9 0 0 .9 158.15 401.93)"/><use xlink:href="#b" transform="matrix(.9 0 0 .9 164.02 401.93)"/><use xlink:href="#b" transform="matrix(.9 0 0 .9 169.77 401.93)"/><use xlink:href="#b" transform="matrix(.9 0 0 .9 174.28 401.93)"/><use xlink:href="#b" transform="matrix(.9 0 0 .9 180.09 401.93)"/><use xlink:href="#b" transform="matrix(.9 0 0 .9 184.61 401.93)"/><use xlink:href="#b" transform="matrix(.9 0 0 .9 190.39 401.93)"/><use xlink:href="#b" transform="matrix(.9 0 0 .9 194.86 401.93)"/><use xlink:href="#b" transform="matrix(.9 0 0 .9 200.58 401.93)"/><use xlink:href="#b" transform="matrix(.9 0 0 .9 205.16 401.93)"/><use xlink:href="#b" transform="matrix(.9 0 0 .9 211.12 401.93)"/><use xlink:href="#b" transform="matrix(.9 0 0 .9 216.93 401.93)"/><use xlink:href="#b" transform="matrix(.9 0 0 .9 222.81 401.93)"/><use xlink:href="#b" transform="matrix(.9 0 0 .9 227.29 401.93)"/><use xlink:href="#b" transform="matrix(.9 0 0 .9 231.82 401.93)"/><use xlink:href="#b" transform="matrix(.9 0 0 .9 236.28 401.93)"/><use xlink:href="#b" transform="matrix(.9 0 0 .9 242.05 401.93)"/><use xlink:href="#b" transform="matrix(.9 0 0 .9 246.59 401.93)"/><use xlink:href="#b" transform="matrix(.9 0 0 .9 251.07 401.93)"/><use xlink:href="#b" transform="matrix(.9 0 0 .9 255.54 401.93)"/><use xlink:href="#b" transform="matrix(.9 0 0 .9 258.28 399.18)"/><use xlink:href="#b" transform="matrix(.9 0 0 .9 258.55 401.93)"/><use xlink:href="#b" transform="matrix(.9 0 0 .9 258.26 399.18)"/><use xlink:href="#b" transform="matrix(.9 0 0 .9 259.97 401.93)"/><use xlink:href="#b" transform="matrix(.9 0 0 .9 259.96 397.2)"/><use xlink:href="#b" transform="matrix(.9 0 0 .9 259.78 381.28)"/><use xlink:href="#b" transform="matrix(.9 0 0 .9 259.78 382.9)"/><use xlink:href="#b" transform="matrix(.9 0 0 .9 261.39 374.75)"/><use xlink:href="#b" transform="matrix(.9 0 0 .9 261.6 361.19)"/><use xlink:href="#b" transform="matrix(.9 0 0 .9 261.36 360.45)"/><use xlink:href="#b" transform="matrix(.9 0 0 .9 261.34 350.92)"/><use xlink:href="#b" transform="matrix(.9 0 0 .9 262.86 360.34)"/><use xlink:href="#b" transform="matrix(.9 0 0 .9 262.86 335.96)"/><use xlink:href="#b" transform="matrix(.9 0 0 .9 262.85 349.34)"/><use xlink:href="#b" transform="matrix(.9 0 0 .9 262.8 324.97)"/><use xlink:href="#b" transform="matrix(.9 0 0 .9 264.29 322.27)"/><use xlink:href="#b" transform="matrix(.9 0 0 .9 264.33 305.4)"/><use xlink:href="#b" transform="matrix(.9 0 0 .9 264.11 328.04)"/><use xlink:href="#b" transform="matrix(.9 0 0 .9 264.09 327.37)"/><use xlink:href="#b" transform="matrix(.9 0 0 .9 265.77 294.4)"/><use xlink:href="#b" transform="matrix(.9 0 0 .9 265.66 294.36)"/><use xlink:href="#b" transform="matrix(.9 0 0 .9 265.62 311.98)"/><use xlink:href="#b" transform="matrix(.9 0 0 .9 265.78 304.31)"/><use xlink:href="#b" transform="matrix(.9 0 0 .9 267.27 312.26)"/><use xlink:href="#b" transform="matrix(.9 0 0 .9 267.32 267.14)"/><use xlink:href="#b" transform="matrix(.9 0 0 .9 267.25 304.59)"/><use xlink:href="#b" transform="matrix(.9 0 0 .9 267.21 298.64)"/><use xlink:href="#b" transform="matrix(.9 0 0 .9 268.62 269.79)"/><use xlink:href="#b" transform="matrix(.9 0 0 .9 268.78 253.04)"/><use xlink:href="#b" transform="matrix(.9 0 0 .9 268.68 257.03)"/><use xlink:href="#b" transform="matrix(.9 0 0 .9 268.76 264.45)"/><use xlink:href="#b" transform="matrix(.9 0 0 .9 270.33 246.51)"/><use xlink:href="#b" transform="matrix(.9 0 0 .9 270.2 233.2)"/><use xlink:href="#b" transform="matrix(.9 0 0 .9 270.35 219.97)"/><use xlink:href="#b" transform="matrix(.9 0 0 .9 270.28 238.48)"/><use xlink:href="#b" transform="matrix(.9 0 0 .9 271.76 222.51)"/><use xlink:href="#b" transform="matrix(.9 0 0 .9 271.64 230.29)"/><use xlink:href="#b" transform="matrix(.9 0 0 .9 271.69 233.41)"/><use xlink:href="#b" transform="matrix(.9 0 0 .9 271.84 203.68)"/><use xlink:href="#b" transform="matrix(.9 0 0 .9 273.25 219.97)"/><use xlink:href="#b" transform="matrix(.9 0 0 .9 273.26 205.02)"/><use xlink:href="#b" transform="matrix(.9 0 0 .9 273.27 209.15)"/><use xlink:href="#b" transform="matrix(.9 0 0 .9 273.38 199.72)"/><use xlink:href="#b" transform="matrix(.9 0 0 .9 274.75 191.33)"/><use xlink:href="#b" transform="matrix(.9 0 0 .9 274.63 189.84)"/><use xlink:href="#b" transform="matrix(.9 0 0 .9 274.74 187.05)"/><use xlink:href="#b" transform="matrix(.9 0 0 .9 274.58 173.88)"/><use xlink:href="#b" transform="matrix(.9 0 0 .9 276.18 164.16)"/><use xlink:href="#b" transform="matrix(.9 0 0 .9 276.3 139.64)"/><use xlink:href="#b" transform="matrix(.9 0 0 .9 276.07 171.79)"/><use xlink:href="#b" transform="matrix(.9 0 0 .9 276 179.46)"/><use xlink:href="#b" transform="matrix(.9 0 0 .9 277.65 130.01)"/><use xlink:href="#b" transform="matrix(.9 0 0 .9 277.56 140.84)"/><use xlink:href="#b" transform="matrix(.9 0 0 .9 277.64 132.44)"/><use xlink:href="#b" transform="matrix(.9 0 0 .9 277.63 137.96)"/><use xlink:href="#b" transform="matrix(.9 0 0 .9 279.22 130.01)"/><use xlink:href="#b" transform="matrix(.9 0 0 .9 279.1 148.9)"/><use xlink:href="#b" transform="matrix(.9 0 0 .9 279.15 120.98)"/><use xlink:href="#b" transform="matrix(.9 0 0 .9 279.15 117.08)"/><use xlink:href="#b" transform="matrix(.9 0 0 .9 280.58 113.67)"/><use xlink:href="#b" transform="matrix(.9 0 0 .9 280.64 112.98)"/><use xlink:href="#b" transform="matrix(.9 0 0 .9 280.66 105.39)"/><use xlink:href="#b" transform="matrix(.9 0 0 .9 280.73 116.91)"/><use xlink:href="#b" transform="matrix(.9 0 0 .9 282.32 74.48)"/><use xlink:href="#b" transform="matrix(.9 0 0 .9 281.91 101.81)"/><use xlink:href="#b" transform="matrix(.9 0 0 .9 282.02 84.64)"/><use xlink:href="#b" transform="matrix(.9 0 0 .9 283.44 77.61)"/><use xlink:href="#b" transform="matrix(.9 0 0 .9 283.6 74.93)"/><use xlink:href="#b" transform="matrix(.9 0 0 .9 283.56 74.48)"/><use xlink:href="#b" transform="matrix(.9 0 0 .9 288.1 74.48)"/><use xlink:href="#b" transform="matrix(.9 0 0 .9 292.6 74.48)"/><use xlink:href="#b" transform="matrix(.9 0 0 .9 298.42 74.48)"/><use xlink:href="#b" transform="matrix(.9 0 0 .9 302.89 74.48)"/><use xlink:href="#b" transform="matrix(.9 0 0 .9 308.77 74.48)"/><use xlink:href="#b" transform="matrix(.9 0 0 .9 313.23 74.48)"/><use xlink:href="#b" transform="matrix(.9 0 0 .9 319.15 74.48)"/><use xlink:href="#b" transform="matrix(.9 0 0 .9 323.66 74.48)"/><use xlink:href="#b" transform="matrix(.9 0 0 .9 328.16 74.48)"/><use xlink:href="#b" transform="matrix(.9 0 0 .9 334.09 74.48)"/><use xlink:href="#b" transform="matrix(.9 0 0 .9 339.96 74.48)"/><use xlink:href="#b" transform="matrix(.9 0 0 .9 345.97 74.48)"/><use xlink:href="#b" transform="matrix(.9 0 0 .9 351.8 74.48)"/><use xlink:href="#b" transform="matrix(.9 0 0 .9 357.79 74.48)"/><use xlink:href="#b" transform="matrix(.9 0 0 .9 362.36 74.48)"/><use xlink:href="#b" transform="matrix(.9 0 0 .9 366.84 74.48)"/><use xlink:href="#b" transform="matrix(.9 0 0 .9 372.61 74.48)"/><use xlink:href="#b" transform="matrix(.9 0 0 .9 377.16 74.48)"/><use xlink:href="#b" transform="matrix(.9 0 0 .9 383.05 74.48)"/><use xlink:href="#b" transform="matrix(.9 0 0 .9 388.98 74.48)"/><use xlink:href="#b" transform="matrix(.9 0 0 .9 393.48 74.48)"/><use xlink:href="#b" transform="matrix(.9 0 0 .9 399.36 74.48)"/><use xlink:href="#b" transform="matrix(.9 0 0 .9 403.83 74.48)"/><use xlink:href="#b" transform="matrix(.9 0 0 .9 408.37 74.48)"/><use xlink:href="#b" transform="matrix(.9 0 0 .9 412.83 74.48)"/><use xlink:href="#b" transform="matrix(.9 0 0 .9 418.61 74.48)"/><use xlink:href="#b" transform="matrix(.9 0 0 .9 423.24 74.48)"/><use xlink:href="#b" transform="matrix(.9 0 0 .9 428.94 74.48)"/><use xlink:href="#b" transform="matrix(.9 0 0 .9 433.41 74.48)"/><use xlink:href="#b" transform="matrix(.9 0 0 .9 438.15 74.48)"/><use xlink:href="#b" transform="matrix(.9 0 0 .9 443.99 74.48)"/><use xlink:href="#b" transform="matrix(.9 0 0 .9 449.74 74.48)"/><use xlink:href="#b" transform="matrix(.9 0 0 .9 454.28 74.48)"/><use xlink:href="#b" transform="matrix(.9 0 0 .9 458.84 74.48)"/><use xlink:href="#b" transform="matrix(.9 0 0 .9 464.86 74.48)"/><use xlink:href="#b" transform="matrix(.9 0 0 .9 470.45 74.48)"/><use xlink:href="#b" transform="matrix(.9 0 0 .9 475.2 74.48)"/><use xlink:href="#b" transform="matrix(.9 0 0 .9 480.74 74.48)"/><use xlink:href="#b" transform="matrix(.9 0 0 .9 485.58 74.48)"/><use xlink:href="#b" transform="matrix(.9 0 0 .9 491.33 74.48)"/><use xlink:href="#b" transform="matrix(.9 0 0 .9 495.9 74.48)"/><use xlink:href="#b" transform="matrix(.9 0 0 .9 500.48 74.48)"/><use xlink:href="#b" transform="matrix(.9 0 0 .9 504.97 74.48)"/><use xlink:href="#b" transform="matrix(.9 0 0 .9 506.42 80.64)"/><use xlink:href="#b" transform="matrix(.9 0 0 .9 506.39 74.48)"/><use xlink:href="#b" transform="matrix(.9 0 0 .9 512.19 74.48)"/><use xlink:href="#b" transform="matrix(.9 0 0 .9 516.68 74.48)"/><use xlink:href="#b" transform="matrix(.9 0 0 .9 521.23 74.48)"/><use xlink:href="#b" transform="matrix(.9 0 0 .9 525.72 74.48)"/><use xlink:href="#b" transform="matrix(.9 0 0 .9 530.21 74.48)"/><use xlink:href="#b" transform="matrix(.9 0 0 .9 535.94 74.48)"/><use xlink:href="#b" transform="matrix(.9 0 0 .9 536.76 274.21)"/></g><text color="#000" font-family="Arial" font-size="12" text-anchor="end" transform="translate(507.09 296.11)"><tspan>Sum8</tspan></text><g fill="none" stroke="currentColor" color="#7813EC"><use xlink:href="#b" transform="matrix(.9 0 0 .9 121.68 401.93)"/><use xlink:href="#b" transform="matrix(.9 0 0 .9 127.37 401.93)"/><use xlink:href="#b" transform="matrix(.9 0 0 .9 136.48 401.93)"/><use xlink:href="#b" transform="matrix(.9 0 0 .9 142.37 401.93)"/><use xlink:href="#b" transform="matrix(.9 0 0 .9 147.91 401.93)"/><use xlink:href="#b" transform="matrix(.9 0 0 .9 152.4 401.93)"/><use xlink:href="#b" transform="matrix(.9 0 0 .9 158.15 401.93)"/><use xlink:href="#b" transform="matrix(.9 0 0 .9 164.02 401.93)"/><use xlink:href="#b" transform="matrix(.9 0 0 .9 169.77 401.93)"/><use xlink:href="#b" transform="matrix(.9 0 0 .9 174.28 401.93)"/><use xlink:href="#b" transform="matrix(.9 0 0 .9 180.09 401.93)"/><use xlink:href="#b" transform="matrix(.9 0 0 .9 184.61 401.93)"/><use xlink:href="#b" transform="matrix(.9 0 0 .9 190.39 401.93)"/><use xlink:href="#b" transform="matrix(.9 0 0 .9 194.86 401.93)"/><use xlink:href="#b" transform="matrix(.9 0 0 .9 200.58 401.93)"/><use xlink:href="#b" transform="matrix(.9 0 0 .9 205.16 401.93)"/><use xlink:href="#b" transform="matrix(.9 0 0 .9 211.12 401.93)"/><use xlink:href="#b" transform="matrix(.9 0 0 .9 216.93 401.93)"/><use xlink:href="#b" transform="matrix(.9 0 0 .9 222.81 401.93)"/><use xlink:href="#b" transform="matrix(.9 0 0 .9 227.29 401.93)"/><use xlink:href="#b" transform="matrix(.9 0 0 .9 231.82 401.93)"/><use xlink:href="#b" transform="matrix(.9 0 0 .9 236.28 401.93)"/><use xlink:href="#b" transform="matrix(.9 0 0 .9 242.05 401.93)"/><use xlink:href="#b" transform="matrix(.9 0 0 .9 246.59 401.93)"/><use xlink:href="#b" transform="matrix(.9 0 0 .9 251.07 401.93)"/><use xlink:href="#b" transform="matrix(.9 0 0 .9 255.54 401.93)"/><use xlink:href="#b" transform="matrix(.9 0 0 .9 261.39 401.93)"/><use xlink:href="#b" transform="matrix(.9 0 0 .9 267.27 401.93)"/><use xlink:href="#b" transform="matrix(.9 0 0 .9 271.76 401.93)"/><use xlink:href="#b" transform="matrix(.9 0 0 .9 276.3 401.93)"/><use xlink:href="#b" transform="matrix(.9 0 0 .9 282.32 398.25)"/><use xlink:href="#b" transform="matrix(.9 0 0 .9 281.91 401.93)"/><use xlink:href="#b" transform="matrix(.9 0 0 .9 283.44 396.27)"/><use xlink:href="#b" transform="matrix(.9 0 0 .9 283.56 381.97)"/><use xlink:href="#b" transform="matrix(.9 0 0 .9 285.08 358.83)"/><use xlink:href="#b" transform="matrix(.9 0 0 .9 285.06 365.33)"/><use xlink:href="#b" transform="matrix(.9 0 0 .9 285.26 370.83)"/><use xlink:href="#b" transform="matrix(.9 0 0 .9 285.17 373.82)"/><use xlink:href="#b" transform="matrix(.9 0 0 .9 286.56 333.16)"/><use xlink:href="#b" transform="matrix(.9 0 0 .9 286.6 328.77)"/><use xlink:href="#b" transform="matrix(.9 0 0 .9 286.57 333.35)"/><use xlink:href="#b" transform="matrix(.9 0 0 .9 286.4 337)"/><use xlink:href="#b" transform="matrix(.9 0 0 .9 288.1 319.9)"/><use xlink:href="#b" transform="matrix(.9 0 0 .9 288.01 326.77)"/><use xlink:href="#b" transform="matrix(.9 0 0 .9 288.01 318.97)"/><use xlink:href="#b" transform="matrix(.9 0 0 .9 287.89 318.93)"/><use xlink:href="#b" transform="matrix(.9 0 0 .9 289.46 298.78)"/><use xlink:href="#b" transform="matrix(.9 0 0 .9 289.68 328.77)"/><use xlink:href="#b" transform="matrix(.9 0 0 .9 289.46 325.07)"/><use xlink:href="#b" transform="matrix(.9 0 0 .9 289.46 307.4)"/><use xlink:href="#b" transform="matrix(.9 0 0 .9 290.93 296.15)"/><use xlink:href="#b" transform="matrix(.9 0 0 .9 290.89 307.4)"/><use xlink:href="#b" transform="matrix(.9 0 0 .9 290.86 296.15)"/><use xlink:href="#b" transform="matrix(.9 0 0 .9 292.6 257.08)"/><use xlink:href="#b" transform="matrix(.9 0 0 .9 292.52 269.39)"/><use xlink:href="#b" transform="matrix(.9 0 0 .9 292.44 245.87)"/><use xlink:href="#b" transform="matrix(.9 0 0 .9 292.42 229.92)"/><use xlink:href="#b" transform="matrix(.9 0 0 .9 294.09 240.76)"/><use xlink:href="#b" transform="matrix(.9 0 0 .9 294.02 233.51)"/><use xlink:href="#b" transform="matrix(.9 0 0 .9 294.05 253.3)"/><use xlink:href="#b" transform="matrix(.9 0 0 .9 294.02 252.73)"/><use xlink:href="#b" transform="matrix(.9 0 0 .9 295.5 238.76)"/><use xlink:href="#b" transform="matrix(.9 0 0 .9 295.61 228.92)"/><use xlink:href="#b" transform="matrix(.9 0 0 .9 295.45 211.65)"/><use xlink:href="#b" transform="matrix(.9 0 0 .9 295.43 216.61)"/><use xlink:href="#b" transform="matrix(.9 0 0 .9 296.94 210.1)"/><use xlink:href="#b" transform="matrix(.9 0 0 .9 296.85 193.32)"/><use xlink:href="#b" transform="matrix(.9 0 0 .9 296.89 200.33)"/><use xlink:href="#b" transform="matrix(.9 0 0 .9 296.89 193.32)"/><use xlink:href="#b" transform="matrix(.9 0 0 .9 298.42 195.7)"/><use xlink:href="#b" transform="matrix(.9 0 0 .9 298.37 194.47)"/><use xlink:href="#b" transform="matrix(.9 0 0 .9 298.5 177.71)"/><use xlink:href="#b" transform="matrix(.9 0 0 .9 298.51 162.24)"/><use xlink:href="#b" transform="matrix(.9 0 0 .9 299.99 143.08)"/><use xlink:href="#b" transform="matrix(.9 0 0 .9 299.77 180.41)"/><use xlink:href="#b" transform="matrix(.9 0 0 .9 299.89 159.72)"/><use xlink:href="#b" transform="matrix(.9 0 0 .9 299.86 154.54)"/><use xlink:href="#b" transform="matrix(.9 0 0 .9 301.43 146.77)"/><use xlink:href="#b" transform="matrix(.9 0 0 .9 301.47 126.29)"/><use xlink:href="#b" transform="matrix(.9 0 0 .9 301.39 157.82)"/><use xlink:href="#b" transform="matrix(.9 0 0 .9 302.89 110.84)"/><use xlink:href="#b" transform="matrix(.9 0 0 .9 302.98 146.77)"/><use xlink:href="#b" transform="matrix(.9 0 0 .9 302.8 115.64)"/><use xlink:href="#b" transform="matrix(.9 0 0 .9 302.9 88.21)"/><use xlink:href="#b" transform="matrix(.9 0 0 .9 304.5 95.65)"/><use xlink:href="#b" transform="matrix(.9 0 0 .9 304.37 110.84)"/><use xlink:href="#b" transform="matrix(.9 0 0 .9 304.18 100.33)"/><use xlink:href="#b" transform="matrix(.9 0 0 .9 304.25 108.77)"/><use xlink:href="#b" transform="matrix(.9 0 0 .9 305.79 74.48)"/><use xlink:href="#b" transform="matrix(.9 0 0 .9 305.91 77.39)"/><use xlink:href="#b" transform="matrix(.9 0 0 .9 305.76 74.48)"/><use xlink:href="#b" transform="matrix(.9 0 0 .9 310.27 74.48)"/><use xlink:href="#b" transform="matrix(.9 0 0 .9 314.84 74.48)"/><use xlink:href="#b" transform="matrix(.9 0 0 .9 320.56 74.48)"/><use xlink:href="#b" transform="matrix(.9 0 0 .9 325.18 74.48)"/><use xlink:href="#b" transform="matrix(.9 0 0 .9 331.14 74.48)"/><use xlink:href="#b" transform="matrix(.9 0 0 .9 335.69 74.48)"/><use xlink:href="#b" transform="matrix(.9 0 0 .9 341.27 74.48)"/><use xlink:href="#b" transform="matrix(.9 0 0 .9 345.97 74.48)"/><use xlink:href="#b" transform="matrix(.9 0 0 .9 351.8 74.48)"/><use xlink:href="#b" transform="matrix(.9 0 0 .9 357.79 74.48)"/><use xlink:href="#b" transform="matrix(.9 0 0 .9 362.36 74.48)"/><use xlink:href="#b" transform="matrix(.9 0 0 .9 366.84 74.48)"/><use xlink:href="#b" transform="matrix(.9 0 0 .9 372.61 74.48)"/><use xlink:href="#b" transform="matrix(.9 0 0 .9 377.16 74.48)"/><use xlink:href="#b" transform="matrix(.9 0 0 .9 383.05 74.48)"/><use xlink:href="#b" transform="matrix(.9 0 0 .9 388.98 74.48)"/><use xlink:href="#b" transform="matrix(.9 0 0 .9 393.48 74.48)"/><use xlink:href="#b" transform="matrix(.9 0 0 .9 399.36 74.48)"/><use xlink:href="#b" transform="matrix(.9 0 0 .9 403.83 74.48)"/><use xlink:href="#b" transform="matrix(.9 0 0 .9 408.37 74.48)"/><use xlink:href="#b" transform="matrix(.9 0 0 .9 412.83 74.48)"/><use xlink:href="#b" transform="matrix(.9 0 0 .9 418.61 74.48)"/><use xlink:href="#b" transform="matrix(.9 0 0 .9 423.24 74.48)"/><use xlink:href="#b" transform="matrix(.9 0 0 .9 428.94 74.48)"/><use xlink:href="#b" transform="matrix(.9 0 0 .9 433.41 74.48)"/><use xlink:href="#b" transform="matrix(.9 0 0 .9 438.15 74.48)"/><use xlink:href="#b" transform="matrix(.9 0 0 .9 443.99 74.48)"/><use xlink:href="#b" transform="matrix(.9 0 0 .9 449.74 74.48)"/><use xlink:href="#b" transform="matrix(.9 0 0 .9 454.28 74.48)"/><use xlink:href="#b" transform="matrix(.9 0 0 .9 458.84 74.48)"/><use xlink:href="#b" transform="matrix(.9 0 0 .9 464.86 74.48)"/><use xlink:href="#b" transform="matrix(.9 0 0 .9 470.45 74.48)"/><use xlink:href="#b" transform="matrix(.9 0 0 .9 475.2 74.48)"/><use xlink:href="#b" transform="matrix(.9 0 0 .9 480.74 74.48)"/><use xlink:href="#b" transform="matrix(.9 0 0 .9 485.58 74.48)"/><use xlink:href="#b" transform="matrix(.9 0 0 .9 491.33 74.48)"/><use xlink:href="#b" transform="matrix(.9 0 0 .9 495.9 74.48)"/><use xlink:href="#b" transform="matrix(.9 0 0 .9 500.48 74.48)"/><use xlink:href="#b" transform="matrix(.9 0 0 .9 504.97 74.48)"/><use xlink:href="#b" transform="matrix(.9 0 0 .9 510.84 74.48)"/><use xlink:href="#b" transform="matrix(.9 0 0 .9 516.68 74.48)"/><use xlink:href="#b" transform="matrix(.9 0 0 .9 521.23 74.48)"/><use xlink:href="#b" transform="matrix(.9 0 0 .9 525.72 74.48)"/><use xlink:href="#b" transform="matrix(.9 0 0 .9 530.21 74.48)"/><use xlink:href="#b" transform="matrix(.9 0 0 .9 535.94 74.48)"/><use xlink:href="#b" transform="matrix(.9 0 0 .9 536.76 292.21)"/></g><text color="#000" font-family="Arial" font-size="12" text-anchor="end" transform="translate(507.09 314.11)"><tspan>Sum9</tspan></text><g fill="none" stroke="currentColor" color="#A511D8"><use xlink:href="#b" transform="matrix(.9 0 0 .9 121.68 401.93)"/><use xlink:href="#b" transform="matrix(.9 0 0 .9 127.37 401.93)"/><use xlink:href="#b" transform="matrix(.9 0 0 .9 136.48 401.93)"/><use xlink:href="#b" transform="matrix(.9 0 0 .9 142.37 401.93)"/><use xlink:href="#b" transform="matrix(.9 0 0 .9 147.91 401.93)"/><use xlink:href="#b" transform="matrix(.9 0 0 .9 152.4 401.93)"/><use xlink:href="#b" transform="matrix(.9 0 0 .9 158.15 401.93)"/><use xlink:href="#b" transform="matrix(.9 0 0 .9 164.02 401.93)"/><use xlink:href="#b" transform="matrix(.9 0 0 .9 169.77 401.93)"/><use xlink:href="#b" transform="matrix(.9 0 0 .9 174.28 401.93)"/><use xlink:href="#b" transform="matrix(.9 0 0 .9 180.09 401.93)"/><use xlink:href="#b" transform="matrix(.9 0 0 .9 184.61 401.93)"/><use xlink:href="#b" transform="matrix(.9 0 0 .9 190.39 401.93)"/><use xlink:href="#b" transform="matrix(.9 0 0 .9 194.86 401.93)"/><use xlink:href="#b" transform="matrix(.9 0 0 .9 200.58 401.93)"/><use xlink:href="#b" transform="matrix(.9 0 0 .9 205.16 401.93)"/><use xlink:href="#b" transform="matrix(.9 0 0 .9 211.12 401.93)"/><use xlink:href="#b" transform="matrix(.9 0 0 .9 216.93 401.93)"/><use xlink:href="#b" transform="matrix(.9 0 0 .9 222.81 401.93)"/><use xlink:href="#b" transform="matrix(.9 0 0 .9 227.29 401.93)"/><use xlink:href="#b" transform="matrix(.9 0 0 .9 231.82 401.93)"/><use xlink:href="#b" transform="matrix(.9 0 0 .9 236.28 401.93)"/><use xlink:href="#b" transform="matrix(.9 0 0 .9 242.05 401.93)"/><use xlink:href="#b" transform="matrix(.9 0 0 .9 246.59 401.93)"/><use xlink:href="#b" transform="matrix(.9 0 0 .9 251.07 401.93)"/><use xlink:href="#b" transform="matrix(.9 0 0 .9 255.54 401.93)"/><use xlink:href="#b" transform="matrix(.9 0 0 .9 261.39 401.93)"/><use xlink:href="#b" transform="matrix(.9 0 0 .9 267.27 401.93)"/><use xlink:href="#b" transform="matrix(.9 0 0 .9 271.76 401.93)"/><use xlink:href="#b" transform="matrix(.9 0 0 .9 276.3 401.93)"/><use xlink:href="#b" transform="matrix(.9 0 0 .9 282.32 401.93)"/><use xlink:href="#b" transform="matrix(.9 0 0 .9 288.1 401.93)"/><use xlink:href="#b" transform="matrix(.9 0 0 .9 292.6 401.93)"/><use xlink:href="#b" transform="matrix(.9 0 0 .9 298.42 401.93)"/><use xlink:href="#b" transform="matrix(.9 0 0 .9 302.89 401.93)"/><use xlink:href="#b" transform="matrix(.9 0 0 .9 305.79 397.33)"/><use xlink:href="#b" transform="matrix(.9 0 0 .9 305.92 391.16)"/><use xlink:href="#b" transform="matrix(.9 0 0 .9 305.91 401.93)"/><use xlink:href="#b" transform="matrix(.9 0 0 .9 305.76 391.16)"/><use xlink:href="#b" transform="matrix(.9 0 0 .9 307.22 366.73)"/><use xlink:href="#b" transform="matrix(.9 0 0 .9 307.25 381.04)"/><use xlink:href="#b" transform="matrix(.9 0 0 .9 307.22 385.58)"/><use xlink:href="#b" transform="matrix(.9 0 0 .9 307.34 378.05)"/><use xlink:href="#b" transform="matrix(.9 0 0 .9 308.77 360.8)"/><use xlink:href="#b" transform="matrix(.9 0 0 .9 308.92 364.75)"/><use xlink:href="#b" transform="matrix(.9 0 0 .9 308.69 376.06)"/><use xlink:href="#b" transform="matrix(.9 0 0 .9 308.76 349.22)"/><use xlink:href="#b" transform="matrix(.9 0 0 .9 310.08 327.4)"/><use xlink:href="#b" transform="matrix(.9 0 0 .9 310.15 341.06)"/><use xlink:href="#b" transform="matrix(.9 0 0 .9 310.27 328.18)"/><use xlink:href="#b" transform="matrix(.9 0 0 .9 311.73 326.5)"/><use xlink:href="#b" transform="matrix(.9 0 0 .9 311.64 344.31)"/><use xlink:href="#b" transform="matrix(.9 0 0 .9 311.73 320.96)"/><use xlink:href="#b" transform="matrix(.9 0 0 .9 311.82 330.9)"/><use xlink:href="#b" transform="matrix(.9 0 0 .9 313.04 302.02)"/><use xlink:href="#b" transform="matrix(.9 0 0 .9 313.23 309.13)"/><use xlink:href="#b" transform="matrix(.9 0 0 .9 313.07 289.58)"/><use xlink:href="#b" transform="matrix(.9 0 0 .9 313.26 279.52)"/><use xlink:href="#b" transform="matrix(.9 0 0 .9 314.73 271.35)"/><use xlink:href="#b" transform="matrix(.9 0 0 .9 314.84 298.12)"/><use xlink:href="#b" transform="matrix(.9 0 0 .9 314.7 248.56)"/><use xlink:href="#b" transform="matrix(.9 0 0 .9 314.79 277.76)"/><use xlink:href="#b" transform="matrix(.9 0 0 .9 316.39 279.52)"/><use xlink:href="#b" transform="matrix(.9 0 0 .9 316.02 265.64)"/><use xlink:href="#b" transform="matrix(.9 0 0 .9 316.29 248.16)"/><use xlink:href="#b" transform="matrix(.9 0 0 .9 316.19 254.58)"/><use xlink:href="#b" transform="matrix(.9 0 0 .9 317.53 220.64)"/><use xlink:href="#b" transform="matrix(.9 0 0 .9 317.62 226.22)"/><use xlink:href="#b" transform="matrix(.9 0 0 .9 317.69 231.3)"/><use xlink:href="#b" transform="matrix(.9 0 0 .9 317.68 261.3)"/><use xlink:href="#b" transform="matrix(.9 0 0 .9 319.15 217.51)"/><use xlink:href="#b" transform="matrix(.9 0 0 .9 319.16 209.72)"/><use xlink:href="#b" transform="matrix(.9 0 0 .9 318.99 227.16)"/><use xlink:href="#b" transform="matrix(.9 0 0 .9 319.17 221.04)"/><use xlink:href="#b" transform="matrix(.9 0 0 .9 320.56 200.71)"/><use xlink:href="#b" transform="matrix(.9 0 0 .9 320.7 165.31)"/><use xlink:href="#b" transform="matrix(.9 0 0 .9 320.46 185.33)"/><use xlink:href="#b" transform="matrix(.9 0 0 .9 320.6 194.84)"/><use xlink:href="#b" transform="matrix(.9 0 0 .9 322.13 191.84)"/><use xlink:href="#b" transform="matrix(.9 0 0 .9 322.16 184.64)"/><use xlink:href="#b" transform="matrix(.9 0 0 .9 321.98 161.4)"/><use xlink:href="#b" transform="matrix(.9 0 0 .9 322.26 164.52)"/><use xlink:href="#b" transform="matrix(.9 0 0 .9 323.66 152.79)"/><use xlink:href="#b" transform="matrix(.9 0 0 .9 323.64 154.44)"/><use xlink:href="#b" transform="matrix(.9 0 0 .9 323.7 145.01)"/><use xlink:href="#b" transform="matrix(.9 0 0 .9 323.71 143.46)"/><use xlink:href="#b" transform="matrix(.9 0 0 .9 325.18 134.74)"/><use xlink:href="#b" transform="matrix(.9 0 0 .9 325.17 146.69)"/><use xlink:href="#b" transform="matrix(.9 0 0 .9 325.21 117.75)"/><use xlink:href="#b" transform="matrix(.9 0 0 .9 325.27 128.11)"/><use xlink:href="#b" transform="matrix(.9 0 0 .9 326.55 138.84)"/><use xlink:href="#b" transform="matrix(.9 0 0 .9 326.67 131.37)"/><use xlink:href="#b" transform="matrix(.9 0 0 .9 326.57 117.75)"/><use xlink:href="#b" transform="matrix(.9 0 0 .9 326.51 130.82)"/><use xlink:href="#b" transform="matrix(.9 0 0 .9 328.16 91.07)"/><use xlink:href="#b" transform="matrix(.9 0 0 .9 327.96 89.94)"/><use xlink:href="#b" transform="matrix(.9 0 0 .9 328.05 95.72)"/><use xlink:href="#b" transform="matrix(.9 0 0 .9 328.1 100.21)"/><use xlink:href="#b" transform="matrix(.9 0 0 .9 329.64 74.48)"/><use xlink:href="#b" transform="matrix(.9 0 0 .9 329.5 101.16)"/><use xlink:href="#b" transform="matrix(.9 0 0 .9 329.48 74.48)"/><use xlink:href="#b" transform="matrix(.9 0 0 .9 334.09 74.48)"/><use xlink:href="#b" transform="matrix(.9 0 0 .9 339.96 74.48)"/><use xlink:href="#b" transform="matrix(.9 0 0 .9 345.97 74.48)"/><use xlink:href="#b" transform="matrix(.9 0 0 .9 351.8 74.48)"/><use xlink:href="#b" transform="matrix(.9 0 0 .9 357.79 74.48)"/><use xlink:href="#b" transform="matrix(.9 0 0 .9 359.34 80.64)"/><use xlink:href="#b" transform="matrix(.9 0 0 .9 359.03 74.48)"/><use xlink:href="#b" transform="matrix(.9 0 0 .9 362.36 80.64)"/><use xlink:href="#b" transform="matrix(.9 0 0 .9 362.33 74.48)"/><use xlink:href="#b" transform="matrix(.9 0 0 .9 366.84 74.48)"/><use xlink:href="#b" transform="matrix(.9 0 0 .9 372.61 74.48)"/><use xlink:href="#b" transform="matrix(.9 0 0 .9 377.16 74.48)"/><use xlink:href="#b" transform="matrix(.9 0 0 .9 383.05 74.48)"/><use xlink:href="#b" transform="matrix(.9 0 0 .9 388.98 74.48)"/><use xlink:href="#b" transform="matrix(.9 0 0 .9 393.48 74.48)"/><use xlink:href="#b" transform="matrix(.9 0 0 .9 399.36 74.48)"/><use xlink:href="#b" transform="matrix(.9 0 0 .9 403.83 74.48)"/><use xlink:href="#b" transform="matrix(.9 0 0 .9 408.37 74.48)"/><use xlink:href="#b" transform="matrix(.9 0 0 .9 412.83 74.48)"/><use xlink:href="#b" transform="matrix(.9 0 0 .9 418.61 74.48)"/><use xlink:href="#b" transform="matrix(.9 0 0 .9 423.24 74.48)"/><use xlink:href="#b" transform="matrix(.9 0 0 .9 428.94 74.48)"/><use xlink:href="#b" transform="matrix(.9 0 0 .9 433.41 74.48)"/><use xlink:href="#b" transform="matrix(.9 0 0 .9 438.15 74.48)"/><use xlink:href="#b" transform="matrix(.9 0 0 .9 443.99 74.48)"/><use xlink:href="#b" transform="matrix(.9 0 0 .9 449.74 74.48)"/><use xlink:href="#b" transform="matrix(.9 0 0 .9 454.28 74.48)"/><use xlink:href="#b" transform="matrix(.9 0 0 .9 458.84 74.48)"/><use xlink:href="#b" transform="matrix(.9 0 0 .9 464.86 74.48)"/><use xlink:href="#b" transform="matrix(.9 0 0 .9 470.45 74.48)"/><use xlink:href="#b" transform="matrix(.9 0 0 .9 475.2 74.48)"/><use xlink:href="#b" transform="matrix(.9 0 0 .9 480.74 74.48)"/><use xlink:href="#b" transform="matrix(.9 0 0 .9 485.58 74.48)"/><use xlink:href="#b" transform="matrix(.9 0 0 .9 491.33 74.48)"/><use xlink:href="#b" transform="matrix(.9 0 0 .9 495.9 74.48)"/><use xlink:href="#b" transform="matrix(.9 0 0 .9 500.48 74.48)"/><use xlink:href="#b" transform="matrix(.9 0 0 .9 504.97 74.48)"/><use xlink:href="#b" transform="matrix(.9 0 0 .9 510.84 74.48)"/><use xlink:href="#b" transform="matrix(.9 0 0 .9 516.68 74.48)"/><use xlink:href="#b" transform="matrix(.9 0 0 .9 521.23 74.48)"/><use xlink:href="#b" transform="matrix(.9 0 0 .9 525.72 74.48)"/><use xlink:href="#b" transform="matrix(.9 0 0 .9 530.21 74.48)"/><use xlink:href="#b" transform="matrix(.9 0 0 .9 535.94 74.48)"/><use xlink:href="#b" transform="matrix(.9 0 0 .9 536.76 310.21)"/></g><g fill="none" stroke="currentColor" color="#000"><path stroke="#000" d="M106.09 54.01V422.4h468.73V54.01z"/><text fill="#000" stroke="none" font-family="Arial" font-size="12" text-anchor="middle" transform="rotate(-90 128.695 109.515)"><tspan>relative error</tspan></text></g><text color="#000" font-family="Arial" font-size="12" text-anchor="middle" transform="translate(340.45 471.3)"><tspan>condition number</tspan></text><text color="#000" font-family="Arial" font-size="12" text-anchor="middle" transform="translate(340.45 30.91)"><tspan>SumK for K = 2...9, double precision</tspan></text></svg>